<svg xmlns="http://www.w3.org/2000/svg" width="18.24" height="18.24" viewBox="0 0 18.24 18.24"><circle fill="#00AEEF" cx="8.5" cy="8.5" r="8.5"/><path fill="#FFF" d="M5.798 4.037h2.316c.73 0 1.285.058 1.66.17.38.116.683.346.914.692.232.346.347.906.347 1.677 0 .522-.08.885-.244 1.09-.163.207-.485.364-.967.475.538.12.9.32 1.092.603.19.282.286.714.286 1.294v.827c0 .603-.067 1.05-.205 1.34-.137.292-.358.49-.66.598-.3.105-.917.16-1.85.16H5.797V4.036zm2.32 1.528V7.55c.1-.004.178-.006.232-.006.228 0 .374-.057.436-.168.062-.113.093-.432.093-.962 0-.28-.026-.475-.078-.587-.05-.112-.118-.183-.2-.212-.082-.03-.244-.046-.483-.05zm0 3.374v2.498c.328-.013.538-.063.626-.154.09-.094.136-.318.136-.68V9.77c0-.382-.04-.614-.122-.694-.08-.08-.293-.126-.64-.137z"/></svg>