<svg xmlns="http://www.w3.org/2000/svg" width="18.24" height="18.24" viewBox="0 0 18.24 18.24"><circle fill="#00AEEF" cx="9.12" cy="9.12" r="9.12"/><path fill="#FFF" d="M6.221 4.332h2.485c.785 0 1.379.061 1.783.183.404.123.73.37.979.742.249.373.373.973.373 1.8 0 .56-.088.95-.263 1.171-.176.221-.522.39-1.038.508.576.13.966.346 1.171.648s.308.765.308 1.388v.889c0 .646-.074 1.127-.222 1.438-.147.313-.384.525-.707.64s-.986.172-1.988.172H6.221V4.332zM8.712 5.97V8.1c.106-.004.189-.006.248-.006.244 0 .4-.06.467-.18.067-.121.1-.464.1-1.032 0-.3-.027-.51-.083-.63-.054-.121-.126-.197-.215-.229-.088-.031-.261-.049-.517-.053zm0 3.621v2.68c.351-.012.575-.067.671-.165.096-.1.145-.342.145-.729v-.893c0-.41-.043-.659-.13-.746-.086-.086-.315-.135-.686-.147z"/></svg>