<svg xmlns="http://www.w3.org/2000/svg" width="80" height="80" viewBox="0 0 80 80"><path d="M47.828 21.147l-5.82 4.836 1.476 1.476-2.786 2.787-2.869-2.869.901-.901-5.246-5.246L17.5 36.721l5.328 5.738 1.065-1.065 17.623 17.459 13.606-13.606-2.049-2.049 2.868-3.279 1.229 1.229 5.33-5.328-14.672-14.673zm-25 20.082l-4.181-4.509 14.836-14.344 4.099 4.099-14.754 14.754zm31.066 4.017l-2.296 2.295-5.573-5.738c-.163-.164-.409-.164-.573 0s-.164.41 0 .574l5.573 5.738-2.868 2.868-5.574-5.737c-.164-.164-.41-.164-.574 0s-.164.41 0 .574l5.574 5.736-2.869 2.869-5.574-5.737c-.163-.164-.409-.164-.573 0s-.164.409 0 .573L44.139 55l-2.622 2.705-16.968-16.967 12.705-12.705 2.869 2.868-6.312 6.476 4.181 4.18 6.065-6.064 9.837 9.753zm-1.476-2.623l-8.36-8.443-6.065 6.066-3.033-2.951 6.394-6.394 2.786-2.786 11.23 11.229-2.952 3.279zm-9.18-16.64l4.508-3.771L61.353 35.82 57.172 40 43.238 25.983z"/></svg>