<?xml version="1.0" encoding="utf-8"?>
<!-- Generator: Adobe Illustrator 16.0.0, SVG Export Plug-In . SVG Version: 6.00 Build 0)  -->
<!DOCTYPE svg PUBLIC "-//W3C//DTD SVG 1.1//EN" "http://www.w3.org/Graphics/SVG/1.1/DTD/svg11.dtd">
<svg version="1.1" id="Layer_1" xmlns="http://www.w3.org/2000/svg" xmlns:xlink="http://www.w3.org/1999/xlink" x="0px" y="0px"
	 width="80px" height="80px" viewBox="0 0 80 80" enable-background="new 0 0 80 80" xml:space="preserve">
<path d="M47.828,21.147l-5.82,4.836l1.476,1.476l-2.786,2.787l-2.869-2.869l0.901-0.901l-5.246-5.246L17.5,36.721l5.328,5.738
	l1.065-1.065l17.623,17.459l13.606-13.606l-2.049-2.049l2.868-3.279l1.229,1.229L62.5,35.82L47.828,21.147z M22.828,41.229
	l-4.181-4.509l14.836-14.344l4.099,4.099L22.828,41.229z M53.894,45.246l-2.296,2.295l-5.573-5.738
	c-0.163-0.164-0.409-0.164-0.573,0s-0.164,0.41,0,0.574l5.573,5.738l-2.868,2.868l-5.574-5.737c-0.164-0.164-0.41-0.164-0.574,0
	s-0.164,0.41,0,0.574l5.574,5.736l-2.869,2.869l-5.574-5.737c-0.163-0.164-0.409-0.164-0.573,0s-0.164,0.409,0,0.573L44.139,55
	l-2.622,2.705L24.549,40.738l12.705-12.705l2.869,2.868l-6.312,6.476l0,0l4.181,4.18l6.065-6.064L53.894,45.246z M52.418,42.623
	l-8.36-8.443l-6.065,6.066l-3.033-2.951l6.394-6.394l0,0l2.786-2.786l11.23,11.229L52.418,42.623z M43.238,25.983l4.508-3.771
	L61.353,35.82L57.172,40L43.238,25.983z"/>
</svg>
