<svg xmlns="http://www.w3.org/2000/svg" width="80" height="80" viewBox="0 0 80 80"><path d="M31.141 45.701l9.059 7.523-.021.016-9.038-7.539zm9.047 5.742l-8.181-6.793 8.164 6.809.017-.016zM62.5 33.689v27.465h-45V33.686l4.812-3.152v-7.529h11.484l6.346-4.158 6.264 4.158h11.279v7.488l4.815 3.196zm-4.814 2.971l3-2.539-3-1.99v4.529zM36.283 23.004h7.66l-3.805-2.525-3.855 2.525zM23.675 37.699l8.333 6.951 8.164 6.809.018-.016 16.135-13.74V24.368h-32.65v13.331zm-4.348-3.58l2.985 2.479v-4.434l-2.985 1.955zm41.81 1.406l-20.92 17.713-.018-.014-9.059-7.523-12.276-10.195v24.285h42.272V35.525h.001zm-21.239 8.69c-3.532 0-6.528-2.586-6.528-6.723 0-4.439 3.081-8.275 7.866-8.275 3.748 0 6.27 2.629 6.27 6.227 0 3.234-1.811 5.131-3.836 5.131-.863 0-1.66-.582-1.594-1.896h-.087c-.755 1.271-1.747 1.896-3.039 1.896-1.25 0-2.327-1.014-2.327-2.715 0-2.672 2.112-5.107 5.107-5.107.926 0 1.746.193 2.305.453l-.73 3.9c-.324 1.637-.066 2.391.646 2.412 1.098.023 2.326-1.443 2.326-3.941 0-3.125-1.875-5.367-5.215-5.367-3.512 0-6.464 2.781-6.464 7.154 0 3.598 2.348 5.816 5.538 5.816 1.229 0 2.37-.258 3.253-.752l.345.926c-1.185.625-2.39.861-3.836.861zm2.651-10.17c-.215-.064-.582-.15-1.077-.15-1.896 0-3.425 1.787-3.425 3.877 0 .949.473 1.639 1.422 1.639 1.25 0 2.391-1.594 2.629-2.932l.451-2.434z"/></svg>