<?xml version="1.0" encoding="utf-8"?>
<!-- Generator: Adobe Illustrator 16.0.0, SVG Export Plug-In . SVG Version: 6.00 Build 0)  -->
<!DOCTYPE svg PUBLIC "-//W3C//DTD SVG 1.1//EN" "http://www.w3.org/Graphics/SVG/1.1/DTD/svg11.dtd">
<svg version="1.1" id="Layer_1" xmlns="http://www.w3.org/2000/svg" xmlns:xlink="http://www.w3.org/1999/xlink" x="0px" y="0px"
	 width="80px" height="80px" viewBox="0 0 80 80" enable-background="new 0 0 80 80" xml:space="preserve">
<path d="M31.141,45.701l9.059,7.523l-0.021,0.016L31.141,45.701z M40.188,51.443l-8.181-6.793l8.164,6.809L40.188,51.443z
	 M62.5,33.689v27.465h-45V33.686l4.812-3.152v-7.529h11.484l6.346-4.158l6.264,4.158h11.279v7.488L62.5,33.689z M57.686,36.66
	l3-2.539l-3-1.99V36.66z M36.283,23.004h7.66l-3.805-2.525L36.283,23.004z M23.675,37.699l8.333,6.951l8.164,6.809l0.018-0.016
	l16.135-13.74v-6.479v-1.637v-5.219h-7.863h-2.465H34.204h-2.487h-8.042v5.27v1.631V37.699z M19.327,34.119l2.985,2.479v-4.434
	L19.327,34.119z M61.137,35.525L40.217,53.238l-0.018-0.014l-9.059-7.523L18.864,35.506v24.285h42.272V35.525L61.137,35.525z
	 M39.898,44.215c-3.532,0-6.528-2.586-6.528-6.723c0-4.439,3.081-8.275,7.866-8.275c3.748,0,6.27,2.629,6.27,6.227
	c0,3.234-1.811,5.131-3.836,5.131c-0.863,0-1.66-0.582-1.594-1.896h-0.087c-0.755,1.271-1.747,1.896-3.039,1.896
	c-1.25,0-2.327-1.014-2.327-2.715c0-2.672,2.112-5.107,5.107-5.107c0.926,0,1.746,0.193,2.305,0.453l-0.73,3.9
	c-0.324,1.637-0.066,2.391,0.646,2.412c1.098,0.023,2.326-1.443,2.326-3.941c0-3.125-1.875-5.367-5.215-5.367
	c-3.512,0-6.464,2.781-6.464,7.154c0,3.598,2.348,5.816,5.538,5.816c1.229,0,2.37-0.258,3.253-0.752l0.345,0.926
	C42.549,43.979,41.344,44.215,39.898,44.215z M42.549,34.045c-0.215-0.064-0.582-0.15-1.077-0.15c-1.896,0-3.425,1.787-3.425,3.877
	c0,0.949,0.473,1.639,1.422,1.639c1.25,0,2.391-1.594,2.629-2.932L42.549,34.045z"/>
</svg>
