<svg xmlns="http://www.w3.org/2000/svg" width="179.363" height="223.142" viewBox="0 0 179.363 223.142"><g fill="#010101"><path d="M69.369 136.789c-1.216-1.46-2.187-3.647-3.89-4.62-2.187-.971-4.617-.242-6.563-1.944-.486-.486-1.216-.241-1.702 0-.484 0-1.215.486-.972 1.217.242 3.159 3.161 6.32 5.104 8.507 1.701 1.945 5.348 5.592 8.265 4.862 4.135-1.216 1.217-5.834-.242-8.022zm-9.723-2.432c1.945 1.215 4.133 1.215 6.321 1.945l.242.243c-1.457 0-2.916-.487-4.375-.243-.243 0-.486.243-.243.486 1.458 1.7 3.889 1.7 5.835 2.674-.974.242-2.189.242-3.161.242-.729-.729-1.459-1.7-1.945-2.187-.972-.728-1.945-1.945-2.674-3.16zm-.729-.972c.243 0 .487.244.729.244h-.485l-.244-.244zm6.319 2.187c-1.701-.484-3.402-.728-4.861-1.457 1.459.242 2.918.485 4.377.729.242.244.484.485.484.728zm2.675 3.648c-1.702-.73-3.89-.973-5.349-2.188 1.459 0 2.674.243 4.133.243.243.487.731 1.214 1.216 1.945zm.73 3.403h-.243c-.729-.486-1.459-.729-2.188-.972-.486-.244-.973-.73-1.457-1.216 1.215 0 2.431 0 3.646-.487.727 1.215 1.457 2.675.242 2.675z"/><path d="M1.304 73.341c-5.591 31.117 7.051 65.879 33.061 84.598 10.939 8.021 23.58 13.369 36.708 16.043 5.591 1.216 11.182 1.701 16.772 2.188-1.945 5.591-3.89 11.668-2.916 17.502-14.829 2.431-31.846 5.349-44.243 14.586-2.432 1.943-5.591 5.591-2.188 8.265 2.916 2.431 7.536 3.159 11.183 3.89 14.342 2.431 29.171 2.917 43.756 2.674 14.1-.243 28.685-.972 42.783-2.917 3.404-.487 10.697-.729 12.884-4.133 2.432-3.646-5.104-8.509-7.534-9.967-6.32-4.375-13.857-6.806-21.393-8.752-5.104-1.215-10.453-1.943-15.558-3.401 1.943-5.835-2.188-11.912-3.404-17.746 8.752-.487 17.746-1.46 25.768-5.104 2.188 4.375 5.349 7.778 9.237 5.104 5.105-3.646-3.889-11.912-5.348-15.802 14.586-6.563 27.471-17.016 36.465-31.115 18.231-28.928 15.558-67.094-6.808-93.104C137.435 9.896 99.271-.071 66.452 11.111v-.243C64.265 6.735 63.535-2.989 56.243.9c-2.188 1.216-2.674 2.674-2.432 4.62h-.242c-13.37 6.563-25.282 14.585-34.032 26.738C10.541 44.172 3.978 58.757 1.304 73.341zm62.961-61.5c-1.216.485-2.187.971-3.402 1.458-1.702-2.431-8.023-9.725-2.674-10.696 4.13-.972 4.86 6.562 6.076 9.238zM42.386 66.778c-1.457-.729-2.916-.972-4.374-1.702-2.431-.972 3.646.243 4.861.243 0 .488-.244.973-.487 1.459zm-.973 12.156c-2.674-1.459-6.318-.73-9.236-1.946-3.402-1.215.73-.484 1.458-.243 1.216.243 2.188.486 3.403.73 1.459.243 2.917.243 4.375.243v1.216zm0-2.674v.728c-2.916-.728-5.832-1.458-8.265-2.917 1.216.73 3.89.73 5.349.974.973.243 2.188.485 3.161.729-.245-.002-.245.243-.245.486zm0-1.459c-2.187-1.215-4.617-2.431-7.049-3.161 2.188.487 4.862.73 7.294.73-.245.971-.245 1.7-.245 2.431zm-4.375-4.862c-1.457-.73 2.432 0 2.432 0h2.432c0 .485-.243.972-.243 1.457-1.46-.485-3.162-.729-4.621-1.457zm-1.7-1.215c.243-.486.243-.973.484-1.458 1.459.728 4.377 2.187 6.079 2.187-2.189-.001-4.377-.487-6.563-.729zm.484-4.132c1.216.728 2.189 1.215 3.404 1.457.973.243 5.349 2.188 1.459 1.217-1.702-.487-3.161-.73-4.62-.487v-.729c0-.731-.243-.974-.243-1.458zm6.322 3.401c0 .244-.242.487-.242.973-.488-.242-1.216-.485-1.946-.729 0 0-3.159-1.215-1.458-.972 1.214.244 2.431.728 3.646.728zm-1.458 15.316c-1.702-.486-3.404-.729-5.104-1.216-1.459-.485-2.917-.729-4.133-1.458-1.215-.486-3.404-1.458.485-.729 3.161.486 6.32 1.702 9.479 1.215 0 .73-.242 1.458-.727 2.188zm-8.022.244c.728 0 1.458.242 2.187.242 1.702.243 3.161.729 4.861.729-.729.484-1.7.973-3.403.729-.728 0-1.701-.245-2.674-.245-1.215-.242-2.43-.728-3.401-1.456-1.46-.973 2.43.001 2.43.001zm-4.377-3.648c0-.244.243-.486.243-.729 2.918 2.431 6.564 3.16 10.209 4.132 0 0 .973.244 1.703.244 0 0 0 .242-.243.242h-.244c-1.458 0-2.674-.242-4.133-.486-2.431-.486-4.861-.729-7.292-1.216h-.243c-.243-.241-.243-1.214 0-2.187zm.487-.971c.242-.73.729-1.459 1.216-2.189 2.674 1.946 6.075 1.459 9.236 2.189.485.243 1.702.485 2.187.972v.729h-1.458c-1.458 0-2.917-.243-4.374-.486-2.189-.73-4.376-1.215-6.807-1.215zm1.944-3.162c.243-.485.73-.972.973-1.215 0-.244.243-.244.243-.487 1.458.73 2.917 1.459 4.375 1.946 1.216.486 2.431.728 3.646.971 1.458.243 1.703.487.487.243-3.161 0-6.32-.97-9.724-1.458zm1.702-2.431c.244-.485.487-.728.972-1.214 1.946.486 3.646 1.214 5.348 1.943.73.243 4.134 1.702.973.73-2.432-.73-4.618-1.214-7.293-1.459zm1.459-1.945c.485-.729.729-1.214 1.216-1.944 1.458.973 3.159 1.215 4.86 1.944 2.674.974-.485.486-1.458.486-1.459-.242-3.159-.486-4.618-.486zm-1.945-8.994c-.485 0-.729.243-1.216.486-3.402-1.216-6.806-1.944-9.966-3.16-3.16-1.215.485.243 1.701.243.974.243 1.944.243 2.917.487 6.078.729 12.154 2.916 18.232 3.402-.243.243-.243.487-.486.73 0 0 0 .241-.243.241h-.244c-2.43-.241-4.617-.729-7.048-.729-.243 0-.243 0-.243.244-.243-1.457-1.459-2.428-3.404-1.944zm33.06 11.427c7.293 2.674 14.585 5.59 22.364 7.535 1.701.486 3.646.729 5.104 1.701v.243c-.486 0-2.674-.486-2.674-.486-2.188-.729-4.132-1.458-6.078-2.188-4.86-1.944-10.452-2.432-15.558-3.647-4.618-1.215-8.993-2.917-13.612-4.374-1.458-.73-3.16-1.217-4.861-1.459.243-.243.243-.729.486-.972 0-.243.241-.73.241-.974 4.621 1.703 9.483 3.162 14.588 4.621zm3.647.972c1.459.486 2.917.729 4.375 1.216 6.078 1.701 12.642 3.889 18.961 4.132v2.431c-2.188-.972-4.376-1.215-6.563-2.188-4.134-1.458-8.267-2.674-12.155-3.889-1.701-.731-3.159-1.216-4.618-1.702zm23.579 4.376c-1.945-.729-4.132-.974-6.32-1.459-3.889-.974-7.536-2.188-11.183-3.647-7.048-2.674-16.043-4.374-22.363-8.751 5.104 3.404 13.855 4.863 20.177 6.32 6.807 1.459 14.099 2.674 20.419 5.591-.243.487-.73 1.216-.73 1.946zm.487 6.077c-3.161-1.216-6.322-1.701-9.481-2.917-4.132-1.459-8.021-2.676-12.153-3.89-4.62-1.46-9.481-2.188-13.614-4.377 5.835 1.702 11.426 3.647 17.503 4.863 3.646.728 7.05 1.458 10.453 2.917 2.431.972 4.619 1.944 7.049 1.702-.001.729.243 1.215.243 1.702zm1.216 3.159c-3.161-1.215-6.564-1.701-9.725-2.916-3.16-1.216-6.077-2.432-8.994-3.646 3.159.729 6.32 1.702 9.48 2.916 2.916.973 5.59 1.945 8.751 1.945.001.486.244 1.216.488 1.701zm1.214 3.16c-7.049-3.402-14.828-5.104-22.363-7.049-8.509-2.188-17.259-4.376-25.768-7.05h-.243c0-.487.243-.73.243-1.215 8.751 2.917 17.503 5.591 26.253 8.265 3.889 1.215 8.021 1.944 12.155 3.16 2.917.973 5.834 1.701 8.752 2.188.485.486.728.973.971 1.701zm.729 3.16c-6.807-3.646-13.855-6.076-21.149-8.508-5.834-1.944-11.668-3.646-17.259-5.591.73.243 1.459.243 1.946.485 4.131.973 8.021 2.433 11.911 3.404 8.021 2.188 16.285 3.889 24.065 7.535.244.974.244 1.948.486 2.675zm-42.783-8.264c5.105 1.459 10.452 2.674 15.558 4.133 5.105 1.458 9.966 2.917 15.07 4.375 2.674.729 5.107 1.46 7.537 2.431 1.459.487 2.675 1.216 4.133 1.703-.244.971-.244 1.7-.244 2.674-7.778-3.404-15.558-6.078-23.579-8.509-4.619-1.459-9.238-2.917-14.1-4.377-3.889-1.214-7.778-1.943-11.425-3.645 0-.245.243-.487.243-.973 2.188 1.458 4.619 1.702 6.807 2.188zM95.624 98.38c-3.161-1.7-6.564-2.917-10.21-4.131-4.134-1.46-8.023-3.161-12.155-4.376-4.375-1.46-8.75-2.675-13.127-4.134-.728-.242-1.458-.485-1.943-.73.242 0 .242 0 .485.245 4.132 1.215 8.509 2.187 12.884 3.403 8.021 2.188 16.043 5.833 24.309 7.535-.001.488-.001 1.215-.243 2.188zm0 6.807c-2.188-1.459-4.376-2.674-6.806-3.646 2.187.729 4.131 1.214 6.563 1.459v.484c0 .487 0 .974.243 1.703zm1.701 3.888c-6.32-3.645-13.37-6.32-20.421-8.994 3.161.973 6.564 1.946 9.725 3.162 3.16 1.215 6.32 2.915 9.724 3.889.244.485.487 1.216.972 1.943-.243-.242 0 0 0 0zm.972 2.19c-3.16-1.459-6.805-1.945-10.209-3.404-4.619-2.187-9.237-3.89-13.856-5.591-2.432-.729-5.105-1.7-7.536-2.674 1.458.485 2.917.974 4.62 1.215 5.832 1.702 11.91 3.16 17.503 5.834 3.158 1.46 6.075 3.161 9.479 3.646-.243.487-.001.73-.001.974zm1.945 4.618c-3.402-1.702-7.05-2.918-10.696-4.376-5.348-2.188-10.695-4.375-16.044-6.32-.486-.242-.729-.242-1.215-.485 4.86 1.457 9.967 2.916 14.828 4.618 3.89 1.215 7.778 2.674 11.911 3.403.488 1.215.73 2.188 1.216 3.16zm-39.38-14.342c3.159 1.214 6.563 2.43 9.723 3.646 5.348 1.702 10.695 3.889 16.044 6.078 4.619 1.7 9.48 2.916 13.613 5.59-4.376-2.674-9.48-3.89-14.1-5.348-5.104-1.701-10.21-3.402-15.314-5.105-5.592-1.943-10.939-3.401-16.529-5.348-4.619-1.7-8.995-3.402-13.856-4.617 0-.487 0-.974.243-1.46 1.458.486 3.159.973 4.618 1.46.243 0 .729.243.973.243 2.673.972 5.347 1.943 7.778 2.916 2.675.485 4.619 1.215 6.807 1.945zm-5.105.243c.486.243.974.243 1.458.485-.242 0-.484-.242-.484-.242-2.676-.73-5.35-1.946-8.023-2.917 2.187.729 4.618 1.701 7.049 2.674zm45.7 18.718c-8.994-5.105-19.203-8.266-28.684-12.154-3.647-1.459-7.051-2.917-10.695-4.377 3.401 1.216 6.806 2.188 10.209 3.404 5.348 1.944 10.938 3.646 16.531 5.348 2.915.973 5.833 1.7 8.507 3.16 1.215.486 2.188.972 3.404 1.459.242.971.485 1.945.728 3.16zm-54.938-18.961c2.675.972 5.349 1.702 8.266 2.674 5.591 1.702 10.938 4.133 16.288 6.319 5.348 2.188 10.938 4.377 16.286 6.564 4.861 1.944 9.724 3.403 14.586 5.591.243.972.243 1.701.485 2.674-8.994-5.104-18.961-8.751-28.44-12.641-5.349-2.188-10.696-4.618-16.045-6.564-5.105-1.943-10.695-3.158-15.315-6.077-3.16-2.43 2.917.973 3.889 1.46zm56.154 27.954c-3.89-2.43-8.75-3.401-13.127-5.348-5.348-2.188-10.695-4.619-15.8-7.049-1.703-.973-3.646-1.702-5.349-2.676 1.459.488 2.918.974 4.376 1.46 5.59 1.944 11.425 3.646 17.016 5.834 4.134 1.703 8.266 3.646 12.398 4.619.486.73.486 1.945.486 3.16zm-2.674-.971h-.243.243zm1.458.729c-.243 0-.243-.243-.486-.243.243 0 .243.243.486.243zm1.216.972v2.189c-1.216-1.459-3.159-2.189-4.86-2.919-4.62-1.944-9.238-3.889-13.857-5.834-3.16-1.459-6.32-2.674-9.724-3.889 1.945.729 3.89 1.215 5.834 1.944 7.779 2.675 15.315 5.835 22.607 8.509zm-.243 3.647c-.242.729-.242 1.457-.729 2.187-1.702-1.458-3.889-1.943-5.835-2.917-3.89-1.7-7.778-3.646-11.668-5.348-3.646-1.458-7.535-2.917-11.183-4.374-.729-.243-1.458-.487-2.188-.73 3.403.972 6.807 2.188 10.452 3.404 4.134 1.215 8.509 2.187 12.398 3.89 2.92 1.214 5.837 2.673 8.753 3.888zm-33.789-8.022c2.188.729 4.618.972 6.563 1.701 3.402 1.217 6.807 2.188 9.966 3.647 5.349 2.431 10.454 4.86 16.287 5.591-.728 1.458-2.187 2.431-4.132 2.674-4.618.729-9.237-1.701-12.884-4.618.487.243 1.216.484 1.701.728.973.243 1.945.73 2.917.974l3.16 1.701c-.486 0-.486.486 0 .486h.487c.242 0 .485-.244.242-.486-1.216-1.458-2.916-1.944-4.618-2.675-1.459-.484-3.161-.972-4.62-1.7-1.457-.974 2.432.729 2.188.485 2.919 1.215 5.593 2.188 8.51 3.404 1.457.485 2.916 1.215 4.374.728.243 0 .243-.242.243-.484-1.701-1.459-3.89-1.946-6.077-2.917-2.431-1.216-4.861-2.431-7.535-3.404-3.403-1.459-6.808-2.674-10.453-3.89-1.459-.485-3.403-.973-5.104-1.458-.487-.001-.972-.243-1.215-.487zm4.618 2.43c.973.244 1.945.487 2.918.973 4.861 1.702 9.48 3.646 13.856 5.592 1.7.728 3.646 1.701 5.348 2.43 3.402 1.215.972 1.215 0 .73-.972-.243-1.702-.73-2.674-1.216-3.404-1.46-6.808-2.917-10.453-3.647-.243 0-.243 0-.486.243-2.674-1.944-5.591-3.647-8.509-5.105zm-13.37-9.237c6.078 3.403 13.37 5.104 19.69 7.778 6.32 2.432 12.397 5.836 18.718 8.267.729.241 1.702.728 2.433.971-.974.244-1.703.244-2.675 0-1.702-.486-3.646-.971-5.348-1.701-2.918-1.216-5.835-2.674-8.752-3.89-6.077-2.674-12.397-4.374-18.961-6.077-2.188-1.458-4.132-2.917-5.105-5.348zm-.729-3.89v-.973c1.215.73 2.674 1.216 3.889 1.945.486.243 1.216.486 1.945.729 3.646 1.458 7.049 2.918 10.695 4.376 8.021 3.16 16.287 6.32 24.066 10.211.73.242 1.701 1.7 2.188 1.7-1.215-.484-2.431-.973-3.404-1.458-1.215-.485-2.431-1.216-3.646-1.7-3.889-1.703-8.265-2.675-12.398-4.134-7.534-2.188-15.557-4.133-22.606-7.537-.243 0-.243 0-.484.244-.001-.971-.245-2.187-.245-3.403zm-.729-4.132h.243c2.188.728 4.132 1.215 6.32 1.943 1.215.487 2.188 1.216 3.403 1.703 7.05 3.645 14.586 7.049 21.877 10.209-7.779-2.917-15.801-5.104-23.579-8.022-1.943-.729-3.646-1.701-5.591-2.432-.485-.484-.729-.728-.973-.484-.243-.243-.728-.243-.972-.486-.242-.973-.242-1.703-.728-2.431zm-.973-1.702c1.702.972 3.646 1.702 5.348 2.674-1.701-.486-3.16-.972-4.617-1.702-.245-.242-.488-.485-.731-.972zm-15.314-9.238c3.16 1.946 6.806 3.162 10.21 4.377 5.348 1.943 10.695 4.133 15.8 6.32 10.94 4.618 22.121 8.265 32.576 14.099.484.243 1.215.486 1.458.486-.243 0-.486-.243-1.217-.243-1.215-.485-2.431-.729-3.646-1.216-2.432-.972-4.862-2.188-7.292-2.917-5.592-1.944-11.183-3.889-17.018-5.834-2.188-.73-4.375-1.458-6.807-1.944-2.674-1.46-5.347-2.918-8.021-4.134-.73-.242-1.458-.728-1.945-.971-.243 0-.243-.244-.486-.244-3.159-2.917-10.452-4.132-13.612-7.779zm-1.458-3.16c.243 0 .243 0 .485.244 0 .242.242.242.73.242 4.375 1.703 8.506 3.646 13.126 5.105 5.592 1.702 10.939 3.646 16.288 5.835 10.209 4.132 20.904 7.535 30.386 12.883v.486c-4.134-1.944-8.509-3.404-12.883-4.862-5.35-1.943-10.94-4.132-16.288-6.32-5.348-2.187-10.696-4.617-16.287-6.319-5.105-1.46-9.967-3.646-15.072-5.349-.242-.971-.242-1.459-.485-1.945zm.485-2.915c.242-.487.487-.974.73-1.459 4.375 1.943 8.75 2.916 13.369 3.89.486 0 .729.243 1.215.243.487.241.729.241 1.216.485 5.834 2.188 11.911 4.132 17.746 6.078 5.104 1.7 9.723 4.374 14.827 6.076 2.675.729 5.835.972 8.266 2.43-.728.487-1.215.487-1.943 0-.487 0-.73-.242-1.216-.242-1.215-.485-2.432-.729-3.647-1.216-5.591-1.943-11.425-3.89-17.26-5.59-3.158-.974-6.563-1.946-9.722-2.917-7.051-2.674-14.101-5.592-21.393-7.535h-.486c-.729 0-1.215 0-1.702-.243zm3.161-.974c-2.919-1.216.972.243 1.458.243 1.216.243 2.674.73 3.89 1.215.728.243 1.458.486 2.188.73-2.675-.487-5.105-1.214-7.536-2.188zm-2.188-.972c.242-.486.729-.972.973-1.458 6.32 2.917 13.127 4.132 19.933 5.835 2.188.484 4.134 1.215 6.077 1.943 5.835 1.945 11.669 4.375 17.259 6.564 2.918 1.214 5.835 2.431 8.752 3.889 0 0 1.46.729 2.188 1.216 0 0 0 .242.242.242-.242 0-.485 0-.728-.242-1.703-.486-3.161-.974-4.62-1.701-10.209-5.104-21.147-8.022-32.088-10.94-.243 0-.486-.242-.728-.242-5.592-2.189-11.426-4.134-17.26-5.106zm2.431-1.215c1.458.243 2.917.729 4.374 1.215-1.457-.487-2.916-.972-4.374-1.215zm-.972-.972c.486-.73.973-1.216 1.457-1.945 9.968 4.619 21.149 6.563 31.604 9.967 5.591 1.701 11.182 3.646 16.286 6.32.974.486 1.944 1.216 2.917 1.702 0 .241.243.484.243.728-.485-.243-.973-.486-1.216-.486-2.431-.972-4.619-1.943-7.049-2.915-9.724-3.647-19.934-6.563-30.144-8.994-.243 0-.729-.243-.971-.243-4.376-1.46-8.509-3.162-13.127-4.134zm11.181 1.215c.73.244 1.459.485 2.188.729 2.916.73 5.833 1.702 8.75 2.433-3.644-.975-7.291-1.947-10.938-3.162zm-9.48-3.648c.243-.485.486-.972.729-1.215 3.403 1.702 6.806 2.432 10.452 3.403 4.134 1.216 8.267 2.674 12.397 3.89 8.752 2.674 17.502 5.348 26.011 8.994-1.701-.729-3.889-.972-5.834-1.702-1.944-.729-4.131-1.457-6.076-2.188-4.133-1.458-8.51-2.674-12.641-3.89-8.508-2.185-17.016-4.374-25.038-7.292zm1.215-3.887v-3.161c4.133 1.459 8.022 3.646 12.155 5.105 4.375 1.458 8.752 2.674 13.126 4.132 4.62 1.459 8.995 3.16 13.614 4.861 2.431.973 5.104 1.702 7.778 2.917.486.244 1.944.973 2.674 1.216-.242-.243-.729-.486-1.943-.972-7.78-3.646-16.775-5.592-25.039-7.778-4.619-1.216-9.479-2.675-14.1-3.89-1.701-.486-3.403-.729-5.104-1.217-.243 0-1.459-.485-2.431-.729.243 0 .243-.485 0-.485-.243.243-.486.243-.73.001zm0-3.405c0-.729 0-1.458.244-2.188.486.242.971.242 1.458.486 0 .243.486.486 1.216.486 7.778 2.674 15.8 5.104 23.579 7.535 4.132 1.459 8.265 2.674 12.398 4.133 2.674.972 5.104 2.188 7.778 3.404.73.243 4.375 1.7 1.217.971-8.267-1.944-16.046-5.348-24.066-7.536-4.134-1.215-8.752-1.943-12.885-3.402-3.646-1.216-7.051-2.674-10.695-3.89 0-.242-.244-.242-.244.001zm.973-4.376c.241-.485.485-1.215.729-1.702 6.32 2.189 12.884 4.133 19.205 5.835 2.917.973 5.833 1.945 8.507 3.16 5.105 2.188 10.21 3.646 15.315 5.105 1.701.486 2.431.728 2.918.972v.243c-.487 0-2.918-.487-4.62-.973-2.431-.729-4.861-1.458-7.292-1.944-11.669-3.159-23.58-6.807-34.762-10.696zm2.188-1.943c.728.241 1.701.484 2.674.729.485.243.973.486 1.458.486-1.458-.243-2.917-.731-4.132-1.215zm-1.216-.243c.243-.487.485-1.216.729-1.703 1.701.487 3.646.973 5.348 1.458.974.488 1.944 1.217 2.917 1.46 1.946.972 4.376 1.702 6.563 2.187 6.078 1.703 11.911 3.404 17.746 5.35 2.674.972 5.104 1.701 7.778 2.43.973.242 2.431.973 3.403 1.217-1.457 0-3.16-.244-4.618-.729-5.836-1.701-11.427-3.646-17.259-5.105-.487 0-.729-.243-1.216-.243-4.134-1.215-8.266-1.944-12.398-3.646-2.916-1.218-5.834-2.676-8.993-2.676zm.729-11.668c2.188.484 4.376 1.215 6.563 1.7 12.884 3.647 25.768 8.265 38.652 11.669-.486.485-.974.973-1.217 1.457-5.834-2.674-12.884-3.889-19.203-5.348-7.78-1.7-15.315-3.888-22.852-6.805-.243-.243-.486.241-.243.484 6.078 4.133 13.857 5.835 20.663 8.265 6.32 2.432 13.371 5.593 20.176 6.078-7.535-.485-15.557-3.159-22.607-5.349-2.674-.729-5.104-1.457-7.778-2.188-3.646-1.458-7.293-2.674-10.94-3.402.488-2.187.731-5.346-1.214-6.561zm-12.884-4.134c-2.917-.729-5.834-1.701-8.75-2.43-.729-.244-8.266-1.946-4.132-1.703 13.369.973 26.98 6.563 39.622 10.94 6.32 2.187 12.884 4.374 19.446 6.075 3.89.973 8.51 1.46 11.671 3.891C81.28 71.154 68.641 66.535 56 63.133c-6.563-1.945-13.127-3.404-19.691-5.349zm-4.132 2.431c-2.187-.728-4.376-1.216-6.32-2.187-1.216-.487-2.43-.974-3.646-1.459-1.459-.729-1.459-.729 0-.244 3.89.973 7.779 2.432 11.911 3.162 3.646.728 7.536 1.457 11.182 2.431-.486.241-.729.728-.972 1.215-4.133-.974-8.267-1.945-12.155-2.918zm-3.647 4.618c-1.459-.729-2.917-1.215-4.618-1.944-.729-.243-7.293-2.43-3.403-1.458 3.16.729 6.077 1.702 9.237 1.944-.243.486-.729.974-1.216 1.458zm-1.701 2.676c-1.702-.73-3.16-1.702-4.862-2.433-.486-.243-5.104-2.674-2.43-1.943 2.916.729 5.833 1.943 8.75 2.187-.728.729-1.216 1.458-1.458 2.189zm-1.702 2.674c-1.944-.974-3.646-1.945-5.59-2.917-.73-.487-4.862-1.703-1.459-.73 2.674.73 5.349 1.458 8.022 1.945-.244.243-.244.485-.487.729 0 .242-.243.729-.486.973zm-1.7 3.403c-2.434-1.703-5.107-2.675-7.537-4.134.973.487 4.862.973 6.077 1.459.973.243 1.702.243 2.674.485-.486.487-.972 1.459-1.214 2.19zm-1.703 2.674c-1.215-.73-2.674-1.459-3.646-2.189-.729-.484-4.619-2.674-1.702-1.457 2.188.728 4.376 1.944 6.807 1.7-.73.73-.972 1.215-1.459 1.946zm-1.458 1.701c-.973-.486-1.702-.974-2.674-1.458-.243-.243-3.403-1.216-.729-.486 1.457.486 2.917.728 4.618.971-.488.242-.972.73-1.215.973zm-3.89.729c-.973-.243-.973-.487 0-.973 1.216.243 2.188.485 3.403.729-.486.486-.973.972-1.46 1.214-.484-.241-1.215-.483-1.943-.97zm1.459 1.702c-.486.486-.973.973-1.459 1.216-.486-.487-1.215-1.216-1.701-1.459.243-.001 1.944.243 3.16.243zm-3.16 3.646c-.973-1.701-.244-1.701 1.215-1.459l-.244.243c-.485.243-.728.731-.971 1.216zm-.487.729c-.243.487-.729.973-.974 1.459-.243-.729-.485-1.944-.485-1.701.73-.001.973.242 1.459.242zm-1.459 2.188c-.242.485-.242.729-.485 1.216v-.973-1.459c.243.487.485.973.485 1.216zm-.242-3.16c.242-4.134.728-8.022 1.701-11.912 1.701 1.703 3.646 2.918 5.591 3.89 2.674 1.458-.973.244-1.944 0-.973-.243-1.945-.485-2.917-.729-.243 0-.487.243-.243.485 1.458.974 3.16 1.458 4.375 2.432-1.215-.73-3.404-.73-4.861-.73-.243 0-.486.244-.243.487.729.973 1.458 1.459 2.431 1.943h-.243c-1.458-.242-.972-.242-2.674-.484-.244 0-.244.242-.244.484.244.974.73 1.459 1.703 2.189 1.458 1.215-1.459 0-1.703 0-.243 0-.485.242-.243.242.242.973 1.215 1.946-.486 1.703zm1.701-12.399c.242-.729.242-1.457.486-2.188 1.215.73 2.674 1.458 3.889 2.188.974.486 3.16 2.189 3.89 2.433-2.916-.243-5.349-1.702-8.265-2.433zm.487-2.672c.243-.973.486-1.945.729-2.917 1.701.972 3.403 1.702 5.105 2.674.972.485 2.918 1.944 3.889 1.944-3.161-.242-6.32-1.701-9.723-1.701zm.971-3.405c.73-2.187 1.459-4.375 2.189-6.32l.243.244c3.889 1.701 7.778 2.675 11.668 3.89-3.646-1.215-7.779-2.188-11.668-2.674-.243 0-.486.242-.243.485 1.458.974 2.917 1.458 4.618 2.188.486.242 6.807 2.187 3.647 1.459-3.161-.73-6.078-2.189-9.238-2.433-.243 0-.486.486-.243.486 2.918 1.946 6.077 3.403 9.237 5.105-1.216-.485-3.89-.729-5.348-1.216-1.215-.241-2.916-.726-4.862-1.214zm2.432-6.805c1.215-2.917 2.674-5.835 4.133-8.51 5.833 2.675 12.153 4.135 18.475 5.836 6.807 1.944 13.369 4.375 19.934 6.563 6.807 2.189 13.854 4.62 20.905 6.563 3.646.974 7.294 1.701 10.938 2.917 1.703.487 3.403.973 5.104 1.216-.971.487-1.701.972-2.431 1.459-3.16-2.918-7.778-3.403-11.911-4.375-7.293-1.702-14.585-4.376-21.635-6.808-7.536-2.674-15.072-5.104-22.607-7.05-5.835-1.701-11.912-3.402-18.231-3.16-.243 0-.486.486-.243.486 4.618 2.432 10.452 3.403 15.557 4.862 3.646.974 7.051 1.945 10.697 2.674-.244 0-.729.243-.973.243-4.861-1.216-9.725-1.702-14.342-3.16-3.89-1.216-7.779-2.431-11.911-2.916-.244 0-.487.485-.244.485 6.563 3.403 13.855 5.348 20.906 6.806-.729-.243-1.46-.243-2.431-.486-2.431-.486-4.62-1.215-7.051-1.7-3.888-.73-8.264-.972-12.639-1.945.241 0 0 0 0 0zm97.479-8.267c-.243 0-.485 0-.729-.243-3.161-.728-6.077-2.187-8.994-2.674-3.89-.728-7.779-1.457-11.425-2.431-6.809-1.457-13.614-3.645-20.42-4.617 1.458-1.459 2.915-2.917 4.374-4.134 5.592 2.431 11.911 3.16 17.989 4.862 3.161.973 6.32 1.702 9.481 2.918 1.701.729 3.646 1.215 5.348 1.944 0 0 .485 0 .973.243.243.242.243.242.485.486-2.674-.486-5.104-1.703-7.778-2.188-3.404-.73-6.807-1.702-9.968-2.432-6.075-1.458-12.153-3.16-18.23-4.132-.243 0-.486.485-.243.485 6.32 3.16 13.126 4.619 19.933 5.835 3.89.728 7.778 1.458 11.425 2.674 1.702.484 3.404.972 4.862 1.701.243 0 1.216.486 2.188.973.243.246.485.487.729.73zM78.851 35.905c.971-.728 1.944-1.215 3.16-1.701 0 .243 0 .486.242.486 4.862 1.944 9.967 2.431 14.829 3.889 2.188.729 4.375 1.46 6.563 2.432 0 0 8.022 2.674 3.891 1.945-5.105-.973-9.968-2.917-14.828-4.133-4.62-1.458-9.239-1.945-13.857-2.918zm3.403-1.943c1.701-.73 3.646-.974 5.834-.73 4.132.487 8.265 1.703 12.154 3.646-6.076-.973-12.154-2.431-17.988-2.916zm25.281 8.021c-2.432-1.215-5.105-2.188-7.779-3.16-4.132-1.215-8.264-1.945-12.155-2.918-1.458-.243-2.672-.728-3.89-1.215.73.244 1.703.487 2.432.487 1.702.484 3.646.728 5.35.971 3.645.729 7.048 1.217 10.695 1.944 1.7 1.217 3.646 2.433 5.347 3.891zm3.647 3.161c-4.377-1.459-8.994-3.16-13.614-4.375-4.86-1.217-9.723-2.189-14.342-3.403.729.243 1.459.243 1.944.486 2.918.485 5.592.972 8.509 1.7 5.348 1.459 10.452 3.404 15.801 4.133.729.487 1.214.972 1.702 1.459zm3.159 3.645c-11.668-5.104-25.038-4.617-36.706-10.21 2.674 1.216 6.807 1.46 9.724 2.189 3.646.972 7.535 1.944 11.425 2.674 3.404.729 6.808 1.701 10.211 2.674 1.457.486 2.673.973 4.131.973.244.241.487.484.73.729.243.486.243.729.485.971zm2.674 4.134c-7.535-1.216-14.827-3.403-22.121-5.35-7.535-1.943-15.314-3.645-22.851-5.104.487-.485.973-.972 1.459-1.458 8.993 1.215 17.746 4.133 26.497 5.835 3.646.728 7.05 1.458 10.452 2.674 1.703.484 3.647 1.215 5.348 1.215.487.728.973 1.458 1.216 2.188zM61.348 30.314c-1.943-1.458-3.89-2.916-5.833-4.376-.244-.241-.73-.485-.974-.729 2.432 1.459 4.863 2.917 7.293 4.377 0 .243-.243.487-.486.728zm-.244.731c-.242.485-.485.729-.485 1.214-1.702-1.701-4.134-3.159-6.32-4.618 2.186.973 4.375 2.188 6.805 3.404zm-.729 1.702c-.243.729-.729 1.457-.971 2.188-1.946-1.946-4.134-3.404-6.321-4.861-1.945-1.461-4.376-2.433-6.077-3.891-1.459-1.702 2.674.729 3.16.973 1.215.485 2.431 1.215 3.646 1.944 2.188.973 4.376 2.188 6.563 3.647zm-1.215 2.674c-.243.484-.486.728-.729 1.214 0 .243-.242.486-.242.486-1.216-.729-2.432-1.459-3.89-2.187-2.188-1.216-4.133-2.676-6.078-4.134-1.458-.972-3.161-2.674-4.376-3.16 1.702.729 3.404 1.459 5.104 2.433 3.405 1.7 6.808 3.403 10.211 5.348zm-1.459 2.187c-1.701 1.943-2.917 0-4.862-.974-.485-.242-.972-.242-1.458-.242-.486-.487-1.215-.73-1.944-1.215-.973-.73-1.944-1.459-2.918-2.189-.972-.729-2.187-1.7-3.159-2.431-1.458-.971-1.458-1.215 0-.484 1.7.728 3.159 1.457 4.861 2.186 1.945.973 3.89 1.945 5.834 2.919.729.484 1.702.971 2.431 1.457.487.486.729.73.973.486-.001.244.242.244.242.487zm-7.294-1.46c-.971.244-2.187.486-3.645 1.217-2.431-1.703-4.861-3.161-6.808-5.106-2.917-3.159 2.918.245 3.647.488 1.457.729 2.916 1.215 4.375 1.943.729.244 1.459.73 2.188.972 0 0 .241 0 .241.243-.239.243-.239.243.002.243zm-4.86 1.704c-.729.241-1.215.728-1.702.972-1.459-.972-2.916-1.702-4.133-2.675-1.458-.971-3.89-3.16-.729-1.458 2.188.971 4.376 2.187 6.564 3.161zm-4.376 2.917c-2.188-1.702-4.618-2.917-6.32-4.62 1.458 1.703 5.592 2.675 8.022 3.403-.487.243-.972.73-1.702 1.217zm-6.32.971c1.702.485 3.161.973 4.861 1.459 0 .243 0 .485-.242.729-1.458-.729-3.161-1.459-4.619-2.188zm10.696 6.321h-1.458c.243 0 .729-.243.971-.487 0 .243.244.243.487.487zm.729-1.215c.242-.243.242-.243.486-.487.244.73.001.73-.486.487zm2.188-1.702c1.459 1.459 0 .729-.972.486.241-.243.729-.73.972-.973v.487zm.243-.487c.729-.485 1.216-.729 1.7-.973 0 .487.244.973.244 1.459-.485.001-1.214-.244-1.944-.486zm2.188 1.216s-.243.243-.487.243c-1.215-.972-.485-.729.487-.243zm-1.215.73c-.486.243-.973.486-1.216.728h-.243c-.729-.973.728-.973 1.459-.728zm-2.188.97c-.486.244-.729.487-1.216.487-.972-1.214 0-.73 1.216-.487zm-2.188 1.216c-.729.487-1.215 1.215-1.701 2.188-2.432-1.458-5.105-2.674-7.78-3.889-2.431-.973-5.348-3.16-7.778-3.89 5.834 1.459 11.425 4.863 17.259 5.591zm-2.188 4.134c-.487 0-.73 0-1.215-.244-3.404-1.216-6.807-2.916-9.968-4.375-1.459-.73-2.917-2.188-4.375-2.431 1.701.485 3.402 1.216 5.105 1.7 3.401 1.46 6.806 2.918 10.452 4.134.244.243.244.73.001 1.216zm7.535 2.917c1.216.243 2.432.729 3.647 1.215 1.944.729 3.89 1.702 5.833 2.188 2.917.972 5.835 1.944 8.994 2.916-6.563-1.944-12.883-3.646-19.203-6.319.243 0 .243-.243.484-.243.001.243.245.243.245.243zm.244-.486c.729-.244 1.216-.73 1.944-.974 9.239 3.647 18.477 6.563 27.956 8.994 4.134 1.458 8.265 3.16 12.397 4.618 2.674.973 5.834 1.703 8.265 2.918-1.458-.972-5.104-1.459-7.048-1.945-5.835-1.7-11.426-3.403-17.262-5.104-5.59-1.702-11.425-3.402-16.772-5.591-3.402-.729-6.32-2.187-9.48-2.916zm11.424 2.187c-2.674-.972-5.347-1.944-8.021-2.917 2.432.973 5.105 1.459 7.535 2.431 3.16 1.216 6.563 2.433 9.724 3.404-2.916-.972-6.078-1.945-9.238-2.918zm-8.507-3.646c.729-.243 1.703-.729 2.432-.972.729 0 1.458.242 2.431.242H59.89s.486.243.73.243c2.187.73 4.617 1.702 6.807 2.432 10.938 4.132 22.12 8.509 33.061 12.397 1.215.486 2.187.729 3.401.972 0 0 3.404 1.216 1.946.73-2.674-.73-5.592-1.702-8.267-2.431-5.104-1.702-10.452-3.16-15.8-4.62-.487-.243-.973-.243-1.459-.486-4.861-1.701-9.724-2.915-14.586-4.861-3.889-1.216-7.779-2.917-11.911-3.646zm3.646-1.458c1.216-.486 2.188-.974 3.404-1.459 7.535 3.89 15.801 6.807 23.822 9.481 2.188.729 4.375 1.459 6.32 2.187-4.62-1.458-9.237-2.917-13.857-4.375-5.348-1.945-10.938-4.132-16.528-5.105-.73-.242-1.459-.242-2.188-.486-.487-.243-.73-.243-.973-.243zm4.133-1.946c1.215-.729 2.431-1.215 3.646-1.944 9.237 3.403 18.232 7.293 27.471 10.696 4.375 1.701 8.994 3.159 13.611 4.618 2.189.73 4.376 1.458 6.564 2.431 4.619 1.945 1.945.73.242.243-4.131-1.459-8.264-3.16-12.396-4.376-4.62-1.215-9.481-2.672-14.101-4.131-8.507-2.674-17.259-4.377-25.037-7.537zm4.132-2.43c.244 0 .486-.243.486-.243.486-.244.974-.729 1.46-.972 0 0 0 .243.242.243 8.021 3.889 16.53 6.319 25.038 8.994 4.376 1.458 8.508 3.16 12.885 4.618 2.187.729 4.375 1.217 6.32 1.701.971.243 8.021 2.431 3.159 1.459-8.265-1.943-16.53-5.591-24.795-8.021-8.023-2.675-16.287-5.106-24.795-7.779zm2.43-1.703c1.216-.972 2.432-2.43 3.646-3.646 0 0 0 .243.243.243 3.646 1.459 7.294 2.188 11.183 3.16 4.375 1.214 8.508 2.673 12.641 4.131 7.294 2.676 16.288 3.647 23.094 7.537-3.403-1.701-8.266-2.43-11.911-3.403-4.376-1.216-8.994-2.431-13.37-3.89-7.779-2.431-15.315-5.104-23.336-6.319-.243 0-.486.485-.243.485 7.778 3.403 16.043 5.834 24.066 8.508.971.243 1.943.729 2.916.974-1.216-.487-2.673-.73-3.89-1.216-8.263-1.944-16.529-5.105-25.039-6.564zm50.807 14.343c-.243-.242-.487-.486-1.215-.242-7.536-2.188-14.585-4.862-22.121-7.051-8.023-2.431-16.287-4.861-24.066-8.265 2.674 1.215 7.293 1.702 10.696 2.674 4.131 1.216 8.508 2.674 12.64 3.89 8.022 2.432 16.045 4.376 23.823 6.563.243.729.243 1.702.243 2.431zm-.243-3.646c-5.834-2.916-12.155-3.89-18.475-5.834-4.376-1.458-8.75-3.16-13.127-4.375-3.16-.973-6.32-1.702-9.48-2.431 1.459.242 2.917.729 4.376.972 4.374.972 8.508 1.943 12.641 2.917 7.536 1.943 14.828 4.133 22.607 5.348.729.972 1.214 2.188 1.458 3.403zm.243 4.376c0 .487-.243 1.215-.487 1.702 0 .242-.241.485-.241.485-3.403-1.459-7.293-2.431-10.939-3.403-3.889-1.216-7.778-2.674-11.668-4.132-8.752-2.918-17.989-5.349-26.255-9.237 3.404 1.701 8.509 2.431 12.398 3.646 4.132 1.216 8.266 2.432 12.642 3.647 8.263 2.43 16.284 5.348 24.55 7.292zm-.972 2.918c-.486.971-1.216 1.943-1.945 2.674-8.508-3.647-17.503-6.078-26.01-9.481-4.619-1.944-9.238-3.646-14.101-5.591-.485-.243-.972-.487-1.459-.487 7.294 2.188 14.586 4.134 21.879 6.565 4.134 1.459 8.509 2.673 12.642 4.131 2.915.973 5.834 2.189 8.994 2.189zm-2.917 3.16c-.973.729-2.188 1.215-3.404 1.7-.485-.243-.729-.243-1.216-.485 0-.243-.485-.486-1.216-.486-.241 0-.484-.244-.728-.244-.73-.242-1.216-.484-1.946-.728-1.458-.487-2.674-.974-4.132-1.459-6.32-2.432-12.641-4.376-18.961-6.563-5.834-1.945-11.911-4.133-17.502-6.564.972.244 1.702.486 2.674.729 3.159.73 6.32 1.459 9.48 2.675 6.808 2.188 13.855 4.376 20.905 6.319 5.106 1.215 10.454 3.889 16.046 5.106zm-4.133 1.943c-.973.244-2.188.487-3.161.73-3.646-1.702-7.535-2.432-10.938-3.891-4.863-1.943-9.725-3.403-14.829-5.104-4.863-1.7-9.724-3.646-14.585-5.591-.73-.242-1.459-.486-2.189-.729 4.376 1.216 8.753 2.917 13.127 4.376 7.051 2.43 14.1 4.375 21.15 6.563 1.943.729 3.89 1.216 5.833 1.944 1.703.487 3.648 1.216 5.592 1.702zm-5.834 1.459c-.729.243-1.7.243-2.431.485-2.187-1.7-5.591-2.431-8.021-3.159-2.188-.729-4.618-1.702-6.807-2.675 2.674.729 5.348 1.703 8.021 2.431 2.917.973 6.078 2.19 9.238 2.918zm-3.89.972c-.484.244-.972.244-1.7.487-1.946-1.459-4.377-1.703-6.564-2.431-3.646-1.216-7.292-2.188-10.938-3.404 6.319 1.702 12.882 3.648 19.202 5.348zM22.453 49.52c.486-.73.729-1.216 1.216-1.946 6.806 2.431 13.855 6.565 21.148 8.023.729.486 1.459.486 2.188.729.243.244.728.487 1.458.244.243 0 .243-.244.485-.244 4.377 1.945 8.995 3.89 13.613 5.105 5.349 1.458 10.696 2.918 16.044 4.618 5.104 1.702 10.212 3.403 15.56 4.862.971.243 4.131 1.459 4.374 1.944h-.243c-.242 0-.972-.242-1.944-.485-2.43-.73-4.86-1.703-7.293-2.188-11.425-2.432-22.607-6.321-33.545-9.968-10.939-3.889-22.366-6.075-33.061-10.694zm1.702-2.431c.972-1.459 1.945-2.917 2.916-4.133 4.862 3.402 10.453 4.861 15.558 8.021-4.617-2.674-10.695-4.619-15.8-6.078-.243 0-.486.244-.243.487 4.862 4.376 11.183 5.834 17.017 8.265 0 .487.242.729.486 1.216-.729-.243-1.216-.243-1.46-.486-2.187-.729-4.132-1.702-6.076-2.431-4.376-1.703-8.509-3.403-12.398-4.861zm2.916-4.62c.487-.485.729-.972 1.216-1.7 0 .242 0 .242.243.242 3.646 1.215 7.292 3.404 11.182 4.133 0 .243 0 .243.243.486.244.486.487.729.73 1.216-.73-.243-1.702-.729-2.432-.973-3.646-1.216-7.292-2.431-11.182-3.404zm1.459-1.944c.244-.243.486-.73.729-.974 3.404 1.703 6.806 3.404 10.21 5.105-3.647-.727-7.049-2.916-10.939-4.131zm1.216-1.459c.487-.487.972-1.215 1.459-1.701 3.159 1.214 6.076 2.917 9.48 4.132-.243.486-.486.729-.73 1.216-3.402-.973-6.807-2.188-10.209-3.647zm1.702-2.188c1.216-1.457 2.431-2.674 3.646-3.89 1.943 2.433 4.375 3.646 7.049 5.349 1.701 1.215.242.242-.485 0-1.216-.485-2.432-.972-3.646-1.459-1.216-.485-2.674-1.216-3.89-1.7-.243 0-.487.243-.243.484 1.702 1.946 5.104 4.62 7.292 5.349-3.402-1.216-6.564-2.674-9.723-4.133zm4.133-4.374c.728-.73 1.457-1.459 2.188-1.946 1.701 2.918 4.617 4.62 7.291 6.32-1.215-.485-2.187-1.216-3.401-1.7-1.947-.974-3.89-1.947-6.078-2.674zm2.673-2.431c.973-.73 1.945-1.703 2.675-2.433.484-.485.973-.729 1.457-1.216v.244c2.189 1.945 4.377 3.646 6.808 5.104-2.675-1.216-5.349-2.431-8.022-3.646-.242 0-.485.243-.242.487 1.7 1.459 3.16 2.916 5.104 4.133-2.675-.729-5.348-1.701-7.78-2.673zm4.375-3.648c.974-.728 1.703-1.215 2.675-1.944v.244c2.674 3.89 8.022 5.833 11.669 8.751 2.432 2.187-.729-.244-1.458-.729-1.216-.73-2.432-1.459-3.647-1.946-2.919-1.458-5.835-2.917-9.239-4.376.244 0 .244 0 0 0zm2.918-1.945c.486-.486.972-.729 1.702-1.216 0 0 0 .244.243.244 1.944 1.216 3.646 2.674 5.347 3.89-2.432-.973-4.618-2.188-7.292-2.918zm1.945-1.458c3.402-2.189 7.049-4.376 10.696-6.078-.244 0-.244.487 0 .487.729.243 1.457.485 2.187.972-.971-.244-1.701-.729-2.674-.729-.243 0-.486.242-.243.484.243.244.486.487.73.73 0 0-.244 0-.244.243-1.214-.243-2.188-.486-3.403-.486-.242 0-.486.243-.242.486.485.486 1.216.973 1.944 1.216-.973-.243-1.944-.486-2.917-.729-.487 0-.487.486-.243.486.972.486 2.188.728 3.16 1.215-.243 1.702.729 2.917 2.674 2.917h.972c.974.973 1.945 1.945 2.917 2.674.243.244.487.244.729.487-.242 0-.242-.243-.729-.243-.972-.244-1.943-.73-2.674-1.217-2.917-1.701-5.833-4.132-8.994-5.347-.243-.243-.486.485-.243.485 4.376 1.702 7.779 5.348 12.154 6.807-.243.243-.486.73-.729.973-2.188-1.459-4.618-2.674-7.049-4.132-1.216-.73-2.188-1.46-3.403-2.188-.244-.243-.244-.243-.486-.243-.486-.242-.974-.486-1.458-.729-.243-.243-.729.243-.243.487 3.403 2.43 7.051 6.076 10.452 7.536-4.376-1.702-8.266-4.133-12.641-6.564zm23.823 3.403c-.973-.486-1.703-.972-2.432-1.458-3.404-2.674.485-.973 1.459-.242.242 0 .242.242.485.242.972 1.216 2.431 2.188 3.889 3.16 0 0-.243 0-.243-.243-1.214-.729-2.186-1.215-3.158-1.459zm0-1.945zm-3.404-1.944c.973-.485 1.701-.973 2.432-1.459v.243c.485.973 1.215 1.459 1.944 2.431 0 .243-.244.243-.244.243-.485-.243-1.215-.729-1.7-.972-.243-.243-.486.242-.486.486-.244-.244-.487-.244-.73-.486-.486-.243-.974-.243-1.216-.486zm2.432-1.459s0-.244 0 0c.485-.485.973-.729 1.457-1.215v.243c1.216 1.458 3.161 2.917-1.457.972.242 0 0 0 0 0zm1.7-1.458c.244-.242.73-.486.973-.729.974-.486 1.216.243 1.216.973-.73-.244-1.459-.244-2.189-.244zm2.188.973c0 .241 0 .729-.242.972-.487-.731-.73-1.215.242-.972zm3.89 5.591c.242.486.242.729.729.973.243.243 1.701 1.215 1.944 1.459h-.243-.243c-2.188-.73-4.376-1.945-6.319-3.161 0 0 .242-.243 0-.243-.73-.973-1.459-1.459-2.189-2.431-.972-.973.974-.243 1.946 0 0 .485 0 .972.243 1.458.728 1.459 2.431 1.945 4.132 1.945zm3.159-.245c.487.486.974 1.46 1.46 1.702-1.216-.485-2.188-.972-3.403-1.458.484 0 .972-.244 1.943-.485v.241zm.488-.485c.728-.243 1.458-.243 2.188-.243v.243c.486.972 2.188 2.188 0 1.216-.973-.731-.973-.731-2.188-1.216zm2.917-.486c1.458 0 2.431 0 2.188.73 0 .241 0 .241-.243.241-.731-.241-1.216-.485-1.945-.971zm1.458 1.702l-.243.242c-.971-.973-.971-1.214.243-.242zm-1.214.729c-.244.242-.487.242-.974.242-1.215-.971 0-.729.974-.242zm-1.946.729c-.729.243-1.216.243-1.703.487-.729-.73-1.701-1.945-1.943-1.945 1.215.486 2.431.972 3.646 1.458zm-3.646.729c-.73.243-1.459.243-2.189 0-.971-.729-1.943-1.216-3.158-1.945-.243-.242-1.216-.729-1.946-1.458h.73c2.43 1.458 4.373 2.674 6.563 3.403zm-9.968-2.918h-.729s0-.241-.243-.241c-1.215-.73-2.431-1.217-3.646-1.946.484-.242.971-.242 1.457-.486.975.972 1.945 1.945 3.161 2.673zm-7.778-7.292c-.729-.487-1.459-.972-2.431-1.215 1.215.243 2.918.485 3.889.972.486.243-.486.243-1.458.243zm-4.618 1.703c-.487-.243-.973-.486-1.458-.972.729 0 1.216.242 1.943.242 0 .243-.243.486-.485.73zm1.701-1.703c.243 0 .486.243.73.243h-.487c0 .001 0-.243-.243-.243zm4.619 6.564c-.487-.243-.73-.485-1.215-.729.484 0 1.215-.243 1.7-.486.486.73 1.216 1.216 1.701 1.703.243.241.243.485.487.485h-.244c-.486 0-1.944-.973-2.429-.973zm4.376.728c-.243 0-.73 0-.974.244-.486-.729-1.216-1.216-1.701-1.945.485.73 1.701 1.216 2.675 1.701zm-2.433.731c-.484.242-.972.486-1.215.729-.973-.729-2.188-1.701-3.159-2.674l-.243-.244h.485c.243.244.729.486.729.486 1.46.731 2.432 1.217 3.403 1.703zm109.634 78.762c-.486-.973-1.214-1.46-1.943-2.188-1.701-1.946 1.457-.488 2.431-.243h.242c-.486.484-.486 1.458-.73 2.431zm.973-5.835c-.973-1.216-2.187-1.944-3.402-2.916-.487-.243-.729-.487-1.215-.974v-.485c.485 0 .728.242 1.215.242 1.216.486 2.43.729 3.646 1.458-.001 1.216-.001 1.945-.244 2.675zm0 .729c0 .729-.243 1.459-.485 1.944v-.242c-.974-1.217-2.188-1.946-3.161-2.917.73-.244 1.46-.244 1.945.485.485.244.972.486 1.701.73zm-4.375 1.702c.243.728.973 1.216 1.459 1.943 1.215 1.216-.73.487-1.459.244v-2.187zm3.159 3.89c-.243.972-.485 1.943-.728 2.916 0-.485 0-.973-.487-1.458-.485-.486-.972-.974-1.216-1.458-.97-1.702 1.703-.243 2.431 0zm-.971 3.889c0 .243-.244.485-.244.729v-.243c0-.243 0-.486.244-.486zm-1.46-2.431c-.243-.486-.243-.73-.243-1.217.73.974 1.459 1.946.974 3.161-.243-.486-.487-1.215-.731-1.944zm-.485-8.021c.485.485.973.972 1.458 1.457.487.486 2.431 1.944 0 .974-.485-.243-1.216-.487-1.701-.73v-1.458c.243-.001.243-.243.243-.243zm-.243-2.674c.973.728 2.188 1.457 3.159 2.431.73.485.73.485-.243 0-.484-.244-.972-.73-1.7-.974-.487-.242-.73-.242-1.216-.485.243-.245.243-.487 0-.972zm-2.431-4.377c-.73-.486-1.216-.243-1.945 0-1.215-.729-2.43-1.701-3.646-2.43-1.458-.975-1.215-.975.242-.244 1.216.486 2.432.973 3.403 1.459 2.918 1.459 5.835 3.161 8.994 4.133 0 .485-.243.972-.243 1.7-1.701-.972-3.402-1.458-5.104-1.944 0-1.214-.728-2.188-1.701-2.674zm2.431-32.331c-1.458-.729-3.161-1.458-4.619-2.674-2.917-2.188.73.243 1.458.486.973.486 1.703.729 2.675.973.244.73.244.972.486 1.215zm-7.05-13.614c-1.945-.972-1.702-.729-.243-.485.243.243.243.243.243.485zm1.702 2.431c-.487-.242-.73-.485-1.215-.729-.73-.487-1.703-1.215-2.433-1.458.974.243 1.945.486 2.917.971.244.488.488.974.731 1.216zm2.431 4.862c-1.702-.973-3.403-1.701-4.861-2.917-3.404-2.431.973-.487 2.188 0 .486.243.972.486 1.702.729.241.73.727 1.46.971 2.188zm1.459 2.918c-1.459-1.215-3.404-1.945-5.104-2.918-.73-.486-1.459-.729-2.433-1.215 1.459.486 2.917 1.215 4.376 1.702.973.485 1.702.485 2.674.729-.001.73.244 1.216.487 1.702zm3.159 8.023c-1.943-1.459-4.375-2.189-6.32-3.647-3.646-2.431 1.458-.243 2.431.243.974.485 2.188.73 3.161.972-.001.729.486 1.458.728 2.432zm-8.751-4.62c2.188 2.431 5.592 3.161 8.266 5.104 2.187 1.702-3.89-1.458-2.917-.972-.729-.243-1.46-.729-2.188-.972-1.216-.487-2.432-.974-3.647-1.215.243-.729.486-1.458.486-1.945zm9.724 8.265c-2.916-2.188-6.078-3.404-9.236-5.349-.974-.729-1.703-.971.242-.243 1.458.487 2.916 1.216 4.375 1.946 1.216.484 2.674 1.215 3.89 1.457.243.73.486 1.461.729 2.189zm.972 3.89c-3.646-2.918-8.022-3.89-11.912-6.32-2.43-1.458.973-.73 1.702-.244 1.459.486 2.917 1.216 4.375 1.946 1.702.729 3.404 1.457 5.348 2.188 0 .728.243 1.457.487 2.43zm.729 3.645c-3.89-3.402-8.994-4.618-13.37-7.292-.729-.243-4.618-2.432-1.215-.972 2.188.729 4.375 1.7 6.563 2.674 2.432 1.214 5.105 2.188 7.778 3.158.001.73.001 1.461.244 2.432zm.487 3.889c-1.946-1.7-4.377-2.431-6.563-3.645-2.431-1.459-4.861-2.676-7.294-4.134-.484-.486-1.215-.729-1.944-.972.973.243 1.703.729 2.674.972 2.188.73 4.134 1.216 6.077 2.188 2.188 1.217 4.377 2.189 6.807 2.917-.001.731.243 1.703.243 2.674zm.243 3.404c-4.862-3.889-10.94-6.321-16.531-9.479-3.403-1.946 1.216.484 1.946.728 1.701.73 3.159 1.459 4.86 2.189 3.161 1.215 6.32 2.431 9.481 3.889.244.728.244 1.701.244 2.673zm-16.531-2.43c5.105 3.403 10.453 6.077 16.531 7.536h.243v2.431c-1.946-1.944-4.376-3.161-6.807-4.376-3.404-1.702-6.807-3.647-9.967-5.591zm8.265.972c-3.159-1.946-6.563-2.917-9.723-4.863-.242 0-.242-.241-.485-.241.243 0 .485.241.729.241 1.215.486 2.188.974 3.404 1.459 1.215.487 2.431.974 3.646 1.458 3.646 1.459 7.292 3.404 11.183 4.377v3.646c-2.919-2.43-5.835-4.375-8.754-6.077zm8.266 12.642c-4.862-3.161-9.481-6.564-14.829-8.995 2.918 1.458 5.835 2.431 8.751 3.889 1.945.973 3.889 1.702 6.078 2.189h.243c0 .971-.243 1.943-.243 2.917zm-11.911-.974c-.73-.486.485-.486 1.458-.486-.487.243-.973.729-1.215.974-.974.728-1.459.486-1.946-.244.487.244.973.244 1.459.244.244.243.487-.244.244-.488zm-2.674-4.132c.971.973 2.187 1.702 3.401 2.431 2.189 1.459-.972 0-2.431 0-.243 0-.486.243-.243.486.73.973.974.973-.243.729-.241-1.216-.241-2.674-.484-3.646zm-.244-3.16c3.889 2.915 8.751 5.349 12.883 8.022 3.161 1.943-2.431-.974-2.431-.974-1.215-.485-2.187-1.216-3.402-1.7-2.188-1.217-4.376-2.189-6.806-2.919 0-.972 0-1.7-.244-2.429zm-1.216-4.619c2.188 1.458 4.377 2.917 6.808 4.133 2.674 1.458 6.563 2.674 8.507 4.861.487.486-3.89-1.216-3.89-1.216-.972-.485-1.943-.972-2.916-1.458-2.432-1.216-4.862-1.945-7.293-2.918 0-.485-.243-.972-.243-1.458-.243-.729-.729-1.457-.973-1.944zm-4.132-5.347c5.349 3.645 11.668 5.834 17.017 9.723 3.889 2.918 1.458 1.459-.485.729-2.188-.729-4.133-1.702-6.321-2.431-2.674-1.216-5.104-3.16-8.021-4.133h-.242c-.733-.971-1.948-2.43-1.948-3.888zm.243-.73c0-.243.245-.729.486-.974.243-.243.729-.728.974-1.215 2.916 1.702 5.833 3.404 8.993 5.104 1.459.73 3.161 1.458 4.619 2.432 1.216.729 2.916 2.188 4.132 2.674-6.564-2.188-12.641-5.833-19.204-8.021zm1.945-2.917c.243-.73.486-1.459.243-2.188-.485-1.217-.485-2.432-.243-3.404 4.618 3.404 10.453 4.618 15.072 8.022 4.132 2.917-.487.486-1.703-.243-1.458-.729-3.159-1.459-4.617-2.188-2.431-1.216-5.348-1.703-7.778-2.674-.244 0-.487.243-.244.486 4.618 3.888 10.696 5.59 15.557 8.994 1.946 1.215-1.701-.729-1.943-.974-2.188-.973-4.376-1.7-6.563-2.674-2.919-1.214-5.35-2.428-7.781-3.157zm.243-6.321c.243-.729.73-1.216 1.458-1.7 3.89 3.16 8.752 4.132 12.642 6.806 3.89 2.675 0 .485-1.216 0-1.701-.729-3.404-1.458-5.105-2.188-2.431-.974-5.105-2.189-7.779-2.918zm2.188-2.188c.243 0 .486-.243.729-.243.729-.243 1.215-.485 1.702-1.216 1.701 1.216 3.402 2.189 5.348 3.16.973.486 2.188 1.216 3.159 1.703.487.243 3.646 2.187.73.972-3.646-1.459-7.293-3.645-11.668-4.376zm1.701-10.696c1.702.974 3.647 1.702 5.348 2.675.73.485 1.459.973 2.189 1.701 0 .243.242.487.242.973-.973-.485-1.944-.729-2.916-1.459-.974-.485-1.946-.972-3.161-1.215-.243 0-.486.243-.243.485 2.188 1.703 5.104 4.134 7.778 5.105-2.431-.729-4.861-1.702-7.535-2.432 0-.971-.243-1.944-.486-2.674-.243-.97-.73-1.943-1.216-3.159zm-1.215-3.889c1.215 1.944 3.404 2.674 5.348 3.889 3.404 1.945 0 .486-1.944-.242-.973-.486-1.702-.729-2.673-.973-.488-.972-.731-1.703-.731-2.674zm-.243-2.673c1.701 1.215 3.404 1.944 5.348 3.16.243.241.243.484.486.729-1.215-.487-2.188-.972-3.403-1.458-.729-.486-1.457-.486-2.431-.729v-.974-.728zm.486-4.134c.729.974 1.215 1.946 1.945 2.675-.73-.244-1.217-.244-1.945-.486-.243 0-.486.242-.243.486.73.486 1.215.973 1.945 1.215-.73-.242-1.458-.485-2.188-.485.243-1.217.486-2.189.486-3.405zM76.177 163.771c-33.304-7.536-59.558-34.762-63.447-68.551 0-.244.242-.244.242-.487.974-4.86 2.189-8.75 5.835-12.154 2.674-2.188 4.862-4.618 6.32-7.778 1.702-3.161 3.403-8.266 6.807-9.968 2.917-1.458.243 4.133.486 3.647-.243.485-.729 1.216-.972 1.702-.73.972-1.458 1.944-2.188 2.916-1.944 2.918-4.619 6.078-3.403 9.724.729 2.675 4.861 4.133 7.292 4.376 2.674.486 6.563.973 8.51-1.215 1.701-2.188 1.944-4.619 1.944-7.293 0-4.133-.486-10.21 1.944-13.857 2.431 0 3.16.974 2.431 2.676 0 .242-.244.729-.244.972-.484 1.216-.971 2.431-1.457 3.646-.729 1.702-1.701 3.402-1.944 5.348-.487 2.674.243 5.834-.729 8.265-.974 2.432-2.917 3.89-4.133 6.077-1.216 2.433-1.701 5.349-.486 7.779 2.918 5.591 9.966 6.078 14.828 9.479 4.377 3.161 1.459 8.023 4.133 12.155 2.188 3.404 5.591 5.105 8.994 6.807 5.349 2.431 10.209 4.861 14.829 8.266 3.402 2.431 7.051 4.86 11.182 5.591 4.376.729 8.752-.242 10.695-4.862 1.946-4.862 1.217-10.452.243-15.558-.728-2.917-1.458-5.591-2.431-8.265-1.215-3.403-4.375-7.292-4.132-10.939.242-2.674.972-5.104.487-7.779-.245-1.943-.973-3.646-1.703-5.348-1.7-4.376-4.133-10.452 1.216-13.37 6.563-3.646 18.474-1.943 22.121-9.724 7.535-15.558-14.585-31.358-27.47-34.275-3.889-.973-8.021-1.216-11.668.243-3.404 1.215-5.835 3.889-8.021 6.563-3.403 3.89-6.808 7.294-11.668 9.725-4.134 1.943-8.509 3.646-12.642 5.835-2.431-1.702-2.674-3.161-.729-3.892.243 0 .484-.243.729-.243 2.188-.971 5.592-2.187 5.592-5.104 0-1.943-.73-3.645-3.162-3.402-2.915.243-4.374 3.16-6.805 4.376-3.16 1.457-1.217-2.674-.729-3.16.729-.729 1.459-1.458 2.187-1.944 1.459-.974 3.161-1.702 4.863-2.189 2.674-.486 4.861 4.134 7.778 1.946 3.403-2.674 3.161-7.537 6.32-10.211 3.161-2.917 6.321-2.188 9.725 0 .971.73 2.431 1.459 3.645 1.216 2.675 0 6.32-.973 8.752-2.188 3.891-1.945 4.132-7.292-.973-6.807-2.43.243-5.104 1.458-7.535 1.458-2.674-.243-.73-2.674-.972-4.132-.243-1.216-.486-2.188-1.459-2.918-2.188-2.187-5.592 1.945-7.293 2.918-2.188 1.215-5.349 2.674-8.022 2.431-.243-1.216.243-1.701 1.216-1.216h.729c.485 0 1.215.243 1.944 0 1.458-.485 3.404-2.431 1.701-3.889-.971-.973-2.187-1.459-3.646-1.703 26.74-10.938 58.585-8.021 82.408 9.239 5.834 4.132 10.938 9.237 15.315 14.584 0 3.16-.73 6.078-.73 9.238 0 1.944 1.215 4.132 1.945 5.834.972 2.188 2.187 6.078-.974 7.05-.729.242-.972.487-1.7.729-1.215.729-1.945 1.945-2.188 3.403-.486 1.216 0 3.161.485 4.377.488 1.7-1.215 2.431-1.944 3.646-1.457 2.431.486 5.833 2.188 7.778 2.432 2.674 2.919 4.861 3.16 8.265 0 1.703.243 3.16.729 4.62.486 1.943 2.431 2.916 4.377 2.431.728-.243 1.7-.974 2.187-1.459 2.431-2.188 2.431 2.916 2.188 4.618-.242 1.945-.485 4.132 0 6.078.73 2.674 2.188 5.104 2.432 7.778 0 .243.242.485.242.728-.972 2.189-1.943 4.377-2.916 6.564-17.017 33.546-56.398 51.049-92.861 42.783zm49.346-1.458c.973-.484 1.945-.729 2.917-1.215.729 1.944 2.188 3.404 3.161 5.105.973 1.458 4.374 5.834 3.159 7.536-2.673 4.132-7.779-7.536-9.237-11.426zm-26.74 13.857c0 .485.243 1.215.487 1.701-2.674-.486-5.104-.972-7.778-1.701h7.291zm-9.965 4.86c2.915 1.218 5.833 2.431 8.507 3.647 1.215.486 2.431 1.215 3.646 1.701.243.243.486.243.73.243-.244 0-.244 0-.487-.243-4.374-1.215-8.751-2.674-12.883-4.131 0-.243.243-.973.487-1.217 0-.242 0 0 0 0zm-.73 1.946c2.431 1.216 5.104 2.432 7.778 3.403 1.946.729 4.62 2.43 6.807 2.674-5.105-.244-10.21-2.188-15.072-3.403 0-.731.244-1.702.487-2.674zm-4.133 13.37c8.021 5.104 17.502 7.05 26.254 10.209 5.104 1.703 9.967 3.89 15.071 5.593 4.619 1.458 10.211 3.889 14.1 4.862-11.183-2.432-21.878-6.321-32.818-9.968-5.348-1.702-10.452-3.403-15.8-4.619-1.943-.485-3.89-.729-6.077-1.216-2.917-.973-5.834-2.187-8.752-3.402 2.673-.488 5.347-.973 8.022-1.459zm-9.238 1.702c2.918 1.701 6.078 2.674 9.238 3.402 1.702.73 3.646 1.216 5.348 1.945 5.106 1.701 9.968 3.403 15.072 5.349 5.348 1.944 10.696 3.646 16.044 5.348 2.674.972 5.348 1.7 8.021 2.675 1.216.485 2.674.971 3.89 1.456-.972-.242-1.702-.485-2.674-.728-10.696-1.946-20.905-6.077-31.359-9.481-9.723-3.159-19.69-6.319-29.656-8.508 1.944-.485 3.889-.973 6.076-1.458zm-7.534 1.701s.243 0 0 0c9.965 2.917 19.202 7.05 28.684 10.695 4.62 1.703 9.48 3.404 14.343 4.619 2.188.485 4.375 1.216 6.563 1.946.729.242 6.077 2.187 2.188 1.213-4.861-1.213-9.48-3.159-14.342-4.374-4.619-1.216-9.237-2.674-13.613-4.133-9.237-3.402-18.475-6.32-27.956-8.751 1.459-.485 2.673-.973 4.133-1.215zm-13.371 4.375c2.432 1.216 4.862 1.945 7.536 2.675 3.646 1.215 7.05 3.646 10.695 5.104 3.646 1.46 7.294 2.919 11.183 4.377-3.404-.973-6.563-2.188-9.967-3.161-7.779-2.187-15.314-5.833-23.093-8.021.972-.244 2.431-.487 3.646-.974zm-7.536 3.161c7.05 5.104 15.802 6.563 23.336 11.182.73.486 1.945 1.459 2.675 1.702-1.459-.487-2.675-.729-4.134-1.216-2.187-.73-4.375-1.701-6.563-2.674-3.89-1.701-8.021-2.674-11.911-3.89-.243 0-.486-.242-.486-.242-1.944-.973-3.646-1.946-5.591-2.919.487-.97 1.458-1.457 2.674-1.943zm-6.321 5.105c2.674 2.432 6.078 3.89 9.481 5.348-1.216-.242-2.431-.728-3.646-1.215-1.945-.73-4.132-1.701-6.078-2.431h-.242c-.243-.486-.243-.729.242-1.217 0-.242 0-.485.243-.485zm1.458.243c.973.485 2.189.729 3.162.973 5.591 1.701 11.425 3.404 16.772 5.834-3.159-.243-6.32-.729-9.48-1.217v-.485c-2.674-1.215-5.349-2.188-8.022-3.646-.729-.243-1.216-.729-1.943-1.217-.001 0-.244-.242-.489-.242zm10.21.485c1.46.487 2.918.974 4.377 1.46 4.862 1.701 9.479 3.889 14.1 5.348-2.188 0-4.62-.244-6.807-.486h-.244c0-.243-.243-.243-.486-.243-3.403-2.187-7.292-4.134-10.94-6.079zm31.36 7.051c-12.641-2.917-24.066-8.51-35.978-13.37.972-.485 1.701-.729 2.674-1.215 0 0 0 .243.243.243 6.32 2.917 12.64 5.591 18.96 8.021 2.917 1.215 5.591 2.188 8.508 3.403 1.704.972 3.648 1.945 5.593 2.918.728 0 .972.243 1.215.243-.243 0-.729 0-1.215-.243zm-19.934-13.127c7.536 2.674 15.072 5.105 22.851 7.291 4.375 1.216 8.51 2.677 12.884 4.377 1.459.486 3.161 1.216 4.62 1.459-2.674 0-5.106.243-7.779.243-8.752-3.16-17.503-6.32-25.768-10.211-2.431-.972-4.621-2.187-6.808-3.159zm45.216 13.127c-6.32-4.133-14.099-5.591-21.393-8.021-4.377-1.459-8.994-2.919-13.37-4.377-2.674-.972-5.104-1.943-7.779-3.159-1.701-.73-3.403-1.945-5.104-2.188 8.75 1.701 17.016 6.078 25.523 8.995 8.751 3.16 17.502 5.834 26.497 8.508-1.457-.001-2.916-.001-4.374.242zm6.319-.487c-7.779-4.133-16.771-5.833-25.038-8.75-4.861-1.703-9.725-3.646-14.585-5.348-2.674-.973-5.104-1.703-7.778-2.674-.73-.244-3.89-1.216-3.647-1.216.974.243 1.944.485 2.674.729 10.211 2.674 19.934 6.563 29.9 9.725 4.861 1.458 9.968 2.674 14.829 4.375 3.402 1.215 6.807 2.431 10.452 2.917-2.188-.001-4.619.242-6.807.242zm-1.215.244c-4.134-2.188-9.481-3.159-14.099-4.619-4.861-1.458-9.481-3.159-14.342-4.862-2.188-.729-4.377-1.7-6.565-2.674 3.161 1.215 6.565 2.188 9.725 3.404 8.265 2.917 17.503 4.617 25.281 8.751zm-52.994-18.232c.487-.244.973-.244 1.703-.487.971.487 2.187.974 3.158 1.459-1.458-.243-3.158-.728-4.861-.972zm79.978 15.316c-4.377-2.188-8.994-3.647-13.856-5.107-4.619-1.458-9.237-3.645-13.856-5.104-8.265-2.918-17.016-4.861-25.039-8.751.73.242 1.459.485 2.188.973 2.188.729 4.377 1.459 6.563 2.187 4.861 1.459 9.725 2.917 14.586 4.377 4.86 1.215 9.48 2.674 14.342 3.889 6.321 1.945 12.642 4.133 18.718 6.807-.973.241-2.431.486-3.646.729zm-55.424-20.907h.485c.243 0 .243.243.485.243 1.459.244 3.16.244 4.619.486 0 .243.486.243.729.243 6.807 3.159 13.855 5.835 20.906 8.265-8.993-2.917-18.23-5.591-27.224-9.237zm17.744-7.294c-2.187-.971-4.376-1.7-6.563-2.674-1.216-.485-2.674-.971-3.89-1.7 3.404 1.215 6.807 2.431 10.453 3.161-.243.242-.243.727 0 1.213zm-4.376 7.537c4.863 2.431 9.968 4.134 15.072 5.834-6.808-1.945-13.855-3.159-20.662-5.59 1.944 0 3.89-.244 5.59-.244zm-11.182-4.619c1.216.729 2.674 1.217 4.133 1.945-.243-.243-2.674 0-2.917 0s-.243.244-.243.485h-.487c-.486-.971-.486-1.701-.486-2.43zm.973-.242c1.945.241 3.889.484 6.078.971 1.943.487 3.646.973 5.59 1.216-2.431.244-4.619.485-7.049.485.242 0 .242-.485 0-.485-1.215-.486-3.404-1.945-4.619-2.187zm7.778.242c-1.457-.241-2.674-.729-4.133-1.215.243 0-4.861-1.459-1.7-.973 4.133.973 8.021 2.674 12.154 2.917 0 .244-.243.487-.243.729v.486c-1.702-.971-3.889-1.458-6.078-1.944zm6.807-.485c-2.187-.73-4.133-1.46-6.32-2.189 2.188.486 4.134.974 6.32.974v1.215zm-10.21-9.724c1.216.243 2.431.73 3.403.971 1.701.487 3.647.973 5.348 1.46.243.729.487 1.459.73 2.431-3.404-1.701-7.051-3.403-10.452-4.861-2.918-1.46.485-.001.971-.001zm8.508 1.458c-2.916-1.701-6.319-2.431-9.237-3.889 2.189 1.215 5.834 1.701 8.753 2.188-.001.486.242.973.484 1.701zm-1.215-3.161c-1.943-.972-4.132-1.459-6.077-2.431-.243 0-.243-.244-.486-.244.486.244.974.244 1.459.487 1.701.243 3.161.729 4.862.972 0 .245 0 .731.242 1.216zm39.381 27.227c-7.05-2.674-14.342-4.619-21.635-6.563-5.104-1.216-9.967-3.162-15.072-4.62h.73c5.348 1.701 10.938 2.188 16.286 3.404 6.808 1.944 13.856 4.133 19.691 7.779zm7.292 6.32c-14.099-6.808-29.899-9.481-44.241-16.045-.73-.242-1.701-.728-2.432-1.215h1.215c.73.243 1.217.243 1.945.487 3.889 1.215 7.778 2.916 11.912 3.89 8.508 2.187 17.016 4.375 25.28 7.534.244 0 .244 0 .244-.243.243.243.486.487.972.73.488.485 3.889 3.159 5.105 4.862zm-11.181-4.133c2.431.973 5.104 1.946 7.535 2.919.729.242 1.459.728 2.188.971-6.806-2.187-13.369-4.86-20.176-7.534 3.402 1.214 7.049 2.429 10.453 3.644zm11.425 5.834c-.486.243-.973.485-1.702.729-5.348-2.43-10.695-4.374-16.043-6.076-2.674-.972-5.592-1.702-8.266-2.674-8.508-2.674-17.018-5.348-25.281-8.994.729.242 1.216.485 1.944.485 2.188.73 4.619 1.216 6.806 1.946 5.104 1.215 10.21 2.431 15.072 3.889 9.237 3.159 18.231 7.291 27.713 9.968 0 .242 0 .485-.243.727zm-12.884 2.917c-9.724-3.889-19.69-6.563-29.414-9.967-5.104-1.944-10.452-3.646-15.557-5.348 5.348 1.215 10.695 2.918 16.043 4.619 11.182 3.646 22.363 7.536 33.788 10.21-1.458.243-3.158.486-4.86.486zm-9.238.973h-1.215s0-.243-.243-.243c-8.994-4.132-19.205-5.835-28.441-9.481-5.349-2.187-10.94-4.374-16.288-6.563-1.459-.485-2.674-.972-4.132-1.459 10.21 2.674 20.42 5.835 30.387 9.481 8.751 3.16 17.502 6.078 26.74 7.534-2.189.245-4.378.488-6.808.731zm-39.381 1.703c-5.104-2.919-10.938-4.864-16.286-7.051-4.132-1.703-8.265-3.161-12.153-5.104-.73-.243-1.46-.73-2.432-.974 6.563 2.432 13.127 4.862 19.933 7.051 6.563 1.944 12.884 4.132 19.447 6.078H85.17zm-10.453-.244h-1.458c-3.89-3.16-8.507-5.105-13.37-6.807-2.916-1.216-5.834-2.188-8.751-3.646-1.458-.73-2.674-1.458-3.889-2.432 1.215.73 2.431 1.458 3.646 1.945 5.349 2.43 10.453 4.376 16.044 6.319 4.861 1.703 9.725 3.647 14.586 4.864-2.188-.243-4.378-.243-6.808-.243zm-34.762-5.591c2.431.971 4.862 1.945 7.537 2.916-2.917-.727-6.321-1.701-7.537-2.916zm2.918-5.592c0 .244 0 .244 0 0 1.459 1.216 2.917 1.946 4.376 2.431 1.215.488 2.431 1.216 3.646 1.703 3.16 1.459 6.32 2.917 9.48 4.86-.486-.242-1.215-.485-1.701-.728-1.943-.729-4.133-1.459-6.32-2.188-3.89-1.215-8.021-2.432-11.911-3.889.728-.73 1.458-1.459 2.43-2.189zm14.342-6.319c.729-.244 1.459-.487 2.189-.73 8.265 4.375 17.016 7.293 26.01 10.21 3.889 1.216 7.535 2.188 11.426 3.402 2.187.73 4.617 1.46 6.563 2.431.728.244 2.431 1.459 3.401 1.946h-.971c-4.133-.487-8.021-2.432-11.911-3.89-4.62-1.701-9.238-2.917-13.857-4.132-8.508-2.432-16.772-5.593-25.281-8.752.973.001 1.701-.242 2.431-.485zm30.143-16.531c2.431.974 5.104 1.944 7.778 2.674 2.188.729 5.105 2.189 7.536 2.433-4.86-.243-9.48-2.677-14.342-3.162-.243 0-.486.485-.243.485 3.889 2.434 8.509 2.918 12.642 4.377.241 0 .241 0 .484.243h-.243c-.972-.243-2.674-.729-2.916-.729-1.215-.244-2.431-.487-3.646-.974-2.433-.484-4.863-.972-7.294-.972-.242-1.215.001-2.916.244-4.375zm2.916-10.209c0 .243 0 .243.244.485 3.16 1.459 6.807 2.188 9.724 3.89-1.216-.486-3.402-.729-4.618-.971-1.701-.487-3.161-.73-4.862-.975-.243 0-.487.487-.243.487 1.701.972 3.404 1.458 5.105 2.188 1.701.486 3.646 1.944 5.105 2.187-3.89-.973-7.78-2.431-11.911-2.916h-.244c.729-1.458 1.215-2.917 1.7-4.375zM8.841 56.569c4.374-10.939 9.966-21.635 18.23-30.145 7.779-8.266 17.261-13.856 27.47-18.961.974 2.432 2.917 5.104 4.376 6.807-28.684 13.128-48.376 41.084-48.619 73.17.243 38.896 29.901 72.198 67.823 79.248 15.314 2.918 31.114 1.702 45.459-3.402.485 1.459 1.457 3.646 2.43 5.833-9.237 4.132-20.419 4.862-30.386 5.104-8.266 0-16.53-.484-24.552-2.431-26.255-6.076-49.105-21.877-60.287-46.673C.819 103.243-.397 79.177 8.841 56.569z"/></g></svg>