<?xml version="1.0" encoding="utf-8"?>
<!-- Generator: Adobe Illustrator 16.0.0, SVG Export Plug-In . SVG Version: 6.00 Build 0)  -->
<!DOCTYPE svg PUBLIC "-//W3C//DTD SVG 1.1//EN" "http://www.w3.org/Graphics/SVG/1.1/DTD/svg11.dtd">
<svg version="1.1" id="Layer_1" xmlns="http://www.w3.org/2000/svg" xmlns:xlink="http://www.w3.org/1999/xlink" x="0px" y="0px"
	 width="179.363px" height="223.142px" viewBox="0 0 179.363 223.142" enable-background="new 0 0 179.363 223.142"
	 xml:space="preserve">
<g>
	<path fill="#010101" d="M69.369,136.789c-1.216-1.46-2.187-3.647-3.89-4.62c-2.187-0.971-4.617-0.242-6.563-1.944
		c-0.486-0.486-1.216-0.241-1.702,0c-0.484,0-1.215,0.486-0.972,1.217c0.242,3.159,3.161,6.32,5.104,8.507
		c1.701,1.945,5.348,5.592,8.265,4.862C73.746,143.595,70.828,138.977,69.369,136.789z M59.646,134.357
		c1.945,1.215,4.133,1.215,6.321,1.945l0.242,0.243c-1.457,0-2.916-0.487-4.375-0.243c-0.243,0-0.486,0.243-0.243,0.486
		c1.458,1.7,3.889,1.7,5.835,2.674c-0.974,0.242-2.189,0.242-3.161,0.242c-0.729-0.729-1.459-1.7-1.945-2.187
		C61.348,136.789,60.375,135.572,59.646,134.357z M58.917,133.385c0.243,0,0.487,0.244,0.729,0.244c-0.241,0-0.241,0-0.485,0l0,0
		C58.917,133.385,58.917,133.385,58.917,133.385z M65.236,135.572c-1.701-0.484-3.402-0.728-4.861-1.457
		c1.459,0.242,2.918,0.485,4.377,0.729C64.994,135.088,65.236,135.329,65.236,135.572z M67.911,139.22
		c-1.702-0.73-3.89-0.973-5.349-2.188c1.459,0,2.674,0.243,4.133,0.243C66.938,137.762,67.426,138.489,67.911,139.22z
		 M68.641,142.623h-0.243c-0.729-0.486-1.459-0.729-2.188-0.972c-0.486-0.244-0.973-0.73-1.457-1.216c1.215,0,2.431,0,3.646-0.487
		l0,0C69.126,141.163,69.856,142.623,68.641,142.623z"/>
	<path fill="#010101" d="M1.304,73.341c-5.591,31.117,7.051,65.879,33.061,84.598c10.939,8.021,23.58,13.369,36.708,16.043
		c5.591,1.216,11.182,1.701,16.772,2.188c-1.945,5.591-3.89,11.668-2.916,17.502c-14.829,2.431-31.846,5.349-44.243,14.586
		c-2.432,1.943-5.591,5.591-2.188,8.265c2.916,2.431,7.536,3.159,11.183,3.89c14.342,2.431,29.171,2.917,43.756,2.674
		c14.1-0.243,28.685-0.972,42.783-2.917c3.404-0.487,10.697-0.729,12.884-4.133c2.432-3.646-5.104-8.509-7.534-9.967
		c-6.32-4.375-13.857-6.806-21.393-8.752c-5.104-1.215-10.453-1.943-15.558-3.401l0,0c1.943-5.835-2.188-11.912-3.404-17.746
		c8.752-0.487,17.746-1.46,25.768-5.104c2.188,4.375,5.349,7.778,9.237,5.104c5.105-3.646-3.889-11.912-5.348-15.802
		c14.586-6.563,27.471-17.016,36.465-31.115c18.231-28.928,15.558-67.094-6.808-93.104C137.435,9.896,99.271-0.071,66.452,11.111
		v-0.243C64.265,6.735,63.535-2.989,56.243,0.9c-2.188,1.216-2.674,2.674-2.432,4.62h-0.242
		c-13.37,6.563-25.282,14.585-34.032,26.738C10.541,44.172,3.978,58.757,1.304,73.341z M64.265,11.841
		c-1.216,0.485-2.187,0.971-3.402,1.458c-1.702-2.431-8.023-9.725-2.674-10.696C62.319,1.631,63.049,9.165,64.265,11.841z
		 M42.386,66.778c-1.457-0.729-2.916-0.972-4.374-1.702c-2.431-0.972,3.646,0.243,4.861,0.243
		C42.873,65.807,42.629,66.292,42.386,66.778z M41.413,78.934c-2.674-1.459-6.318-0.73-9.236-1.946
		c-3.402-1.215,0.73-0.484,1.458-0.243c1.216,0.243,2.188,0.486,3.403,0.73c1.459,0.243,2.917,0.243,4.375,0.243
		C41.413,78.203,41.413,78.69,41.413,78.934z M41.413,76.26c0,0.243,0,0.484,0,0.728c-2.916-0.728-5.832-1.458-8.265-2.917
		c1.216,0.73,3.89,0.73,5.349,0.974c0.973,0.243,2.188,0.485,3.161,0.729C41.413,75.772,41.413,76.017,41.413,76.26z M41.413,74.801
		c-2.187-1.215-4.617-2.431-7.049-3.161c2.188,0.487,4.862,0.73,7.294,0.73C41.413,73.341,41.413,74.07,41.413,74.801z
		 M37.038,69.939c-1.457-0.73,2.432,0,2.432,0c0.729,0,1.459,0,2.432,0c0,0.485-0.243,0.972-0.243,1.457
		C40.199,70.911,38.497,70.667,37.038,69.939z M35.338,68.724c0.243-0.486,0.243-0.973,0.484-1.458
		c1.459,0.728,4.377,2.187,6.079,2.187C39.712,69.452,37.524,68.966,35.338,68.724z M35.822,64.592L35.822,64.592
		c1.216,0.728,2.189,1.215,3.404,1.457c0.973,0.243,5.349,2.188,1.459,1.217c-1.702-0.487-3.161-0.73-4.62-0.487
		c0-0.243,0-0.486,0-0.729C36.065,65.319,35.822,65.076,35.822,64.592z M42.144,67.993c0,0.244-0.242,0.487-0.242,0.973
		c-0.488-0.242-1.216-0.485-1.946-0.729c0,0-3.159-1.215-1.458-0.972C39.712,67.509,40.929,67.993,42.144,67.993z M40.686,83.309
		c-1.702-0.486-3.404-0.729-5.104-1.216c-1.459-0.485-2.917-0.729-4.133-1.458c-1.215-0.486-3.404-1.458,0.485-0.729
		c3.161,0.486,6.32,1.702,9.479,1.215C41.413,81.851,41.171,82.579,40.686,83.309z M32.664,83.553c0.728,0,1.458,0.242,2.187,0.242
		c1.702,0.243,3.161,0.729,4.861,0.729c-0.729,0.484-1.7,0.973-3.403,0.729c-0.728,0-1.701-0.245-2.674-0.245
		c-1.215-0.242-2.43-0.728-3.401-1.456C28.774,82.579,32.664,83.553,32.664,83.553z M28.287,79.905c0-0.244,0.243-0.486,0.243-0.729
		l0,0c2.918,2.431,6.564,3.16,10.209,4.132c0,0,0.973,0.244,1.703,0.244c0,0,0,0.242-0.243,0.242c0,0,0,0-0.244,0
		c-1.458,0-2.674-0.242-4.133-0.486c-2.431-0.486-4.861-0.729-7.292-1.216h-0.243C28.044,81.851,28.044,80.878,28.287,79.905z
		 M28.774,78.934c0.242-0.73,0.729-1.459,1.216-2.189c2.674,1.946,6.075,1.459,9.236,2.189c0.485,0.243,1.702,0.485,2.187,0.972
		c0,0.243,0,0.486,0,0.729c-0.242,0-0.728,0-1.458,0c-1.458,0-2.917-0.243-4.374-0.486C33.392,79.419,31.205,78.934,28.774,78.934
		L28.774,78.934z M30.718,75.772c0.243-0.485,0.73-0.972,0.973-1.215c0-0.244,0.243-0.244,0.243-0.487
		c1.458,0.73,2.917,1.459,4.375,1.946c1.216,0.486,2.431,0.728,3.646,0.971c1.458,0.243,1.703,0.487,0.487,0.243
		C37.281,77.23,34.122,76.26,30.718,75.772z M32.42,73.341c0.244-0.485,0.487-0.728,0.972-1.214
		c1.946,0.486,3.646,1.214,5.348,1.943c0.73,0.243,4.134,1.702,0.973,0.73C37.281,74.07,35.095,73.586,32.42,73.341z M33.879,71.396
		c0.485-0.729,0.729-1.214,1.216-1.944c1.458,0.973,3.159,1.215,4.86,1.944c2.674,0.974-0.485,0.486-1.458,0.486
		C37.038,71.64,35.338,71.396,33.879,71.396z M31.934,62.402c-0.485,0-0.729,0.243-1.216,0.486c-3.402-1.216-6.806-1.944-9.966-3.16
		c-3.16-1.215,0.485,0.243,1.701,0.243c0.974,0.243,1.944,0.243,2.917,0.487c6.078,0.729,12.154,2.916,18.232,3.402
		c-0.243,0.243-0.243,0.487-0.486,0.73c0,0,0,0.241-0.243,0.241c0,0,0,0-0.244,0c-2.43-0.241-4.617-0.729-7.048-0.729
		c-0.243,0-0.243,0-0.243,0.244C35.095,62.889,33.879,61.918,31.934,62.402z M64.994,73.829c7.293,2.674,14.585,5.59,22.364,7.535
		c1.701,0.486,3.646,0.729,5.104,1.701v0.243c-0.486,0-2.674-0.486-2.674-0.486c-2.188-0.729-4.132-1.458-6.078-2.188
		c-4.86-1.944-10.452-2.432-15.558-3.647c-4.618-1.215-8.993-2.917-13.612-4.374c-1.458-0.73-3.16-1.217-4.861-1.459
		c0.243-0.243,0.243-0.729,0.486-0.972c0-0.243,0.241-0.73,0.241-0.974l0,0C55.027,70.911,59.889,72.37,64.994,73.829z
		 M68.641,74.801c1.459,0.486,2.917,0.729,4.375,1.216c6.078,1.701,12.642,3.889,18.961,4.132c0,0.729,0,1.459,0,2.431
		c-2.188-0.972-4.376-1.215-6.563-2.188c-4.134-1.458-8.267-2.674-12.155-3.889C71.558,75.772,70.1,75.287,68.641,74.801z
		 M92.22,79.177c-1.945-0.729-4.132-0.974-6.32-1.459c-3.889-0.974-7.536-2.188-11.183-3.647
		c-7.048-2.674-16.043-4.374-22.363-8.751c5.104,3.404,13.855,4.863,20.177,6.32c6.807,1.459,14.099,2.674,20.419,5.591
		C92.707,77.718,92.22,78.447,92.22,79.177z M92.707,85.254c-3.161-1.216-6.322-1.701-9.481-2.917
		c-4.132-1.459-8.021-2.676-12.153-3.89c-4.62-1.46-9.481-2.188-13.614-4.377c5.835,1.702,11.426,3.647,17.503,4.863
		c3.646,0.728,7.05,1.458,10.453,2.917c2.431,0.972,4.619,1.944,7.049,1.702C92.463,84.281,92.707,84.767,92.707,85.254z
		 M93.923,88.413c-3.161-1.215-6.564-1.701-9.725-2.916c-3.16-1.216-6.077-2.432-8.994-3.646c3.159,0.729,6.32,1.702,9.48,2.916
		c2.916,0.973,5.59,1.945,8.751,1.945C93.436,87.198,93.679,87.928,93.923,88.413z M95.137,91.573
		c-7.049-3.402-14.828-5.104-22.363-7.049c-8.509-2.188-17.259-4.376-25.768-7.05c0,0,0,0-0.243,0c0-0.487,0.243-0.73,0.243-1.215
		c8.751,2.917,17.503,5.591,26.253,8.265c3.889,1.215,8.021,1.944,12.155,3.16c2.917,0.973,5.834,1.701,8.752,2.188
		C94.651,90.358,94.894,90.845,95.137,91.573z M95.866,94.733c-6.807-3.646-13.855-6.076-21.149-8.508
		c-5.834-1.944-11.668-3.646-17.259-5.591c0.73,0.243,1.459,0.243,1.946,0.485c4.131,0.973,8.021,2.433,11.911,3.404
		c8.021,2.188,16.285,3.889,24.065,7.535C95.624,93.032,95.624,94.006,95.866,94.733z M53.083,86.469
		c5.105,1.459,10.452,2.674,15.558,4.133c5.105,1.458,9.966,2.917,15.07,4.375c2.674,0.729,5.107,1.46,7.537,2.431
		c1.459,0.487,2.675,1.216,4.133,1.703c-0.244,0.971-0.244,1.7-0.244,2.674c-7.778-3.404-15.558-6.078-23.579-8.509
		c-4.619-1.459-9.238-2.917-14.1-4.377c-3.889-1.214-7.778-1.943-11.425-3.645c0-0.245,0.243-0.487,0.243-0.973
		C48.464,85.739,50.895,85.983,53.083,86.469z M95.624,98.38c-3.161-1.7-6.564-2.917-10.21-4.131
		c-4.134-1.46-8.023-3.161-12.155-4.376c-4.375-1.46-8.75-2.675-13.127-4.134c-0.728-0.242-1.458-0.485-1.943-0.73
		c0.242,0,0.242,0,0.485,0.245c4.132,1.215,8.509,2.187,12.884,3.403c8.021,2.188,16.043,5.833,24.309,7.535
		C95.866,96.68,95.866,97.407,95.624,98.38z M95.624,105.187c-2.188-1.459-4.376-2.674-6.806-3.646
		c2.187,0.729,4.131,1.214,6.563,1.459c0,0.243,0,0.243,0,0.484C95.381,103.971,95.381,104.458,95.624,105.187z M97.325,109.075
		c-6.32-3.645-13.37-6.32-20.421-8.994c3.161,0.973,6.564,1.946,9.725,3.162c3.16,1.215,6.32,2.915,9.724,3.889
		C96.597,107.617,96.84,108.348,97.325,109.075C97.082,108.833,97.325,109.075,97.325,109.075z M98.297,111.265
		c-3.16-1.459-6.805-1.945-10.209-3.404c-4.619-2.187-9.237-3.89-13.856-5.591c-2.432-0.729-5.105-1.7-7.536-2.674
		c1.458,0.485,2.917,0.974,4.62,1.215c5.832,1.702,11.91,3.16,17.503,5.834c3.158,1.46,6.075,3.161,9.479,3.646
		C98.055,110.778,98.297,111.021,98.297,111.265z M100.242,115.883c-3.402-1.702-7.05-2.918-10.696-4.376
		c-5.348-2.188-10.695-4.375-16.044-6.32c-0.486-0.242-0.729-0.242-1.215-0.485c4.86,1.457,9.967,2.916,14.828,4.618
		c3.89,1.215,7.778,2.674,11.911,3.403C99.514,113.938,99.756,114.911,100.242,115.883z M60.862,101.541
		c3.159,1.214,6.563,2.43,9.723,3.646c5.348,1.702,10.695,3.889,16.044,6.078c4.619,1.7,9.48,2.916,13.613,5.59l0,0
		c-4.376-2.674-9.48-3.89-14.1-5.348c-5.104-1.701-10.21-3.402-15.314-5.105c-5.592-1.943-10.939-3.401-16.529-5.348
		c-4.619-1.7-8.995-3.402-13.856-4.617c0-0.487,0-0.974,0.243-1.46c1.458,0.486,3.159,0.973,4.618,1.46
		c0.243,0,0.729,0.243,0.973,0.243c2.673,0.972,5.347,1.943,7.778,2.916C56.73,100.081,58.674,100.811,60.862,101.541z
		 M55.757,101.784c0.486,0.243,0.974,0.243,1.458,0.485c-0.242,0-0.484-0.242-0.484-0.242c-2.676-0.73-5.35-1.946-8.023-2.917
		C50.895,99.839,53.326,100.811,55.757,101.784z M101.457,120.502c-8.994-5.105-19.203-8.266-28.684-12.154
		c-3.647-1.459-7.051-2.917-10.695-4.377c3.401,1.216,6.806,2.188,10.209,3.404c5.348,1.944,10.938,3.646,16.531,5.348
		c2.915,0.973,5.833,1.7,8.507,3.16c1.215,0.486,2.188,0.972,3.404,1.459C100.971,118.313,101.214,119.287,101.457,120.502z
		 M46.519,101.541c2.675,0.972,5.349,1.702,8.266,2.674c5.591,1.702,10.938,4.133,16.288,6.319
		c5.348,2.188,10.938,4.377,16.286,6.564c4.861,1.944,9.724,3.403,14.586,5.591c0.243,0.972,0.243,1.701,0.485,2.674
		c-8.994-5.104-18.961-8.751-28.44-12.641c-5.349-2.188-10.696-4.618-16.045-6.564c-5.105-1.943-10.695-3.158-15.315-6.077
		C39.47,97.651,45.547,101.054,46.519,101.541z M102.673,129.495c-3.89-2.43-8.75-3.401-13.127-5.348
		c-5.348-2.188-10.695-4.619-15.8-7.049c-1.703-0.973-3.646-1.702-5.349-2.676c1.459,0.488,2.918,0.974,4.376,1.46
		c5.59,1.944,11.425,3.646,17.016,5.834c4.134,1.703,8.266,3.646,12.398,4.619C102.673,127.065,102.673,128.28,102.673,129.495z
		 M99.999,128.524h-0.243C99.999,128.524,99.999,128.524,99.999,128.524z M101.457,129.253c-0.243,0-0.243-0.243-0.486-0.243
		C101.214,129.01,101.214,129.253,101.457,129.253z M102.673,130.225c0,0.73,0,1.459,0,2.189c-1.216-1.459-3.159-2.189-4.86-2.919
		c-4.62-1.944-9.238-3.889-13.857-5.834c-3.16-1.459-6.32-2.674-9.724-3.889c1.945,0.729,3.89,1.215,5.834,1.944
		C87.845,124.391,95.381,127.551,102.673,130.225z M102.43,133.872c-0.242,0.729-0.242,1.457-0.729,2.187
		c-1.702-1.458-3.889-1.943-5.835-2.917c-3.89-1.7-7.778-3.646-11.668-5.348c-3.646-1.458-7.535-2.917-11.183-4.374
		c-0.729-0.243-1.458-0.487-2.188-0.73c3.403,0.972,6.807,2.188,10.452,3.404c4.134,1.215,8.509,2.187,12.398,3.89
		C96.597,131.198,99.514,132.657,102.43,133.872z M68.641,125.85c2.188,0.729,4.618,0.972,6.563,1.701
		c3.402,1.217,6.807,2.188,9.966,3.647c5.349,2.431,10.454,4.86,16.287,5.591c-0.728,1.458-2.187,2.431-4.132,2.674
		c-4.618,0.729-9.237-1.701-12.884-4.618c0.487,0.243,1.216,0.484,1.701,0.728c0.973,0.243,1.945,0.73,2.917,0.974l3.16,1.701
		c-0.486,0-0.486,0.486,0,0.486c0.243,0,0.243,0,0.487,0c0.242,0,0.485-0.244,0.242-0.486c-1.216-1.458-2.916-1.944-4.618-2.675
		c-1.459-0.484-3.161-0.972-4.62-1.7c-1.457-0.974,2.432,0.729,2.188,0.485c2.919,1.215,5.593,2.188,8.51,3.404
		c1.457,0.485,2.916,1.215,4.374,0.728c0.243,0,0.243-0.242,0.243-0.484c-1.701-1.459-3.89-1.946-6.077-2.917
		c-2.431-1.216-4.861-2.431-7.535-3.404c-3.403-1.459-6.808-2.674-10.453-3.89c-1.459-0.485-3.403-0.973-5.104-1.458
		C69.369,126.336,68.884,126.094,68.641,125.85z M73.259,128.28c0.973,0.244,1.945,0.487,2.918,0.973
		c4.861,1.702,9.48,3.646,13.856,5.592c1.7,0.728,3.646,1.701,5.348,2.43c3.402,1.215,0.972,1.215,0,0.73
		c-0.972-0.243-1.702-0.73-2.674-1.216c-3.404-1.46-6.808-2.917-10.453-3.647c-0.243,0-0.243,0-0.486,0.243
		C79.094,131.441,76.177,129.738,73.259,128.28z M59.889,119.043c6.078,3.403,13.37,5.104,19.69,7.778
		c6.32,2.432,12.397,5.836,18.718,8.267c0.729,0.241,1.702,0.728,2.433,0.971c-0.974,0.244-1.703,0.244-2.675,0
		c-1.702-0.486-3.646-0.971-5.348-1.701c-2.918-1.216-5.835-2.674-8.752-3.89c-6.077-2.674-12.397-4.374-18.961-6.077
		C62.806,122.933,60.862,121.474,59.889,119.043z M59.16,115.153c0-0.485,0-0.73,0-0.973c1.215,0.73,2.674,1.216,3.889,1.945
		c0.486,0.243,1.216,0.486,1.945,0.729c3.646,1.458,7.049,2.918,10.695,4.376c8.021,3.16,16.287,6.32,24.066,10.211
		c0.73,0.242,1.701,1.7,2.188,1.7c-1.215-0.484-2.431-0.973-3.404-1.458c-1.215-0.485-2.431-1.216-3.646-1.7
		c-3.889-1.703-8.265-2.675-12.398-4.134c-7.534-2.188-15.557-4.133-22.606-7.537c-0.243,0-0.243,0-0.484,0.244
		C59.404,117.585,59.16,116.369,59.16,115.153z M58.431,111.021h0.243c2.188,0.728,4.132,1.215,6.32,1.943
		c1.215,0.487,2.188,1.216,3.403,1.703c7.05,3.645,14.586,7.049,21.877,10.209c-7.779-2.917-15.801-5.104-23.579-8.022
		c-1.943-0.729-3.646-1.701-5.591-2.432c-0.485-0.484-0.729-0.728-0.973-0.484c-0.243-0.243-0.728-0.243-0.972-0.486
		C58.917,112.479,58.917,111.749,58.431,111.021z M57.458,109.319c1.702,0.972,3.646,1.702,5.348,2.674
		c-1.701-0.486-3.16-0.972-4.617-1.702C57.944,110.049,57.701,109.806,57.458,109.319z M42.144,100.081
		c3.16,1.946,6.806,3.162,10.21,4.377c5.348,1.943,10.695,4.133,15.8,6.32c10.94,4.618,22.121,8.265,32.576,14.099
		c0.484,0.243,1.215,0.486,1.458,0.486c-0.243,0-0.486-0.243-1.217-0.243c-1.215-0.485-2.431-0.729-3.646-1.216
		c-2.432-0.972-4.862-2.188-7.292-2.917c-5.592-1.944-11.183-3.889-17.018-5.834c-2.188-0.73-4.375-1.458-6.807-1.944
		c-2.674-1.46-5.347-2.918-8.021-4.134c-0.73-0.242-1.458-0.728-1.945-0.971c-0.243,0-0.243-0.244-0.486-0.244
		C52.597,104.943,45.304,103.728,42.144,100.081z M40.686,96.921c0.243,0,0.243,0,0.485,0.244c0,0.242,0.242,0.242,0.73,0.242
		c4.375,1.703,8.506,3.646,13.126,5.105c5.592,1.702,10.939,3.646,16.288,5.835c10.209,4.132,20.904,7.535,30.386,12.883
		c0,0.243,0,0.243,0,0.486c-4.134-1.944-8.509-3.404-12.883-4.862c-5.35-1.943-10.94-4.132-16.288-6.32
		c-5.348-2.187-10.696-4.617-16.287-6.319c-5.105-1.46-9.967-3.646-15.072-5.349C40.929,97.895,40.929,97.407,40.686,96.921z
		 M41.171,94.006c0.242-0.487,0.487-0.974,0.73-1.459c4.375,1.943,8.75,2.916,13.369,3.89c0.486,0,0.729,0.243,1.215,0.243
		c0.487,0.241,0.729,0.241,1.216,0.485c5.834,2.188,11.911,4.132,17.746,6.078c5.104,1.7,9.723,4.374,14.827,6.076
		c2.675,0.729,5.835,0.972,8.266,2.43c-0.728,0.487-1.215,0.487-1.943,0c-0.487,0-0.73-0.242-1.216-0.242
		c-1.215-0.485-2.432-0.729-3.647-1.216c-5.591-1.943-11.425-3.89-17.26-5.59c-3.158-0.974-6.563-1.946-9.722-2.917
		c-7.051-2.674-14.101-5.592-21.393-7.535c-0.243,0-0.243,0-0.486,0C42.144,94.249,41.658,94.249,41.171,94.006z M44.332,93.032
		c-2.919-1.216,0.972,0.243,1.458,0.243c1.216,0.243,2.674,0.73,3.89,1.215c0.728,0.243,1.458,0.486,2.188,0.73
		C49.193,94.733,46.763,94.006,44.332,93.032z M42.144,92.06c0.242-0.486,0.729-0.972,0.973-1.458
		c6.32,2.917,13.127,4.132,19.933,5.835c2.188,0.484,4.134,1.215,6.077,1.943c5.835,1.945,11.669,4.375,17.259,6.564
		c2.918,1.214,5.835,2.431,8.752,3.889c0,0,1.46,0.729,2.188,1.216c0,0,0,0.242,0.242,0.242c-0.242,0-0.485,0-0.728-0.242
		c-1.703-0.486-3.161-0.974-4.62-1.701c-10.209-5.104-21.147-8.022-32.088-10.94c-0.243,0-0.486-0.242-0.728-0.242
		C53.812,94.977,47.978,93.032,42.144,92.06z M44.575,90.845c1.458,0.243,2.917,0.729,4.374,1.215
		C47.492,91.573,46.033,91.088,44.575,90.845z M43.603,89.873c0.486-0.73,0.973-1.216,1.457-1.945
		c9.968,4.619,21.149,6.563,31.604,9.967c5.591,1.701,11.182,3.646,16.286,6.32c0.974,0.486,1.944,1.216,2.917,1.702
		c0,0.241,0.243,0.484,0.243,0.728c-0.485-0.243-0.973-0.486-1.216-0.486c-2.431-0.972-4.619-1.943-7.049-2.915
		c-9.724-3.647-19.934-6.563-30.144-8.994c-0.243,0-0.729-0.243-0.971-0.243C52.354,92.547,48.221,90.845,43.603,89.873z
		 M54.784,91.088c0.73,0.244,1.459,0.485,2.188,0.729c2.916,0.73,5.833,1.702,8.75,2.433C62.078,93.275,58.431,92.303,54.784,91.088
		z M45.304,87.44c0.243-0.485,0.486-0.972,0.729-1.215c3.403,1.702,6.806,2.432,10.452,3.403c4.134,1.216,8.267,2.674,12.397,3.89
		c8.752,2.674,17.502,5.348,26.011,8.994c-1.701-0.729-3.889-0.972-5.834-1.702c-1.944-0.729-4.131-1.457-6.076-2.188
		c-4.133-1.458-8.51-2.674-12.641-3.89C61.834,92.547,53.326,90.358,45.304,87.44z M46.519,83.553c0-0.974,0-2.188,0-3.161l0,0
		c4.133,1.459,8.022,3.646,12.155,5.105c4.375,1.458,8.752,2.674,13.126,4.132c4.62,1.459,8.995,3.16,13.614,4.861
		c2.431,0.973,5.104,1.702,7.778,2.917c0.486,0.244,1.944,0.973,2.674,1.216l0,0c-0.242-0.243-0.729-0.486-1.943-0.972
		c-7.78-3.646-16.775-5.592-25.039-7.778c-4.619-1.216-9.479-2.675-14.1-3.89c-1.701-0.486-3.403-0.729-5.104-1.217
		c-0.243,0-1.459-0.485-2.431-0.729c0.243,0,0.243-0.485,0-0.485C47.006,83.795,46.763,83.795,46.519,83.553z M46.519,80.148
		c0-0.729,0-1.458,0.244-2.188l0,0c0.486,0.242,0.971,0.242,1.458,0.486c0,0.243,0.486,0.486,1.216,0.486
		c7.778,2.674,15.8,5.104,23.579,7.535c4.132,1.459,8.265,2.674,12.398,4.133c2.674,0.972,5.104,2.188,7.778,3.404
		c0.73,0.243,4.375,1.7,1.217,0.971c-8.267-1.944-16.046-5.348-24.066-7.536c-4.134-1.215-8.752-1.943-12.885-3.402
		c-3.646-1.216-7.051-2.674-10.695-3.89C46.763,79.905,46.519,79.905,46.519,80.148z M47.492,75.772
		c0.241-0.485,0.485-1.215,0.729-1.702c6.32,2.189,12.884,4.133,19.205,5.835c2.917,0.973,5.833,1.945,8.507,3.16
		c5.105,2.188,10.21,3.646,15.315,5.105c1.701,0.486,2.431,0.728,2.918,0.972c0,0,0,0,0,0.243c-0.487,0-2.918-0.487-4.62-0.973
		c-2.431-0.729-4.861-1.458-7.292-1.944C70.585,83.309,58.674,79.661,47.492,75.772z M49.68,73.829
		c0.728,0.241,1.701,0.484,2.674,0.729c0.485,0.243,0.973,0.486,1.458,0.486C52.354,74.801,50.895,74.313,49.68,73.829z
		 M48.464,73.586c0.243-0.487,0.485-1.216,0.729-1.703c1.701,0.487,3.646,0.973,5.348,1.458c0.974,0.488,1.944,1.217,2.917,1.46
		c1.946,0.972,4.376,1.702,6.563,2.187c6.078,1.703,11.911,3.404,17.746,5.35c2.674,0.972,5.104,1.701,7.778,2.43
		c0.973,0.242,2.431,0.973,3.403,1.217l0,0c-1.457,0-3.16-0.244-4.618-0.729c-5.836-1.701-11.427-3.646-17.259-5.105
		c-0.487,0-0.729-0.243-1.216-0.243c-4.134-1.215-8.266-1.944-12.398-3.646C54.541,75.044,51.623,73.586,48.464,73.586z
		 M49.193,61.918c2.188,0.484,4.376,1.215,6.563,1.7c12.884,3.647,25.768,8.265,38.652,11.669c-0.486,0.485-0.974,0.973-1.217,1.457
		c-5.834-2.674-12.884-3.889-19.203-5.348c-7.78-1.7-15.315-3.888-22.852-6.805c-0.243-0.243-0.486,0.241-0.243,0.484
		c6.078,4.133,13.857,5.835,20.663,8.265c6.32,2.432,13.371,5.593,20.176,6.078c-7.535-0.485-15.557-3.159-22.607-5.349
		c-2.674-0.729-5.104-1.457-7.778-2.188c-3.646-1.458-7.293-2.674-10.94-3.402l0,0C50.895,66.292,51.138,63.133,49.193,61.918z
		 M36.309,57.784c-2.917-0.729-5.834-1.701-8.75-2.43c-0.729-0.244-8.266-1.946-4.132-1.703c13.369,0.973,26.98,6.563,39.622,10.94
		c6.32,2.187,12.884,4.374,19.446,6.075c3.89,0.973,8.51,1.46,11.671,3.891C81.28,71.154,68.641,66.535,56,63.133
		C49.437,61.188,42.873,59.729,36.309,57.784z M32.177,60.215c-2.187-0.728-4.376-1.216-6.32-2.187
		c-1.216-0.487-2.43-0.974-3.646-1.459c-1.459-0.729-1.459-0.729,0-0.244c3.89,0.973,7.779,2.432,11.911,3.162
		c3.646,0.728,7.536,1.457,11.182,2.431c-0.486,0.241-0.729,0.728-0.972,1.215C40.199,62.159,36.065,61.188,32.177,60.215z
		 M28.53,64.833c-1.459-0.729-2.917-1.215-4.618-1.944c-0.729-0.243-7.293-2.43-3.403-1.458c3.16,0.729,6.077,1.702,9.237,1.944
		C29.503,63.861,29.017,64.349,28.53,64.833z M26.829,67.509c-1.702-0.73-3.16-1.702-4.862-2.433
		c-0.486-0.243-5.104-2.674-2.43-1.943c2.916,0.729,5.833,1.943,8.75,2.187C27.559,66.049,27.071,66.778,26.829,67.509z
		 M25.127,70.183c-1.944-0.974-3.646-1.945-5.59-2.917c-0.73-0.487-4.862-1.703-1.459-0.73c2.674,0.73,5.349,1.458,8.022,1.945
		c-0.244,0.243-0.244,0.485-0.487,0.729C25.613,69.452,25.37,69.939,25.127,70.183z M23.427,73.586
		c-2.434-1.703-5.107-2.675-7.537-4.134c0.973,0.487,4.862,0.973,6.077,1.459c0.973,0.243,1.702,0.243,2.674,0.485
		C24.155,71.883,23.669,72.855,23.427,73.586z M21.724,76.26c-1.215-0.73-2.674-1.459-3.646-2.189
		c-0.729-0.484-4.619-2.674-1.702-1.457c2.188,0.728,4.376,1.944,6.807,1.7C22.453,75.044,22.211,75.529,21.724,76.26z
		 M20.266,77.961c-0.973-0.486-1.702-0.974-2.674-1.458c-0.243-0.243-3.403-1.216-0.729-0.486c1.457,0.486,2.917,0.728,4.618,0.971
		l0,0C20.993,77.23,20.509,77.718,20.266,77.961L20.266,77.961z M16.376,78.69c-0.973-0.243-0.973-0.487,0-0.973
		c1.216,0.243,2.188,0.485,3.403,0.729c-0.486,0.486-0.973,0.972-1.46,1.214C17.835,79.419,17.104,79.177,16.376,78.69z
		 M17.835,80.392c-0.486,0.486-0.973,0.973-1.459,1.216c-0.486-0.487-1.215-1.216-1.701-1.459
		C14.918,80.148,16.619,80.392,17.835,80.392z M14.675,84.038c-0.973-1.701-0.244-1.701,1.215-1.459l-0.244,0.243
		C15.161,83.065,14.918,83.553,14.675,84.038z M14.188,84.767c-0.243,0.487-0.729,0.973-0.974,1.459
		c-0.243-0.729-0.485-1.944-0.485-1.701C13.459,84.524,13.702,84.767,14.188,84.767z M12.729,86.955
		c-0.242,0.485-0.242,0.729-0.485,1.216c0-0.243,0-0.73,0-0.973c0-0.486,0-0.973,0-1.459C12.487,86.226,12.729,86.712,12.729,86.955
		z M12.487,83.795c0.242-4.134,0.728-8.022,1.701-11.912l0,0c1.701,1.703,3.646,2.918,5.591,3.89c2.674,1.458-0.973,0.244-1.944,0
		c-0.973-0.243-1.945-0.485-2.917-0.729c-0.243,0-0.487,0.243-0.243,0.485c1.458,0.974,3.16,1.458,4.375,2.432
		c-1.215-0.73-3.404-0.73-4.861-0.73c-0.243,0-0.486,0.244-0.243,0.487c0.729,0.973,1.458,1.459,2.431,1.943h-0.243
		c-1.458-0.242-0.972-0.242-2.674-0.484c-0.244,0-0.244,0.242-0.244,0.484c0.244,0.974,0.73,1.459,1.703,2.189
		c1.458,1.215-1.459,0-1.703,0c-0.243,0-0.485,0.242-0.243,0.242C13.215,83.065,14.188,84.038,12.487,83.795z M14.188,71.396
		c0.242-0.729,0.242-1.457,0.486-2.188l0,0c1.215,0.73,2.674,1.458,3.889,2.188c0.974,0.486,3.16,2.189,3.89,2.433
		C19.537,73.586,17.104,72.127,14.188,71.396L14.188,71.396z M14.675,68.724c0.243-0.973,0.486-1.945,0.729-2.917
		c1.701,0.972,3.403,1.702,5.105,2.674c0.972,0.485,2.918,1.944,3.889,1.944C21.237,70.183,18.078,68.724,14.675,68.724
		L14.675,68.724z M15.646,65.319c0.73-2.187,1.459-4.375,2.189-6.32c0,0,0,0,0.243,0.244c3.889,1.701,7.778,2.675,11.668,3.89
		c-3.646-1.215-7.779-2.188-11.668-2.674c-0.243,0-0.486,0.242-0.243,0.485c1.458,0.974,2.917,1.458,4.618,2.188
		c0.486,0.242,6.807,2.187,3.647,1.459c-3.161-0.73-6.078-2.189-9.238-2.433c-0.243,0-0.486,0.486-0.243,0.486
		c2.918,1.946,6.077,3.403,9.237,5.105c-1.216-0.485-3.89-0.729-5.348-1.216C19.293,66.292,17.592,65.807,15.646,65.319z
		 M18.078,58.514c1.215-2.917,2.674-5.835,4.133-8.51c5.833,2.675,12.153,4.135,18.475,5.836c6.807,1.944,13.369,4.375,19.934,6.563
		c6.807,2.189,13.854,4.62,20.905,6.563c3.646,0.974,7.294,1.701,10.938,2.917c1.703,0.487,3.403,0.973,5.104,1.216
		c-0.971,0.487-1.701,0.972-2.431,1.459c-3.16-2.918-7.778-3.403-11.911-4.375c-7.293-1.702-14.585-4.376-21.635-6.808
		c-7.536-2.674-15.072-5.104-22.607-7.05c-5.835-1.701-11.912-3.402-18.231-3.16c-0.243,0-0.486,0.486-0.243,0.486
		c4.618,2.432,10.452,3.403,15.557,4.862c3.646,0.974,7.051,1.945,10.697,2.674c-0.244,0-0.729,0.243-0.973,0.243
		c-4.861-1.216-9.725-1.702-14.342-3.16c-3.89-1.216-7.779-2.431-11.911-2.916c-0.244,0-0.487,0.485-0.244,0.485
		c6.563,3.403,13.855,5.348,20.906,6.806c-0.729-0.243-1.46-0.243-2.431-0.486c-2.431-0.486-4.62-1.215-7.051-1.7
		C26.829,59.729,22.453,59.487,18.078,58.514C18.319,58.514,18.078,58.514,18.078,58.514z M115.557,50.247
		c-0.243,0-0.485,0-0.729-0.243c-3.161-0.728-6.077-2.187-8.994-2.674c-3.89-0.728-7.779-1.457-11.425-2.431
		c-6.809-1.457-13.614-3.645-20.42-4.617c1.458-1.459,2.915-2.917,4.374-4.134c5.592,2.431,11.911,3.16,17.989,4.862
		c3.161,0.973,6.32,1.702,9.481,2.918c1.701,0.729,3.646,1.215,5.348,1.944c0,0,0.485,0,0.973,0.243
		c0.243,0.242,0.243,0.242,0.485,0.486c-2.674-0.486-5.104-1.703-7.778-2.188c-3.404-0.73-6.807-1.702-9.968-2.432
		c-6.075-1.458-12.153-3.16-18.23-4.132c-0.243,0-0.486,0.485-0.243,0.485c6.32,3.16,13.126,4.619,19.933,5.835
		c3.89,0.728,7.778,1.458,11.425,2.674c1.702,0.484,3.404,0.972,4.862,1.701c0.243,0,1.216,0.486,2.188,0.973
		C115.071,49.763,115.313,50.004,115.557,50.247z M78.851,35.905c0.971-0.728,1.944-1.215,3.16-1.701c0,0.243,0,0.486,0.242,0.486
		c4.862,1.944,9.967,2.431,14.829,3.889c2.188,0.729,4.375,1.46,6.563,2.432c0,0,8.022,2.674,3.891,1.945
		c-5.105-0.973-9.968-2.917-14.828-4.133C88.088,37.365,83.469,36.878,78.851,35.905z M82.254,33.962
		c1.701-0.73,3.646-0.974,5.834-0.73c4.132,0.487,8.265,1.703,12.154,3.646C94.166,35.905,88.088,34.447,82.254,33.962
		L82.254,33.962z M107.535,41.983c-2.432-1.215-5.105-2.188-7.779-3.16c-4.132-1.215-8.264-1.945-12.155-2.918
		c-1.458-0.243-2.672-0.728-3.89-1.215c0.73,0.244,1.703,0.487,2.432,0.487c1.702,0.484,3.646,0.728,5.35,0.971
		c3.645,0.729,7.048,1.217,10.695,1.944C103.888,39.309,105.834,40.525,107.535,41.983z M111.182,45.144
		c-4.377-1.459-8.994-3.16-13.614-4.375c-4.86-1.217-9.723-2.189-14.342-3.403c0.729,0.243,1.459,0.243,1.944,0.486
		c2.918,0.485,5.592,0.972,8.509,1.7c5.348,1.459,10.452,3.404,15.801,4.133C110.209,44.172,110.694,44.657,111.182,45.144z
		 M114.341,48.789c-11.668-5.104-25.038-4.617-36.706-10.21c2.674,1.216,6.807,1.46,9.724,2.189
		c3.646,0.972,7.535,1.944,11.425,2.674c3.404,0.729,6.808,1.701,10.211,2.674c1.457,0.486,2.673,0.973,4.131,0.973
		c0.244,0.241,0.487,0.484,0.73,0.729C114.099,48.304,114.099,48.547,114.341,48.789z M117.015,52.923
		c-7.535-1.216-14.827-3.403-22.121-5.35c-7.535-1.943-15.314-3.645-22.851-5.104l0,0c0.487-0.485,0.973-0.972,1.459-1.458
		c8.993,1.215,17.746,4.133,26.497,5.835c3.646,0.728,7.05,1.458,10.452,2.674c1.703,0.484,3.647,1.215,5.348,1.215
		C116.286,51.463,116.772,52.193,117.015,52.923z M61.348,30.314c-1.943-1.458-3.89-2.916-5.833-4.376
		c-0.244-0.241-0.73-0.485-0.974-0.729c2.432,1.459,4.863,2.917,7.293,4.377l0,0C61.834,29.829,61.591,30.073,61.348,30.314
		L61.348,30.314z M61.104,31.045c-0.242,0.485-0.485,0.729-0.485,1.214c-1.702-1.701-4.134-3.159-6.32-4.618
		C56.485,28.614,58.674,29.829,61.104,31.045L61.104,31.045z M60.375,32.747c-0.243,0.729-0.729,1.457-0.971,2.188
		c-1.946-1.946-4.134-3.404-6.321-4.861c-1.945-1.461-4.376-2.433-6.077-3.891c-1.459-1.702,2.674,0.729,3.16,0.973
		c1.215,0.485,2.431,1.215,3.646,1.944C56,30.073,58.188,31.288,60.375,32.747z M59.16,35.421c-0.243,0.484-0.486,0.728-0.729,1.214
		c0,0.243-0.242,0.486-0.242,0.486c-1.216-0.729-2.432-1.459-3.89-2.187c-2.188-1.216-4.133-2.676-6.078-4.134
		c-1.458-0.972-3.161-2.674-4.376-3.16c1.702,0.729,3.404,1.459,5.104,2.433C52.354,31.773,55.757,33.476,59.16,35.421L59.16,35.421
		z M57.701,37.608c-1.701,1.943-2.917,0-4.862-0.974c-0.485-0.242-0.972-0.242-1.458-0.242c-0.486-0.487-1.215-0.73-1.944-1.215
		c-0.973-0.73-1.944-1.459-2.918-2.189c-0.972-0.729-2.187-1.7-3.159-2.431c-1.458-0.971-1.458-1.215,0-0.484
		c1.7,0.728,3.159,1.457,4.861,2.186c1.945,0.973,3.89,1.945,5.834,2.919c0.729,0.484,1.702,0.971,2.431,1.457
		c0.487,0.486,0.729,0.73,0.973,0.486C57.458,37.365,57.701,37.365,57.701,37.608z M50.407,36.148
		c-0.971,0.244-2.187,0.486-3.645,1.217c-2.431-1.703-4.861-3.161-6.808-5.106c-2.917-3.159,2.918,0.245,3.647,0.488
		c1.457,0.729,2.916,1.215,4.375,1.943c0.729,0.244,1.459,0.73,2.188,0.972c0,0,0.241,0,0.241,0.243
		C50.166,36.148,50.166,36.148,50.407,36.148z M45.547,37.852c-0.729,0.241-1.215,0.728-1.702,0.972
		c-1.459-0.972-2.916-1.702-4.133-2.675c-1.458-0.971-3.89-3.16-0.729-1.458C41.171,35.662,43.359,36.878,45.547,37.852z
		 M41.171,40.769c-2.188-1.702-4.618-2.917-6.32-4.62c1.458,1.703,5.592,2.675,8.022,3.403
		C42.386,39.795,41.901,40.282,41.171,40.769z M34.851,41.74c1.702,0.485,3.161,0.973,4.861,1.459c0,0.243,0,0.485-0.242,0.729
		C38.012,43.199,36.309,42.469,34.851,41.74z M45.547,48.061c-0.487,0-0.972,0-1.458,0c0.243,0,0.729-0.243,0.971-0.487
		C45.06,47.817,45.304,47.817,45.547,48.061z M46.276,46.846c0.242-0.243,0.242-0.243,0.486-0.487
		C47.006,47.089,46.763,47.089,46.276,46.846z M48.464,45.144c1.459,1.459,0,0.729-0.972,0.486c0.241-0.243,0.729-0.73,0.972-0.973
		C48.464,44.899,48.464,45.144,48.464,45.144z M48.707,44.657L48.707,44.657c0.729-0.485,1.216-0.729,1.7-0.973
		c0,0.487,0.244,0.973,0.244,1.459C50.166,45.144,49.437,44.899,48.707,44.657L48.707,44.657z M50.895,45.873
		c0,0-0.243,0.243-0.487,0.243l0,0C49.193,45.144,49.923,45.387,50.895,45.873L50.895,45.873z M49.68,46.603
		c-0.486,0.243-0.973,0.486-1.216,0.728h-0.243l0,0C47.492,46.358,48.949,46.358,49.68,46.603z M47.492,47.573
		c-0.486,0.244-0.729,0.487-1.216,0.487C45.304,46.846,46.276,47.33,47.492,47.573z M45.304,48.789
		c-0.729,0.487-1.215,1.215-1.701,2.188c-2.432-1.458-5.105-2.674-7.78-3.889c-2.431-0.973-5.348-3.16-7.778-3.89
		C33.879,44.657,39.47,48.061,45.304,48.789z M43.116,52.923L43.116,52.923c-0.487,0-0.73,0-1.215-0.244
		c-3.404-1.216-6.807-2.916-9.968-4.375c-1.459-0.73-2.917-2.188-4.375-2.431c1.701,0.485,3.402,1.216,5.105,1.7
		c3.401,1.46,6.806,2.918,10.452,4.134C43.359,51.95,43.359,52.437,43.116,52.923z M50.651,55.84
		c1.216,0.243,2.432,0.729,3.647,1.215c1.944,0.729,3.89,1.702,5.833,2.188c2.917,0.972,5.835,1.944,8.994,2.916
		c-6.563-1.944-12.883-3.646-19.203-6.319c0.243,0,0.243-0.243,0.484-0.243C50.407,55.84,50.651,55.84,50.651,55.84z M50.895,55.354
		c0.729-0.244,1.216-0.73,1.944-0.974l0,0c9.239,3.647,18.477,6.563,27.956,8.994c4.134,1.458,8.265,3.16,12.397,4.618
		c2.674,0.973,5.834,1.703,8.265,2.918c-1.458-0.972-5.104-1.459-7.048-1.945c-5.835-1.7-11.426-3.403-17.262-5.104
		c-5.59-1.702-11.425-3.402-16.772-5.591C56.973,57.541,54.055,56.083,50.895,55.354z M62.319,57.541
		c-2.674-0.972-5.347-1.944-8.021-2.917c2.432,0.973,5.105,1.459,7.535,2.431c3.16,1.216,6.563,2.433,9.724,3.404
		C68.641,59.487,65.479,58.514,62.319,57.541z M53.812,53.895c0.729-0.243,1.703-0.729,2.432-0.972c0.729,0,1.458,0.242,2.431,0.242
		c0.243,0,0.243,0,0.486,0c0.244,0,0.485,0,0.729,0s0.486,0.243,0.73,0.243c2.187,0.73,4.617,1.702,6.807,2.432
		c10.938,4.132,22.12,8.509,33.061,12.397c1.215,0.486,2.187,0.729,3.401,0.972c0,0,3.404,1.216,1.946,0.73
		c-2.674-0.73-5.592-1.702-8.267-2.431c-5.104-1.702-10.452-3.16-15.8-4.62c-0.487-0.243-0.973-0.243-1.459-0.486
		c-4.861-1.701-9.724-2.915-14.586-4.861C61.834,56.325,57.944,54.624,53.812,53.895z M57.458,52.437
		c1.216-0.486,2.188-0.974,3.404-1.459c7.535,3.89,15.801,6.807,23.822,9.481c2.188,0.729,4.375,1.459,6.32,2.187
		c-4.62-1.458-9.237-2.917-13.857-4.375c-5.348-1.945-10.938-4.132-16.528-5.105c-0.73-0.242-1.459-0.242-2.188-0.486
		C57.944,52.437,57.701,52.437,57.458,52.437z M61.591,50.491c1.215-0.729,2.431-1.215,3.646-1.944
		c9.237,3.403,18.232,7.293,27.471,10.696c4.375,1.701,8.994,3.159,13.611,4.618c2.189,0.73,4.376,1.458,6.564,2.431
		c4.619,1.945,1.945,0.73,0.242,0.243c-4.131-1.459-8.264-3.16-12.396-4.376c-4.62-1.215-9.481-2.672-14.101-4.131
		C78.121,55.354,69.369,53.651,61.591,50.491z M65.723,48.061c0.244,0,0.486-0.243,0.486-0.243c0.486-0.244,0.974-0.729,1.46-0.972
		c0,0,0,0.243,0.242,0.243c8.021,3.889,16.53,6.319,25.038,8.994c4.376,1.458,8.508,3.16,12.885,4.618
		c2.187,0.729,4.375,1.217,6.32,1.701c0.971,0.243,8.021,2.431,3.159,1.459c-8.265-1.943-16.53-5.591-24.795-8.021
		C82.495,53.165,74.231,50.734,65.723,48.061z M68.153,46.358c1.216-0.972,2.432-2.43,3.646-3.646c0,0,0,0.243,0.243,0.243
		c3.646,1.459,7.294,2.188,11.183,3.16c4.375,1.214,8.508,2.673,12.641,4.131c7.294,2.676,16.288,3.647,23.094,7.537l0,0
		c-3.403-1.701-8.266-2.43-11.911-3.403c-4.376-1.216-8.994-2.431-13.37-3.89c-7.779-2.431-15.315-5.104-23.336-6.319
		c-0.243,0-0.486,0.485-0.243,0.485c7.778,3.403,16.043,5.834,24.066,8.508c0.971,0.243,1.943,0.729,2.916,0.974
		c-1.216-0.487-2.673-0.73-3.89-1.216C84.929,50.978,76.663,47.817,68.153,46.358L68.153,46.358z M118.96,60.701L118.96,60.701
		c-0.243-0.242-0.487-0.486-1.215-0.242c-7.536-2.188-14.585-4.862-22.121-7.051c-8.023-2.431-16.287-4.861-24.066-8.265
		c2.674,1.215,7.293,1.702,10.696,2.674c4.131,1.216,8.508,2.674,12.64,3.89c8.022,2.432,16.045,4.376,23.823,6.563
		C118.96,58.999,118.96,59.972,118.96,60.701z M118.717,57.055c-5.834-2.916-12.155-3.89-18.475-5.834
		c-4.376-1.458-8.75-3.16-13.127-4.375c-3.16-0.973-6.32-1.702-9.48-2.431c1.459,0.242,2.917,0.729,4.376,0.972
		c4.374,0.972,8.508,1.943,12.641,2.917c7.536,1.943,14.828,4.133,22.607,5.348C117.988,54.624,118.473,55.84,118.717,57.055z
		 M118.96,61.431c0,0.487-0.243,1.215-0.487,1.702c0,0.242-0.241,0.485-0.241,0.485c-3.403-1.459-7.293-2.431-10.939-3.403
		c-3.889-1.216-7.778-2.674-11.668-4.132c-8.752-2.918-17.989-5.349-26.255-9.237c3.404,1.701,8.509,2.431,12.398,3.646
		c4.132,1.216,8.266,2.432,12.642,3.647C102.673,56.569,110.694,59.487,118.96,61.431z M117.988,64.349
		c-0.486,0.971-1.216,1.943-1.945,2.674c-8.508-3.647-17.503-6.078-26.01-9.481c-4.619-1.944-9.238-3.646-14.101-5.591
		c-0.485-0.243-0.972-0.487-1.459-0.487c7.294,2.188,14.586,4.134,21.879,6.565c4.134,1.459,8.509,2.673,12.642,4.131
		C111.909,63.133,114.828,64.349,117.988,64.349z M115.071,67.509c-0.973,0.729-2.188,1.215-3.404,1.7
		c-0.485-0.243-0.729-0.243-1.216-0.485c0-0.243-0.485-0.486-1.216-0.486c-0.241,0-0.484-0.244-0.728-0.244
		c-0.73-0.242-1.216-0.484-1.946-0.728c-1.458-0.487-2.674-0.974-4.132-1.459c-6.32-2.432-12.641-4.376-18.961-6.563
		c-5.834-1.945-11.911-4.133-17.502-6.564c0.972,0.244,1.702,0.486,2.674,0.729c3.159,0.73,6.32,1.459,9.48,2.675
		c6.808,2.188,13.855,4.376,20.905,6.319C104.131,63.618,109.479,66.292,115.071,67.509z M110.938,69.452
		c-0.973,0.244-2.188,0.487-3.161,0.73c-3.646-1.702-7.535-2.432-10.938-3.891c-4.863-1.943-9.725-3.403-14.829-5.104
		c-4.863-1.7-9.724-3.646-14.585-5.591c-0.73-0.242-1.459-0.486-2.189-0.729c4.376,1.216,8.753,2.917,13.127,4.376
		c7.051,2.43,14.1,4.375,21.15,6.563c1.943,0.729,3.89,1.216,5.833,1.944C107.049,68.237,108.994,68.966,110.938,69.452z
		 M105.104,70.911c-0.729,0.243-1.7,0.243-2.431,0.485c-2.187-1.7-5.591-2.431-8.021-3.159c-2.188-0.729-4.618-1.702-6.807-2.675
		c2.674,0.729,5.348,1.703,8.021,2.431C98.783,68.966,101.944,70.183,105.104,70.911z M101.214,71.883
		c-0.484,0.244-0.972,0.244-1.7,0.487c-1.946-1.459-4.377-1.703-6.564-2.431c-3.646-1.216-7.292-2.188-10.938-3.404
		C88.331,68.237,94.894,70.183,101.214,71.883z M22.453,49.52c0.486-0.73,0.729-1.216,1.216-1.946
		c6.806,2.431,13.855,6.565,21.148,8.023c0.729,0.486,1.459,0.486,2.188,0.729c0.243,0.244,0.728,0.487,1.458,0.244
		c0.243,0,0.243-0.244,0.485-0.244c4.377,1.945,8.995,3.89,13.613,5.105c5.349,1.458,10.696,2.918,16.044,4.618
		c5.104,1.702,10.212,3.403,15.56,4.862c0.971,0.243,4.131,1.459,4.374,1.944h-0.243c-0.242,0-0.972-0.242-1.944-0.485
		c-2.43-0.73-4.86-1.703-7.293-2.188c-11.425-2.432-22.607-6.321-33.545-9.968C44.575,56.325,33.148,54.139,22.453,49.52z
		 M24.155,47.089c0.972-1.459,1.945-2.917,2.916-4.133l0,0c4.862,3.402,10.453,4.861,15.558,8.021
		c-4.617-2.674-10.695-4.619-15.8-6.078c-0.243,0-0.486,0.244-0.243,0.487c4.862,4.376,11.183,5.834,17.017,8.265
		c0,0.487,0.242,0.729,0.486,1.216c-0.729-0.243-1.216-0.243-1.46-0.486c-2.187-0.729-4.132-1.702-6.076-2.431
		C32.177,50.247,28.044,48.547,24.155,47.089z M27.071,42.469c0.487-0.485,0.729-0.972,1.216-1.7c0,0.242,0,0.242,0.243,0.242
		c3.646,1.215,7.292,3.404,11.182,4.133c0,0.243,0,0.243,0.243,0.486c0.244,0.486,0.487,0.729,0.73,1.216
		c-0.73-0.243-1.702-0.729-2.432-0.973C34.607,44.657,30.961,43.442,27.071,42.469z M28.53,40.525
		c0.244-0.243,0.486-0.73,0.729-0.974c3.404,1.703,6.806,3.404,10.21,5.105l0,0C35.822,43.929,32.42,41.74,28.53,40.525
		L28.53,40.525z M29.746,39.066c0.487-0.487,0.972-1.215,1.459-1.701l0,0c3.159,1.214,6.076,2.917,9.48,4.132
		c-0.243,0.486-0.486,0.729-0.73,1.216C36.553,41.74,33.148,40.525,29.746,39.066z M31.448,36.878
		c1.216-1.457,2.431-2.674,3.646-3.89c1.943,2.433,4.375,3.646,7.049,5.349c1.701,1.215,0.242,0.242-0.485,0
		c-1.216-0.485-2.432-0.972-3.646-1.459c-1.216-0.485-2.674-1.216-3.89-1.7c-0.243,0-0.487,0.243-0.243,0.484
		c1.702,1.946,5.104,4.62,7.292,5.349C37.769,39.795,34.607,38.337,31.448,36.878z M35.581,32.504
		c0.728-0.73,1.457-1.459,2.188-1.946c1.701,2.918,4.617,4.62,7.291,6.32c-1.215-0.485-2.187-1.216-3.401-1.7
		C39.712,34.204,37.769,33.231,35.581,32.504z M38.254,30.073c0.973-0.73,1.945-1.703,2.675-2.433
		c0.484-0.485,0.973-0.729,1.457-1.216v0.244c2.189,1.945,4.377,3.646,6.808,5.104c-2.675-1.216-5.349-2.431-8.022-3.646
		c-0.242,0-0.485,0.243-0.242,0.487c1.7,1.459,3.16,2.916,5.104,4.133C43.359,32.017,40.686,31.045,38.254,30.073z M42.629,26.425
		c0.974-0.728,1.703-1.215,2.675-1.944v0.244c2.674,3.89,8.022,5.833,11.669,8.751c2.432,2.187-0.729-0.244-1.458-0.729
		c-1.216-0.73-2.432-1.459-3.647-1.946C48.949,29.343,46.033,27.884,42.629,26.425C42.873,26.425,42.873,26.425,42.629,26.425z
		 M45.547,24.48c0.486-0.486,0.972-0.729,1.702-1.216c0,0,0,0.244,0.243,0.244c1.944,1.216,3.646,2.674,5.347,3.89
		C50.407,26.425,48.221,25.21,45.547,24.48L45.547,24.48z M47.492,23.022c3.402-2.189,7.049-4.376,10.696-6.078l0,0
		c-0.244,0-0.244,0.487,0,0.487c0.729,0.243,1.457,0.485,2.187,0.972c-0.971-0.244-1.701-0.729-2.674-0.729
		c-0.243,0-0.486,0.242-0.243,0.484c0.243,0.244,0.486,0.487,0.73,0.73c0,0-0.244,0-0.244,0.243
		c-1.214-0.243-2.188-0.486-3.403-0.486c-0.242,0-0.486,0.243-0.242,0.486c0.485,0.486,1.216,0.973,1.944,1.216
		c-0.973-0.243-1.944-0.486-2.917-0.729c-0.487,0-0.487,0.486-0.243,0.486c0.972,0.486,2.188,0.728,3.16,1.215
		c-0.243,1.702,0.729,2.917,2.674,2.917c0.243,0,0.487,0,0.972,0c0.974,0.973,1.945,1.945,2.917,2.674
		c0.243,0.244,0.487,0.244,0.729,0.487l0,0c-0.242,0-0.242-0.243-0.729-0.243c-0.972-0.244-1.943-0.73-2.674-1.217
		c-2.917-1.701-5.833-4.132-8.994-5.347c-0.243-0.243-0.486,0.485-0.243,0.485c4.376,1.702,7.779,5.348,12.154,6.807
		c-0.243,0.243-0.486,0.73-0.729,0.973l0,0c-2.188-1.459-4.618-2.674-7.049-4.132c-1.216-0.73-2.188-1.46-3.403-2.188
		c-0.244-0.243-0.244-0.243-0.486-0.243c-0.486-0.242-0.974-0.486-1.458-0.729c-0.243-0.243-0.729,0.243-0.243,0.487
		c3.403,2.43,7.051,6.076,10.452,7.536C55.757,27.884,51.867,25.453,47.492,23.022L47.492,23.022z M71.315,26.425
		c-0.973-0.486-1.703-0.972-2.432-1.458c-3.404-2.674,0.485-0.973,1.459-0.242c0.242,0,0.242,0.242,0.485,0.242
		c0.972,1.216,2.431,2.188,3.889,3.16l0,0c0,0-0.243,0-0.243-0.243C73.259,27.155,72.287,26.669,71.315,26.425z M71.315,24.48
		L71.315,24.48L71.315,24.48z M67.911,22.536c0.973-0.485,1.701-0.973,2.432-1.459v0.243c0.485,0.973,1.215,1.459,1.944,2.431
		c0,0.243-0.244,0.243-0.244,0.243c-0.485-0.243-1.215-0.729-1.7-0.972c-0.243-0.243-0.486,0.242-0.486,0.486l0,0
		c-0.244-0.244-0.487-0.244-0.73-0.486C68.641,22.779,68.153,22.779,67.911,22.536z M70.343,21.077
		C70.343,21.077,70.343,20.833,70.343,21.077c0.485-0.485,0.973-0.729,1.457-1.215v0.243C73.016,21.563,74.961,23.022,70.343,21.077
		C70.585,21.077,70.343,21.077,70.343,21.077z M72.043,19.619c0.244-0.242,0.73-0.486,0.973-0.729
		c0.974-0.486,1.216,0.243,1.216,0.973C73.502,19.619,72.773,19.619,72.043,19.619L72.043,19.619z M74.231,20.592
		c0,0.241,0,0.729-0.242,0.972C73.502,20.833,73.259,20.349,74.231,20.592z M78.121,26.183c0.242,0.486,0.242,0.729,0.729,0.973
		c0.243,0.243,1.701,1.215,1.944,1.459h-0.243c0,0,0,0-0.243,0c-2.188-0.73-4.376-1.945-6.319-3.161c0,0,0.242-0.243,0-0.243
		c-0.73-0.973-1.459-1.459-2.189-2.431c-0.972-0.973,0.974-0.243,1.946,0c0,0.485,0,0.972,0.243,1.458
		C74.717,25.697,76.42,26.183,78.121,26.183z M81.28,25.938c0.487,0.486,0.974,1.46,1.46,1.702
		c-1.216-0.485-2.188-0.972-3.403-1.458c0.484,0,0.972-0.244,1.943-0.485C81.28,25.697,81.28,25.697,81.28,25.938z M81.768,25.453
		c0.728-0.243,1.458-0.243,2.188-0.243v0.243c0.486,0.972,2.188,2.188,0,1.216C82.983,25.938,82.983,25.938,81.768,25.453z
		 M84.685,24.967c1.458,0,2.431,0,2.188,0.73c0,0.241,0,0.241-0.243,0.241C85.899,25.697,85.414,25.453,84.685,24.967z
		 M86.143,26.669l-0.243,0.242C84.929,25.938,84.929,25.697,86.143,26.669z M84.929,27.398c-0.244,0.242-0.487,0.242-0.974,0.242
		C82.74,26.669,83.955,26.911,84.929,27.398z M82.983,28.127c-0.729,0.243-1.216,0.243-1.703,0.487
		c-0.729-0.73-1.701-1.945-1.943-1.945C80.552,27.155,81.768,27.641,82.983,28.127z M79.337,28.856c-0.73,0.243-1.459,0.243-2.189,0
		c-0.971-0.729-1.943-1.216-3.158-1.945c-0.243-0.242-1.216-0.729-1.946-1.458c0.244,0,0.487,0,0.73,0
		C75.204,26.911,77.147,28.127,79.337,28.856z M69.369,25.938c-0.243,0-0.485,0-0.729,0c0,0,0-0.241-0.243-0.241
		c-1.215-0.73-2.431-1.217-3.646-1.946c0.484-0.242,0.971-0.242,1.457-0.486C67.183,24.237,68.153,25.21,69.369,25.938z
		 M61.591,18.646c-0.729-0.487-1.459-0.972-2.431-1.215c1.215,0.243,2.918,0.485,3.889,0.972
		C63.535,18.646,62.563,18.646,61.591,18.646z M56.973,20.349c-0.487-0.243-0.973-0.486-1.458-0.972
		c0.729,0,1.216,0.242,1.943,0.242C57.458,19.862,57.215,20.105,56.973,20.349z M58.674,18.646c0.243,0,0.486,0.243,0.73,0.243
		c-0.244,0-0.244,0-0.487,0C58.917,18.89,58.917,18.646,58.674,18.646z M63.293,25.21c-0.487-0.243-0.73-0.485-1.215-0.729
		c0.484,0,1.215-0.243,1.7-0.486c0.486,0.73,1.216,1.216,1.701,1.703c0.243,0.241,0.243,0.485,0.487,0.485h-0.244
		C65.236,26.183,63.778,25.21,63.293,25.21z M67.669,25.938c-0.243,0-0.73,0-0.974,0.244c-0.486-0.729-1.216-1.216-1.701-1.945
		C65.479,24.967,66.695,25.453,67.669,25.938z M65.236,26.669c-0.484,0.242-0.972,0.486-1.215,0.729
		c-0.973-0.729-2.188-1.701-3.159-2.674l-0.243-0.244c0.243,0,0.485,0,0.485,0c0.243,0.244,0.729,0.486,0.729,0.486
		C63.293,25.697,64.265,26.183,65.236,26.669z M174.87,105.431c-0.486-0.973-1.214-1.46-1.943-2.188
		c-1.701-1.946,1.457-0.488,2.431-0.243h0.242C175.114,103.484,175.114,104.458,174.87,105.431z M175.843,99.596
		c-0.973-1.216-2.187-1.944-3.402-2.916c-0.487-0.243-0.729-0.487-1.215-0.974c0-0.243,0-0.243,0-0.485
		c0.485,0,0.728,0.242,1.215,0.242c1.216,0.486,2.43,0.729,3.646,1.458C176.086,98.137,176.086,98.866,175.843,99.596z
		 M175.843,100.325c0,0.729-0.243,1.459-0.485,1.944c0,0,0,0,0-0.242c-0.974-1.217-2.188-1.946-3.161-2.917
		c0.73-0.244,1.46-0.244,1.945,0.485C174.627,99.839,175.114,100.081,175.843,100.325L175.843,100.325z M171.468,102.027
		c0.243,0.728,0.973,1.216,1.459,1.943c1.215,1.216-0.73,0.487-1.459,0.244l0,0C171.468,103.484,171.468,102.755,171.468,102.027z
		 M174.627,105.917c-0.243,0.972-0.485,1.943-0.728,2.916c0-0.485,0-0.973-0.487-1.458c-0.485-0.486-0.972-0.974-1.216-1.458
		C171.226,104.215,173.899,105.674,174.627,105.917L174.627,105.917z M173.656,109.806c0,0.243-0.244,0.485-0.244,0.729
		c0,0,0,0,0-0.243l0,0C173.412,110.049,173.412,109.806,173.656,109.806z M172.196,107.375c-0.243-0.486-0.243-0.73-0.243-1.217
		c0.73,0.974,1.459,1.946,0.974,3.161C172.684,108.833,172.44,108.104,172.196,107.375z M171.711,99.354
		c0.485,0.485,0.973,0.972,1.458,1.457c0.487,0.486,2.431,1.944,0,0.974c-0.485-0.243-1.216-0.487-1.701-0.73l0,0
		c0-0.484,0-0.973,0-1.458C171.711,99.596,171.711,99.354,171.711,99.354z M171.468,96.68c0.973,0.728,2.188,1.457,3.159,2.431
		c0.73,0.485,0.73,0.485-0.243,0c-0.484-0.244-0.972-0.73-1.7-0.974c-0.487-0.242-0.73-0.242-1.216-0.485
		C171.711,97.407,171.711,97.165,171.468,96.68z M169.037,92.303c-0.73-0.486-1.216-0.243-1.945,0
		c-1.215-0.729-2.43-1.701-3.646-2.43c-1.458-0.975-1.215-0.975,0.242-0.244c1.216,0.486,2.432,0.973,3.403,1.459
		c2.918,1.459,5.835,3.161,8.994,4.133c0,0.485-0.243,0.972-0.243,1.7c-1.701-0.972-3.402-1.458-5.104-1.944
		C170.738,93.763,170.01,92.789,169.037,92.303z M171.468,59.972c-1.458-0.729-3.161-1.458-4.619-2.674
		c-2.917-2.188,0.73,0.243,1.458,0.486c0.973,0.486,1.703,0.729,2.675,0.973C171.226,59.487,171.226,59.729,171.468,59.972z
		 M164.418,46.358c-1.945-0.972-1.702-0.729-0.243-0.485C164.418,46.116,164.418,46.116,164.418,46.358z M166.12,48.789
		c-0.487-0.242-0.73-0.485-1.215-0.729c-0.73-0.487-1.703-1.215-2.433-1.458c0.974,0.243,1.945,0.486,2.917,0.971
		C165.633,48.061,165.877,48.547,166.12,48.789z M168.551,53.651c-1.702-0.973-3.403-1.701-4.861-2.917
		c-3.404-2.431,0.973-0.487,2.188,0c0.486,0.243,0.972,0.486,1.702,0.729C167.821,52.193,168.307,52.923,168.551,53.651z
		 M170.01,56.569c-1.459-1.215-3.404-1.945-5.104-2.918c-0.73-0.486-1.459-0.729-2.433-1.215c1.459,0.486,2.917,1.215,4.376,1.702
		c0.973,0.485,1.702,0.485,2.674,0.729C169.522,55.597,169.767,56.083,170.01,56.569z M173.169,64.592
		c-1.943-1.459-4.375-2.189-6.32-3.647c-3.646-2.431,1.458-0.243,2.431,0.243c0.974,0.485,2.188,0.73,3.161,0.972
		C172.44,62.889,172.927,63.618,173.169,64.592z M164.418,59.972c2.188,2.431,5.592,3.161,8.266,5.104
		c2.187,1.702-3.89-1.458-2.917-0.972c-0.729-0.243-1.46-0.729-2.188-0.972c-1.216-0.487-2.432-0.974-3.647-1.215
		C164.175,61.188,164.418,60.459,164.418,59.972z M174.142,68.237c-2.916-2.188-6.078-3.404-9.236-5.349
		c-0.974-0.729-1.703-0.971,0.242-0.243c1.458,0.487,2.916,1.216,4.375,1.946c1.216,0.484,2.674,1.215,3.89,1.457
		C173.656,66.778,173.899,67.509,174.142,68.237z M175.114,72.127c-3.646-2.918-8.022-3.89-11.912-6.32
		c-2.43-1.458,0.973-0.73,1.702-0.244c1.459,0.486,2.917,1.216,4.375,1.946c1.702,0.729,3.404,1.457,5.348,2.188
		C174.627,70.425,174.87,71.154,175.114,72.127z M175.843,75.772c-3.89-3.402-8.994-4.618-13.37-7.292
		c-0.729-0.243-4.618-2.432-1.215-0.972c2.188,0.729,4.375,1.7,6.563,2.674c2.432,1.214,5.105,2.188,7.778,3.158
		C175.6,74.07,175.6,74.801,175.843,75.772z M176.33,79.661c-1.946-1.7-4.377-2.431-6.563-3.645
		c-2.431-1.459-4.861-2.676-7.294-4.134c-0.484-0.486-1.215-0.729-1.944-0.972c0.973,0.243,1.703,0.729,2.674,0.972
		c2.188,0.73,4.134,1.216,6.077,2.188c2.188,1.217,4.377,2.189,6.807,2.917C176.086,77.718,176.33,78.69,176.33,79.661z
		 M176.573,83.065c-4.862-3.889-10.94-6.321-16.531-9.479c-3.403-1.946,1.216,0.484,1.946,0.728c1.701,0.73,3.159,1.459,4.86,2.189
		c3.161,1.215,6.32,2.431,9.481,3.889l0,0C176.573,81.12,176.573,82.093,176.573,83.065z M160.042,80.635
		c5.105,3.403,10.453,6.077,16.531,7.536h0.243c0,0.728,0,1.702,0,2.431c-1.946-1.944-4.376-3.161-6.807-4.376
		C166.605,84.524,163.202,82.579,160.042,80.635z M168.307,81.607c-3.159-1.946-6.563-2.917-9.723-4.863
		c-0.242,0-0.242-0.241-0.485-0.241c0.243,0,0.485,0.241,0.729,0.241c1.215,0.486,2.188,0.974,3.404,1.459
		c1.215,0.487,2.431,0.974,3.646,1.458c3.646,1.459,7.292,3.404,11.183,4.377c0,1.216,0,2.431,0,3.646
		C174.142,85.254,171.226,83.309,168.307,81.607z M176.573,94.249c-4.862-3.161-9.481-6.564-14.829-8.995l0,0
		c2.918,1.458,5.835,2.431,8.751,3.889c1.945,0.973,3.889,1.702,6.078,2.189c0,0,0,0,0.243,0
		C176.816,92.303,176.573,93.275,176.573,94.249z M164.662,93.275c-0.73-0.486,0.485-0.486,1.458-0.486
		c-0.487,0.243-0.973,0.729-1.215,0.974c-0.974,0.728-1.459,0.486-1.946-0.244c0.487,0.244,0.973,0.244,1.459,0.244
		C164.662,94.006,164.905,93.519,164.662,93.275z M161.988,89.143c0.971,0.973,2.187,1.702,3.401,2.431c2.189,1.459-0.972,0-2.431,0
		c-0.243,0-0.486,0.243-0.243,0.486c0.73,0.973,0.974,0.973-0.243,0.729C162.231,91.573,162.231,90.115,161.988,89.143z
		 M161.744,85.983c3.889,2.915,8.751,5.349,12.883,8.022c3.161,1.943-2.431-0.974-2.431-0.974c-1.215-0.485-2.187-1.216-3.402-1.7
		c-2.188-1.217-4.376-2.189-6.806-2.919C161.988,87.44,161.988,86.712,161.744,85.983z M160.528,81.364
		c2.188,1.458,4.377,2.917,6.808,4.133c2.674,1.458,6.563,2.674,8.507,4.861c0.487,0.486-3.89-1.216-3.89-1.216
		c-0.972-0.485-1.943-0.972-2.916-1.458c-2.432-1.216-4.862-1.945-7.293-2.918c0-0.485-0.243-0.972-0.243-1.458
		C161.258,82.579,160.772,81.851,160.528,81.364z M156.396,76.017c5.349,3.645,11.668,5.834,17.017,9.723
		c3.889,2.918,1.458,1.459-0.485,0.729c-2.188-0.729-4.133-1.702-6.321-2.431c-2.674-1.216-5.104-3.16-8.021-4.133
		c-0.242,0-0.242,0-0.242,0C157.611,78.934,156.396,77.475,156.396,76.017z M156.639,75.287c0-0.243,0.245-0.729,0.486-0.974
		c0.243-0.243,0.729-0.728,0.974-1.215c2.916,1.702,5.833,3.404,8.993,5.104c1.459,0.73,3.161,1.458,4.619,2.432
		c1.216,0.729,2.916,2.188,4.132,2.674C169.279,81.12,163.202,77.475,156.639,75.287z M158.584,72.37
		c0.243-0.73,0.486-1.459,0.243-2.188c-0.485-1.217-0.485-2.432-0.243-3.404c4.618,3.404,10.453,4.618,15.072,8.022
		c4.132,2.917-0.487,0.486-1.703-0.243c-1.458-0.729-3.159-1.459-4.617-2.188c-2.431-1.216-5.348-1.703-7.778-2.674
		c-0.244,0-0.487,0.243-0.244,0.486c4.618,3.888,10.696,5.59,15.557,8.994c1.946,1.215-1.701-0.729-1.943-0.974
		c-2.188-0.973-4.376-1.7-6.563-2.674C163.446,74.313,161.015,73.099,158.584,72.37z M158.827,66.049
		c0.243-0.729,0.73-1.216,1.458-1.7c3.89,3.16,8.752,4.132,12.642,6.806c3.89,2.675,0,0.485-1.216,0
		c-1.701-0.729-3.404-1.458-5.105-2.188C164.175,67.993,161.501,66.778,158.827,66.049z M161.015,63.861
		c0.243,0,0.486-0.243,0.729-0.243c0.729-0.243,1.215-0.485,1.702-1.216c1.701,1.216,3.402,2.189,5.348,3.16
		c0.973,0.486,2.188,1.216,3.159,1.703c0.487,0.243,3.646,2.187,0.73,0.972C169.037,66.778,165.39,64.592,161.015,63.861z
		 M162.716,53.165c1.702,0.974,3.647,1.702,5.348,2.675c0.73,0.485,1.459,0.973,2.189,1.701c0,0.243,0.242,0.487,0.242,0.973
		c-0.973-0.485-1.944-0.729-2.916-1.459c-0.974-0.485-1.946-0.972-3.161-1.215c-0.243,0-0.486,0.243-0.243,0.485
		c2.188,1.703,5.104,4.134,7.778,5.105l0,0c-2.431-0.729-4.861-1.702-7.535-2.432c0-0.971-0.243-1.944-0.486-2.674
		C163.689,55.354,163.202,54.381,162.716,53.165z M161.501,49.276c1.215,1.944,3.404,2.674,5.348,3.889
		c3.404,1.945,0,0.486-1.944-0.242c-0.973-0.486-1.702-0.729-2.673-0.973C161.744,50.978,161.501,50.247,161.501,49.276z
		 M161.258,46.603c1.701,1.215,3.404,1.944,5.348,3.16c0.243,0.241,0.243,0.484,0.486,0.729c-1.215-0.487-2.188-0.972-3.403-1.458
		c-0.729-0.486-1.457-0.486-2.431-0.729l0,0c0-0.243,0-0.73,0-0.974C161.258,47.089,161.258,46.846,161.258,46.603z M161.744,42.469
		c0.729,0.974,1.215,1.946,1.945,2.675c-0.73-0.244-1.217-0.244-1.945-0.486c-0.243,0-0.486,0.242-0.243,0.486
		c0.73,0.486,1.215,0.973,1.945,1.215c-0.73-0.242-1.458-0.485-2.188-0.485C161.501,44.657,161.744,43.685,161.744,42.469z
		 M76.177,163.771c-33.304-7.536-59.558-34.762-63.447-68.551c0-0.244,0.242-0.244,0.242-0.487c0.974-4.86,2.189-8.75,5.835-12.154
		c2.674-2.188,4.862-4.618,6.32-7.778c1.702-3.161,3.403-8.266,6.807-9.968c2.917-1.458,0.243,4.133,0.486,3.647
		c-0.243,0.485-0.729,1.216-0.972,1.702c-0.73,0.972-1.458,1.944-2.188,2.916c-1.944,2.918-4.619,6.078-3.403,9.724
		c0.729,2.675,4.861,4.133,7.292,4.376c2.674,0.486,6.563,0.973,8.51-1.215c1.701-2.188,1.944-4.619,1.944-7.293
		c0-4.133-0.486-10.21,1.944-13.857c2.431,0,3.16,0.974,2.431,2.676c0,0.242-0.244,0.729-0.244,0.972
		c-0.484,1.216-0.971,2.431-1.457,3.646c-0.729,1.702-1.701,3.402-1.944,5.348c-0.487,2.674,0.243,5.834-0.729,8.265
		c-0.974,2.432-2.917,3.89-4.133,6.077c-1.216,2.433-1.701,5.349-0.486,7.779c2.918,5.591,9.966,6.078,14.828,9.479
		c4.377,3.161,1.459,8.023,4.133,12.155c2.188,3.404,5.591,5.105,8.994,6.807c5.349,2.431,10.209,4.861,14.829,8.266
		c3.402,2.431,7.051,4.86,11.182,5.591c4.376,0.729,8.752-0.242,10.695-4.862c1.946-4.862,1.217-10.452,0.243-15.558
		c-0.728-2.917-1.458-5.591-2.431-8.265c-1.215-3.403-4.375-7.292-4.132-10.939c0.242-2.674,0.972-5.104,0.487-7.779
		c-0.245-1.943-0.973-3.646-1.703-5.348c-1.7-4.376-4.133-10.452,1.216-13.37c6.563-3.646,18.474-1.943,22.121-9.724
		c7.535-15.558-14.585-31.358-27.47-34.275c-3.889-0.973-8.021-1.216-11.668,0.243c-3.404,1.215-5.835,3.889-8.021,6.563
		c-3.403,3.89-6.808,7.294-11.668,9.725c-4.134,1.943-8.509,3.646-12.642,5.835l0,0c-2.431-1.702-2.674-3.161-0.729-3.892
		c0.243,0,0.484-0.243,0.729-0.243c2.188-0.971,5.592-2.187,5.592-5.104c0-1.943-0.73-3.645-3.162-3.402
		c-2.915,0.243-4.374,3.16-6.805,4.376c-3.16,1.457-1.217-2.674-0.729-3.16c0.729-0.729,1.459-1.458,2.187-1.944
		c1.459-0.974,3.161-1.702,4.863-2.189c2.674-0.486,4.861,4.134,7.778,1.946c3.403-2.674,3.161-7.537,6.32-10.211
		c3.161-2.917,6.321-2.188,9.725,0c0.971,0.73,2.431,1.459,3.645,1.216c2.675,0,6.32-0.973,8.752-2.188
		c3.891-1.945,4.132-7.292-0.973-6.807c-2.43,0.243-5.104,1.458-7.535,1.458c-2.674-0.243-0.73-2.674-0.972-4.132
		c-0.243-1.216-0.486-2.188-1.459-2.918c-2.188-2.187-5.592,1.945-7.293,2.918c-2.188,1.215-5.349,2.674-8.022,2.431
		c-0.243-1.216,0.243-1.701,1.216-1.216c0.243,0,0.486,0,0.729,0c0.485,0,1.215,0.243,1.944,0c1.458-0.485,3.404-2.431,1.701-3.889
		c-0.971-0.973-2.187-1.459-3.646-1.703c26.74-10.938,58.585-8.021,82.408,9.239c5.834,4.132,10.938,9.237,15.315,14.584
		c0,3.16-0.73,6.078-0.73,9.238c0,1.944,1.215,4.132,1.945,5.834c0.972,2.188,2.187,6.078-0.974,7.05
		c-0.729,0.242-0.972,0.487-1.7,0.729c-1.215,0.729-1.945,1.945-2.188,3.403c-0.486,1.216,0,3.161,0.485,4.377
		c0.488,1.7-1.215,2.431-1.944,3.646c-1.457,2.431,0.486,5.833,2.188,7.778c2.432,2.674,2.919,4.861,3.16,8.265
		c0,1.703,0.243,3.16,0.729,4.62c0.486,1.943,2.431,2.916,4.377,2.431c0.728-0.243,1.7-0.974,2.187-1.459
		c2.431-2.188,2.431,2.916,2.188,4.618c-0.242,1.945-0.485,4.132,0,6.078c0.73,2.674,2.188,5.104,2.432,7.778
		c0,0.243,0.242,0.485,0.242,0.728c-0.972,2.189-1.943,4.377-2.916,6.564C152.021,154.534,112.64,172.037,76.177,163.771z
		 M125.523,162.313c0.973-0.484,1.945-0.729,2.917-1.215c0.729,1.944,2.188,3.404,3.161,5.105c0.973,1.458,4.374,5.834,3.159,7.536
		C132.087,177.871,126.981,166.203,125.523,162.313z M98.783,176.17c0,0.485,0.243,1.215,0.487,1.701
		c-2.674-0.486-5.104-0.972-7.778-1.701c2.187,0,4.132,0,6.32,0C98.055,176.17,98.297,176.17,98.783,176.17z M88.818,181.03
		c2.915,1.218,5.833,2.431,8.507,3.647c1.215,0.486,2.431,1.215,3.646,1.701c0.243,0.243,0.486,0.243,0.73,0.243
		c-0.244,0-0.244,0-0.487-0.243c-4.374-1.215-8.751-2.674-12.883-4.131C88.331,182.004,88.574,181.274,88.818,181.03
		C88.818,180.788,88.818,181.03,88.818,181.03z M88.088,182.976c2.431,1.216,5.104,2.432,7.778,3.403
		c1.946,0.729,4.62,2.43,6.807,2.674l0,0c-5.105-0.244-10.21-2.188-15.072-3.403l0,0C87.601,184.919,87.845,183.948,88.088,182.976z
		 M83.955,196.346c8.021,5.104,17.502,7.05,26.254,10.209c5.104,1.703,9.967,3.89,15.071,5.593c4.619,1.458,10.211,3.889,14.1,4.862
		c-11.183-2.432-21.878-6.321-32.818-9.968c-5.348-1.702-10.452-3.403-15.8-4.619c-1.943-0.485-3.89-0.729-6.077-1.216
		c-2.917-0.973-5.834-2.187-8.752-3.402C78.606,197.317,81.28,196.832,83.955,196.346z M74.717,198.048
		c2.918,1.701,6.078,2.674,9.238,3.402c1.702,0.73,3.646,1.216,5.348,1.945c5.106,1.701,9.968,3.403,15.072,5.349
		c5.348,1.944,10.696,3.646,16.044,5.348c2.674,0.972,5.348,1.7,8.021,2.675c1.216,0.485,2.674,0.971,3.89,1.456
		c-0.972-0.242-1.702-0.485-2.674-0.728c-10.696-1.946-20.905-6.077-31.359-9.481c-9.723-3.159-19.69-6.319-29.656-8.508
		C70.585,199.021,72.53,198.533,74.717,198.048z M67.183,199.749C67.183,199.749,67.426,199.749,67.183,199.749
		c9.965,2.917,19.202,7.05,28.684,10.695c4.62,1.703,9.48,3.404,14.343,4.619c2.188,0.485,4.375,1.216,6.563,1.946
		c0.729,0.242,6.077,2.187,2.188,1.213c-4.861-1.213-9.48-3.159-14.342-4.374c-4.619-1.216-9.237-2.674-13.613-4.133
		c-9.237-3.402-18.475-6.32-27.956-8.751C64.509,200.479,65.723,199.991,67.183,199.749z M53.812,204.124
		c2.432,1.216,4.862,1.945,7.536,2.675c3.646,1.215,7.05,3.646,10.695,5.104c3.646,1.46,7.294,2.919,11.183,4.377
		c-3.404-0.973-6.563-2.188-9.967-3.161c-7.779-2.187-15.314-5.833-23.093-8.021C51.138,204.854,52.597,204.611,53.812,204.124z
		 M46.276,207.285c7.05,5.104,15.802,6.563,23.336,11.182c0.73,0.486,1.945,1.459,2.675,1.702c-1.459-0.487-2.675-0.729-4.134-1.216
		c-2.187-0.73-4.375-1.701-6.563-2.674c-3.89-1.701-8.021-2.674-11.911-3.89c-0.243,0-0.486-0.242-0.486-0.242
		c-1.944-0.973-3.646-1.946-5.591-2.919l0,0C44.089,208.258,45.06,207.771,46.276,207.285z M39.955,212.39
		c2.674,2.432,6.078,3.89,9.481,5.348l0,0c-1.216-0.242-2.431-0.728-3.646-1.215c-1.945-0.73-4.132-1.701-6.078-2.431H39.47
		c-0.243-0.486-0.243-0.729,0.242-1.217C39.712,212.633,39.712,212.39,39.955,212.39z M41.413,212.633
		c0.973,0.485,2.189,0.729,3.162,0.973c5.591,1.701,11.425,3.404,16.772,5.834c-3.159-0.243-6.32-0.729-9.48-1.217
		c0-0.242,0-0.242,0-0.485c-2.674-1.215-5.349-2.188-8.022-3.646c-0.729-0.243-1.216-0.729-1.943-1.217
		C41.901,212.875,41.658,212.633,41.413,212.633z M51.623,213.118c1.46,0.487,2.918,0.974,4.377,1.46
		c4.862,1.701,9.479,3.889,14.1,5.348c-2.188,0-4.62-0.244-6.807-0.486c0,0,0,0-0.244,0c0-0.243-0.243-0.243-0.486-0.243
		C59.16,217.01,55.271,215.063,51.623,213.118z M82.983,220.169c-12.641-2.917-24.066-8.51-35.978-13.37
		c0.972-0.485,1.701-0.729,2.674-1.215c0,0,0,0.243,0.243,0.243c6.32,2.917,12.64,5.591,18.96,8.021
		c2.917,1.215,5.591,2.188,8.508,3.403C79.094,218.223,81.038,219.196,82.983,220.169c0.728,0,0.972,0.243,1.215,0.243l0,0
		C83.955,220.412,83.469,220.412,82.983,220.169z M63.049,207.042c7.536,2.674,15.072,5.105,22.851,7.291
		c4.375,1.216,8.51,2.677,12.884,4.377c1.459,0.486,3.161,1.216,4.62,1.459c-2.674,0-5.106,0.243-7.779,0.243
		c-8.752-3.16-17.503-6.32-25.768-10.211C67.426,209.229,65.236,208.014,63.049,207.042z M108.265,220.169
		c-6.32-4.133-14.099-5.591-21.393-8.021c-4.377-1.459-8.994-2.919-13.37-4.377c-2.674-0.972-5.104-1.943-7.779-3.159
		c-1.701-0.73-3.403-1.945-5.104-2.188c8.75,1.701,17.016,6.078,25.523,8.995c8.751,3.16,17.502,5.834,26.497,8.508
		C111.182,219.926,109.723,219.926,108.265,220.169z M114.584,219.682c-7.779-4.133-16.771-5.833-25.038-8.75
		c-4.861-1.703-9.725-3.646-14.585-5.348c-2.674-0.973-5.104-1.703-7.778-2.674c-0.73-0.244-3.89-1.216-3.647-1.216
		c0.974,0.243,1.944,0.485,2.674,0.729c10.211,2.674,19.934,6.563,29.9,9.725c4.861,1.458,9.968,2.674,14.829,4.375
		c3.402,1.215,6.807,2.431,10.452,2.917C119.203,219.439,116.772,219.682,114.584,219.682z M113.369,219.926L113.369,219.926
		c-4.134-2.188-9.481-3.159-14.099-4.619c-4.861-1.458-9.481-3.159-14.342-4.862c-2.188-0.729-4.377-1.7-6.565-2.674
		c3.161,1.215,6.565,2.188,9.725,3.404C96.353,214.092,105.591,215.792,113.369,219.926z M60.375,201.694
		c0.487-0.244,0.973-0.244,1.703-0.487l0,0c0.971,0.487,2.187,0.974,3.158,1.459C63.778,202.423,62.078,201.938,60.375,201.694z
		 M140.353,217.01c-4.377-2.188-8.994-3.647-13.856-5.107c-4.619-1.458-9.237-3.645-13.856-5.104
		c-8.265-2.918-17.016-4.861-25.039-8.751c0.73,0.242,1.459,0.485,2.188,0.973c2.188,0.729,4.377,1.459,6.563,2.187
		c4.861,1.459,9.725,2.917,14.586,4.377c4.86,1.215,9.48,2.674,14.342,3.889c6.321,1.945,12.642,4.133,18.718,6.807
		C143.026,216.522,141.568,216.767,140.353,217.01z M84.929,196.103c0.241,0,0.485,0,0.485,0c0.243,0,0.243,0.243,0.485,0.243
		c1.459,0.244,3.16,0.244,4.619,0.486c0,0.243,0.486,0.243,0.729,0.243c6.807,3.159,13.855,5.835,20.906,8.265
		C103.16,202.423,93.923,199.749,84.929,196.103z M102.673,188.809c-2.187-0.971-4.376-1.7-6.563-2.674
		c-1.216-0.485-2.674-0.971-3.89-1.7c3.404,1.215,6.807,2.431,10.453,3.161C102.43,187.838,102.43,188.323,102.673,188.809z
		 M98.297,196.346c4.863,2.431,9.968,4.134,15.072,5.834c-6.808-1.945-13.855-3.159-20.662-5.59
		C94.651,196.59,96.597,196.346,98.297,196.346z M87.115,191.727c1.216,0.729,2.674,1.217,4.133,1.945c-0.243-0.243-2.674,0-2.917,0
		s-0.243,0.244-0.243,0.485c-0.243,0-0.243,0-0.487,0C87.115,193.186,87.115,192.456,87.115,191.727z M88.088,191.485
		c1.945,0.241,3.889,0.484,6.078,0.971c1.943,0.487,3.646,0.973,5.59,1.216c-2.431,0.244-4.619,0.485-7.049,0.485
		c0.242,0,0.242-0.485,0-0.485C91.492,193.186,89.303,191.727,88.088,191.485z M95.866,191.727
		c-1.457-0.241-2.674-0.729-4.133-1.215c0.243,0-4.861-1.459-1.7-0.973c4.133,0.973,8.021,2.674,12.154,2.917
		c0,0.244-0.243,0.487-0.243,0.729c0,0.243,0,0.243,0,0.486C100.242,192.7,98.055,192.213,95.866,191.727z M102.673,191.242
		c-2.187-0.73-4.133-1.46-6.32-2.189l0,0c2.188,0.486,4.134,0.974,6.32,0.974C102.673,190.512,102.673,190.755,102.673,191.242z
		 M92.463,181.518c1.216,0.243,2.431,0.73,3.403,0.971c1.701,0.487,3.647,0.973,5.348,1.46c0.243,0.729,0.487,1.459,0.73,2.431
		c-3.404-1.701-7.051-3.403-10.452-4.861C88.574,180.059,91.977,181.518,92.463,181.518z M100.971,182.976
		c-2.916-1.701-6.319-2.431-9.237-3.889c2.189,1.215,5.834,1.701,8.753,2.188C100.486,181.761,100.729,182.248,100.971,182.976z
		 M99.756,179.815c-1.943-0.972-4.132-1.459-6.077-2.431c-0.243,0-0.243-0.244-0.486-0.244c0.486,0.244,0.974,0.244,1.459,0.487
		c1.701,0.243,3.161,0.729,4.862,0.972C99.514,178.844,99.514,179.33,99.756,179.815z M139.137,207.042
		c-7.05-2.674-14.342-4.619-21.635-6.563c-5.104-1.216-9.967-3.162-15.072-4.62c0.243,0,0.486,0,0.73,0
		c5.348,1.701,10.938,2.188,16.286,3.404C126.254,201.207,133.302,203.396,139.137,207.042z M146.429,213.362
		c-14.099-6.808-29.899-9.481-44.241-16.045c-0.73-0.242-1.701-0.728-2.432-1.215c0.486,0,0.73,0,1.215,0
		c0.73,0.243,1.217,0.243,1.945,0.487c3.889,1.215,7.778,2.916,11.912,3.89c8.508,2.187,17.016,4.375,25.28,7.534
		c0.244,0,0.244,0,0.244-0.243c0.243,0.243,0.486,0.487,0.972,0.73C141.812,208.985,145.213,211.659,146.429,213.362z
		 M135.248,209.229c2.431,0.973,5.104,1.946,7.535,2.919c0.729,0.242,1.459,0.728,2.188,0.971
		c-6.806-2.187-13.369-4.86-20.176-7.534C128.197,206.799,131.844,208.014,135.248,209.229z M146.673,215.063
		c-0.486,0.243-0.973,0.485-1.702,0.729c-5.348-2.43-10.695-4.374-16.043-6.076c-2.674-0.972-5.592-1.702-8.266-2.674
		c-8.508-2.674-17.018-5.348-25.281-8.994c0.729,0.242,1.216,0.485,1.944,0.485c2.188,0.73,4.619,1.216,6.806,1.946
		c5.104,1.215,10.21,2.431,15.072,3.889c9.237,3.159,18.231,7.291,27.713,9.968C146.916,214.578,146.916,214.821,146.673,215.063z
		 M133.789,217.98L133.789,217.98c-9.724-3.889-19.69-6.563-29.414-9.967c-5.104-1.944-10.452-3.646-15.557-5.348
		c5.348,1.215,10.695,2.918,16.043,4.619c11.182,3.646,22.363,7.536,33.788,10.21C137.191,217.737,135.491,217.98,133.789,217.98z
		 M124.551,218.953c-0.485,0-0.971,0-1.215,0c0,0,0-0.243-0.243-0.243c-8.994-4.132-19.205-5.835-28.441-9.481
		c-5.349-2.187-10.94-4.374-16.288-6.563c-1.459-0.485-2.674-0.972-4.132-1.459c10.21,2.674,20.42,5.835,30.387,9.481
		c8.751,3.16,17.502,6.078,26.74,7.534C129.17,218.467,126.981,218.71,124.551,218.953z M85.17,220.656
		c-5.104-2.919-10.938-4.864-16.286-7.051c-4.132-1.703-8.265-3.161-12.153-5.104c-0.73-0.243-1.46-0.73-2.432-0.974
		c6.563,2.432,13.127,4.862,19.933,7.051c6.563,1.944,12.884,4.132,19.447,6.078C91.005,220.656,88.088,220.656,85.17,220.656z
		 M74.717,220.412c-0.485,0-0.971,0-1.458,0c-3.89-3.16-8.507-5.105-13.37-6.807c-2.916-1.216-5.834-2.188-8.751-3.646
		c-1.458-0.73-2.674-1.458-3.889-2.432c1.215,0.73,2.431,1.458,3.646,1.945c5.349,2.43,10.453,4.376,16.044,6.319
		c4.861,1.703,9.725,3.647,14.586,4.864C79.337,220.412,77.147,220.412,74.717,220.412z M39.955,214.821
		c2.431,0.971,4.862,1.945,7.537,2.916C44.575,217.01,41.171,216.036,39.955,214.821z M42.873,209.229
		C42.873,209.473,42.873,209.473,42.873,209.229c1.459,1.216,2.917,1.946,4.376,2.431c1.215,0.488,2.431,1.216,3.646,1.703
		c3.16,1.459,6.32,2.917,9.48,4.86c-0.486-0.242-1.215-0.485-1.701-0.728c-1.943-0.729-4.133-1.459-6.32-2.188
		c-3.89-1.215-8.021-2.432-11.911-3.889C41.171,210.688,41.901,209.959,42.873,209.229z M57.215,202.91
		c0.729-0.244,1.459-0.487,2.189-0.73l0,0c8.265,4.375,17.016,7.293,26.01,10.21c3.889,1.216,7.535,2.188,11.426,3.402
		c2.187,0.73,4.617,1.46,6.563,2.431c0.728,0.244,2.431,1.459,3.401,1.946c-0.243,0-0.486,0-0.971,0
		c-4.133-0.487-8.021-2.432-11.911-3.89c-4.62-1.701-9.238-2.917-13.857-4.132c-8.508-2.432-16.772-5.593-25.281-8.752
		C55.757,203.396,56.485,203.153,57.215,202.91z M87.358,186.379c2.431,0.974,5.104,1.944,7.778,2.674
		c2.188,0.729,5.105,2.189,7.536,2.433l0,0c-4.86-0.243-9.48-2.677-14.342-3.162c-0.243,0-0.486,0.485-0.243,0.485
		c3.889,2.434,8.509,2.918,12.642,4.377c0.241,0,0.241,0,0.484,0.243h-0.243c-0.972-0.243-2.674-0.729-2.916-0.729
		c-1.215-0.244-2.431-0.487-3.646-0.974c-2.433-0.484-4.863-0.972-7.294-0.972C86.872,189.539,87.115,187.838,87.358,186.379z
		 M90.274,176.17L90.274,176.17c0,0.243,0,0.243,0.244,0.485c3.16,1.459,6.807,2.188,9.724,3.89l0,0
		c-1.216-0.486-3.402-0.729-4.618-0.971c-1.701-0.487-3.161-0.73-4.862-0.975c-0.243,0-0.487,0.487-0.243,0.487
		c1.701,0.972,3.404,1.458,5.105,2.188c1.701,0.486,3.646,1.944,5.105,2.187c-3.89-0.973-7.78-2.431-11.911-2.916c0,0,0,0-0.244,0
		C89.303,179.087,89.789,177.628,90.274,176.17z M8.841,56.569c4.374-10.939,9.966-21.635,18.23-30.145
		c7.779-8.266,17.261-13.856,27.47-18.961c0.974,2.432,2.917,5.104,4.376,6.807C30.233,27.398,10.541,55.354,10.298,87.44
		c0.243,38.896,29.901,72.198,67.823,79.248c15.314,2.918,31.114,1.702,45.459-3.402c0.485,1.459,1.457,3.646,2.43,5.833
		c-9.237,4.132-20.419,4.862-30.386,5.104c-8.266,0-16.53-0.484-24.552-2.431c-26.255-6.076-49.105-21.877-60.287-46.673
		C0.819,103.243-0.397,79.177,8.841,56.569z"/>
</g>
</svg>
