<?xml version="1.0" encoding="utf-8"?>
<!-- Generator: Adobe Illustrator 16.0.0, SVG Export Plug-In . SVG Version: 6.00 Build 0)  -->
<!DOCTYPE svg PUBLIC "-//W3C//DTD SVG 1.1//EN" "http://www.w3.org/Graphics/SVG/1.1/DTD/svg11.dtd">
<svg version="1.1" id="Layer_1" xmlns="http://www.w3.org/2000/svg" xmlns:xlink="http://www.w3.org/1999/xlink" x="0px" y="0px"
	 width="30px" height="30px" viewBox="0 0 30 30" enable-background="new 0 0 30 30" xml:space="preserve">
<path fill="#808285" d="M12.803,23.969c0,2.2-1.359,3.938-5.208,4.078C5.34,26.764,3.45,24.913,2.12,22.689
	c0.694-1.714,2.862-3.02,5.341-2.992c0.704,0.008,1.36,0.121,1.956,0.314c1.638,1.138,2.959,1.85,3.291,3.147
	C12.769,23.421,12.803,23.692,12.803,23.969L12.803,23.969z M15,0C10.666,0,6.762,1.839,4.023,4.778
	c1.082-0.599,2.36-0.956,3.718-0.956c1.965,0,7.513,0,7.513,0l-1.679,1.762h-1.972c1.392,0.797,2.131,2.438,2.131,4.249
	c0,1.66-0.92,2.999-2.22,4.015c-1.268,0.99-1.508,1.405-1.508,2.248c0,0.719,1.515,1.79,2.212,2.313
	c2.426,1.82,2.917,2.965,2.917,5.24c0,2.307-2.02,4.603-5.445,5.384C11.341,29.657,13.13,30,15,30c8.284,0,15-6.716,15-15
	C30,6.717,23.284,0,15,0L15,0z M22.5,11.25V15h-1.875v-3.75h-3.75V9.375h3.75v-3.75H22.5v3.75h3.75v1.875H22.5z M10.716,9.945
	c0.349,2.659-0.815,4.371-2.839,4.311c-2.025-0.061-3.949-1.918-4.299-4.577C3.229,7.02,4.586,4.983,6.611,5.045
	C8.635,5.105,10.367,7.287,10.716,9.945L10.716,9.945z M6.472,18.811c-2.188,0-4.047,0.755-5.357,1.871C0.397,18.929,0,17.011,0,15
	c0-1.663,0.271-3.263,0.771-4.758c0.216,2.913,2.267,5.161,5.654,5.161c0.249,0,0.491-0.013,0.729-0.029
	c-0.233,0.446-0.399,0.943-0.399,1.464c0,0.878,0.482,1.379,1.08,1.961C7.383,18.799,6.948,18.811,6.472,18.811L6.472,18.811z"/>
</svg>
