<svg xmlns="http://www.w3.org/2000/svg" width="30" height="30" viewBox="0 0 30 30"><path fill="#808285" d="M12.803 23.969c0 2.2-1.359 3.938-5.208 4.078-2.255-1.283-4.145-3.134-5.475-5.358.694-1.714 2.862-3.02 5.341-2.992.704.008 1.36.121 1.956.314 1.638 1.138 2.959 1.85 3.291 3.147.061.263.095.534.095.811zM15 0C10.666 0 6.762 1.839 4.023 4.778c1.082-.599 2.36-.956 3.718-.956h7.513l-1.679 1.762h-1.972c1.392.797 2.131 2.438 2.131 4.249 0 1.66-.92 2.999-2.22 4.015-1.268.99-1.508 1.405-1.508 2.248 0 .719 1.515 1.79 2.212 2.313 2.426 1.82 2.917 2.965 2.917 5.24 0 2.307-2.02 4.603-5.445 5.384 1.651.624 3.44.967 5.31.967 8.284 0 15-6.716 15-15 0-8.283-6.716-15-15-15zm7.5 11.25V15h-1.875v-3.75h-3.75V9.375h3.75v-3.75H22.5v3.75h3.75v1.875H22.5zM10.716 9.945c.349 2.659-.815 4.371-2.839 4.311-2.025-.061-3.949-1.918-4.299-4.577-.349-2.659 1.008-4.696 3.033-4.634 2.024.06 3.756 2.242 4.105 4.9zm-4.244 8.866c-2.188 0-4.047.755-5.357 1.871C.397 18.929 0 17.011 0 15c0-1.663.271-3.263.771-4.758.216 2.913 2.267 5.161 5.654 5.161.249 0 .491-.013.729-.029-.233.446-.399.943-.399 1.464 0 .878.482 1.379 1.08 1.961-.452 0-.887.012-1.363.012z"/></svg>