<svg xmlns="http://www.w3.org/2000/svg" width="30" height="30" viewBox="0 0 30 30"><path fill="#808285" d="M12.33 15c0-.31.06-.6.15-.88h5.04c.091.28.15.57.15.88 0 1.47-1.2 2.67-2.67 2.67s-2.67-1.2-2.67-2.67zM20.25 10.19v.87c0 .24-.2.44-.44.44h-.87c-.24 0-.44-.2-.44-.44v-.87c0-.24.2-.44.44-.44h.869c.241 0 .441.2.441.44z"/><path fill="#808285" d="M18.88 14.12h1.37v5.26c0 .48-.39.87-.87.87h-8.76c-.48 0-.87-.39-.87-.87v-5.26h1.37c-.06.29-.1.58-.1.88 0 2.19 1.79 3.98 3.98 3.98s3.98-1.79 3.98-3.98c0-.3-.03-.59-.1-.88z"/><path fill="#808285" d="M15 0C6.72 0 0 6.72 0 15c0 8.28 6.72 15 15 15 8.28 0 15-6.72 15-15 0-8.28-6.72-15-15-15zm7 19.68c0 1.28-1.05 2.32-2.32 2.32h-9.36C9.05 22 8 20.96 8 19.68v-9.36C8 9.04 9.05 8 10.32 8h9.36C20.95 8 22 9.04 22 10.32v9.36z"/></svg>