<?xml version="1.0" encoding="utf-8"?>
<!-- Generator: Adobe Illustrator 16.0.0, SVG Export Plug-In . SVG Version: 6.00 Build 0)  -->
<!DOCTYPE svg PUBLIC "-//W3C//DTD SVG 1.1//EN" "http://www.w3.org/Graphics/SVG/1.1/DTD/svg11.dtd">
<svg version="1.1" id="Layer_1" xmlns="http://www.w3.org/2000/svg" xmlns:xlink="http://www.w3.org/1999/xlink" x="0px" y="0px"
	 width="30px" height="30px" viewBox="0 0 30 30" enable-background="new 0 0 30 30" xml:space="preserve">
<path fill="#808285" d="M12.33,15c0-0.31,0.06-0.6,0.15-0.88h5.04c0.091,0.28,0.15,0.57,0.15,0.88c0,1.47-1.2,2.67-2.67,2.67
	C13.53,17.67,12.33,16.47,12.33,15z"/>
<path fill="#808285" d="M20.25,10.19v0.87c0,0.24-0.2,0.44-0.44,0.44H18.94c-0.24,0-0.44-0.2-0.44-0.44v-0.87
	c0-0.24,0.2-0.44,0.44-0.44h0.869C20.05,9.75,20.25,9.95,20.25,10.19z"/>
<path fill="#808285" d="M18.88,14.12h1.37v5.26c0,0.48-0.39,0.87-0.87,0.87h-8.76c-0.48,0-0.87-0.39-0.87-0.87v-5.26h1.37
	c-0.06,0.29-0.1,0.58-0.1,0.88c0,2.19,1.79,3.98,3.98,3.98c2.19,0,3.98-1.79,3.98-3.98C18.98,14.7,18.95,14.41,18.88,14.12z"/>
<path fill="#808285" d="M15,0C6.72,0,0,6.72,0,15c0,8.28,6.72,15,15,15c8.28,0,15-6.72,15-15C30,6.72,23.28,0,15,0z M22,19.68
	c0,1.28-1.05,2.32-2.32,2.32h-9.36C9.05,22,8,20.96,8,19.68v-9.36C8,9.04,9.05,8,10.32,8h9.36C20.95,8,22,9.04,22,10.32V19.68z"/>
</svg>
