<svg xmlns="http://www.w3.org/2000/svg" width="80" height="80" viewBox="0 0 80 80"><path d="M22.367 24.77384c-.19.007-.366.09-.499.227-1.464 1.522-3.031 3.004-4.276 4.337-.05.083-.087.189-.091.271-.012.309.22.476.359.667 11.217 11.148 23.221 23.228 33.015 33.02.274.274.72.272.994 0 1.381-1.382 2.763-2.763 4.144-4.144.274-.274.275-.72.002-.994l-8.15-8.15c-.333-.334-.785-.485-1.117-.151-1.27 1.275-2.569 2.569-3.66 3.66l-15.584-15.584c1.217-1.202 2.424-2.449 3.646-3.63.072-.068.124-.153.164-.244.146-.334-.039-.645-.297-.902l-8.016-8.016c-.186-.186-.371-.37-.634-.363v-.004zm-.003 1.717l7.293 7.296-3.146 3.147-7.295-7.294 3.148-3.149zm24.864 24.868l7.294 7.295-3.147 3.147-7.295-7.294 3.148-3.148zM59.421 21.58084c-4.107-4.107-10.787-4.108-14.894 0-4.106 4.107-4.106 10.79.001 14.898 4.107 4.107 10.787 4.108 14.893 0 4.107-4.108 4.106-10.789 0-14.898zm-.994.994c3.57 3.571 3.57 9.34 0 12.91-3.568 3.57-9.335 3.569-12.904 0-3.57-3.572-3.57-9.34-.001-12.91s9.334-3.569 12.905 0z"/><path d="M51.311 22.41684c-.388.008-.692.325-.692.713v6.551c0 .389.314.703.703.703h6.551c.95 0 .95-1.406 0-1.406h-5.848v-5.848c-.001-.396-.319-.719-.714-.713z"/></svg>