<?xml version="1.0" encoding="utf-8"?>
<!-- Generator: Adobe Illustrator 16.0.0, SVG Export Plug-In . SVG Version: 6.00 Build 0)  -->
<!DOCTYPE svg PUBLIC "-//W3C//DTD SVG 1.1//EN" "http://www.w3.org/Graphics/SVG/1.1/DTD/svg11.dtd">
<svg version="1.1" id="Layer_1" xmlns="http://www.w3.org/2000/svg" xmlns:xlink="http://www.w3.org/1999/xlink" x="0px" y="0px"
	 width="80px" height="80px" viewBox="0 0 80 80" enable-background="new 0 0 80 80" xml:space="preserve">
<g transform="translate(0,-952.36216)">
	<path d="M22.367,977.136c-0.19,0.007-0.366,0.09-0.499,0.227c-1.464,1.522-3.031,3.004-4.276,4.337
		c-0.05,0.083-0.087,0.189-0.091,0.271c-0.012,0.309,0.22,0.476,0.359,0.667c11.217,11.148,23.221,23.228,33.015,33.02
		c0.274,0.274,0.72,0.272,0.994,0c1.381-1.382,2.763-2.763,4.144-4.144c0.274-0.274,0.275-0.72,0.002-0.994
		c-2.717-2.717-8.15-8.15-8.15-8.15c-0.333-0.334-0.785-0.485-1.117-0.151c-1.27,1.275-2.569,2.569-3.66,3.66l-15.584-15.584
		c1.217-1.202,2.424-2.449,3.646-3.63c0.072-0.068,0.124-0.153,0.164-0.244c0.146-0.334-0.039-0.645-0.297-0.902l-8.016-8.016
		c-0.186-0.186-0.371-0.37-0.634-0.363V977.136z M22.364,978.853l7.293,7.296l-3.146,3.147l-7.295-7.294L22.364,978.853z
		 M47.228,1003.721l7.294,7.295l-3.147,3.147l-7.295-7.294L47.228,1003.721z"/>
	<path d="M59.421,973.943c-4.107-4.107-10.787-4.108-14.894,0c-4.106,4.107-4.106,10.79,0.001,14.898
		c4.107,4.107,10.787,4.108,14.893,0C63.528,984.733,63.527,978.052,59.421,973.943z M58.427,974.937c3.57,3.571,3.57,9.34,0,12.91
		c-3.568,3.57-9.335,3.569-12.904,0c-3.57-3.572-3.57-9.34-0.001-12.91S54.856,971.368,58.427,974.937L58.427,974.937z"/>
	<path d="M51.311,974.779c-0.388,0.008-0.692,0.325-0.692,0.713c0,2.184,0,6.551,0,6.551c0,0.389,0.314,0.703,0.703,0.703h6.551
		c0.95,0,0.95-1.406,0-1.406h-5.848c0,0,0-3.898,0-5.848C52.024,975.096,51.706,974.773,51.311,974.779z"/>
</g>
</svg>
