<svg xmlns="http://www.w3.org/2000/svg" width="30" height="30" viewBox="0 0 30 30"><path fill="#808285" d="M15 0C6.72 0 0 6.72 0 15c0 8.28 6.72 15 15 15 8.28 0 15-6.72 15-15 0-8.28-6.72-15-15-15zm-3.73 21.82H8.06v-9.63h3.21v9.63zm-1.6-10.7c-.89 0-1.61-.72-1.61-1.61 0-.89.72-1.6 1.61-1.6.88 0 1.6.71 1.6 1.6 0 .89-.72 1.61-1.6 1.61zm13.38 10.7h-3.09v-4.57c0-1.09-.02-2.49-1.61-2.49-1.6 0-1.85 1.19-1.85 2.41v4.65h-3.09v-9.63h2.97v1.52h.04c.41-.74 1.42-1.52 2.92-1.52 3.13 0 3.71 1.95 3.71 4.48v5.15z"/></svg>