<?xml version="1.0" encoding="utf-8"?>
<!-- Generator: Adobe Illustrator 16.0.0, SVG Export Plug-In . SVG Version: 6.00 Build 0)  -->
<!DOCTYPE svg PUBLIC "-//W3C//DTD SVG 1.1//EN" "http://www.w3.org/Graphics/SVG/1.1/DTD/svg11.dtd">
<svg version="1.1" id="Layer_1" xmlns="http://www.w3.org/2000/svg" xmlns:xlink="http://www.w3.org/1999/xlink" x="0px" y="0px"
	 width="30px" height="30px" viewBox="0 0 30 30" enable-background="new 0 0 30 30" xml:space="preserve">
<path fill="#808285" d="M15,0C6.72,0,0,6.72,0,15c0,8.28,6.72,15,15,15c8.28,0,15-6.72,15-15C30,6.72,23.28,0,15,0z M11.27,21.82
	H8.06v-9.63h3.21V21.82z M9.67,11.12c-0.89,0-1.61-0.72-1.61-1.61c0-0.89,0.72-1.6,1.61-1.6c0.88,0,1.6,0.71,1.6,1.6
	C11.27,10.4,10.55,11.12,9.67,11.12z M23.05,21.82h-3.09v-4.57c0-1.09-0.02-2.49-1.61-2.49c-1.6,0-1.85,1.19-1.85,2.41v4.65h-3.09
	v-9.63h2.97v1.52h0.04c0.41-0.74,1.42-1.52,2.92-1.52c3.13,0,3.71,1.95,3.71,4.48V21.82z"/>
</svg>
