<?xml version="1.0" encoding="utf-8"?>
<!-- Generator: Adobe Illustrator 16.0.0, SVG Export Plug-In . SVG Version: 6.00 Build 0)  -->
<!DOCTYPE svg PUBLIC "-//W3C//DTD SVG 1.1//EN" "http://www.w3.org/Graphics/SVG/1.1/DTD/svg11.dtd">
<svg version="1.1" id="Layer_1" xmlns="http://www.w3.org/2000/svg" xmlns:xlink="http://www.w3.org/1999/xlink" x="0px" y="0px"
	 width="80px" height="80px" viewBox="0 0 80 80" enable-background="new 0 0 80 80" xml:space="preserve">
<g>
	<g>
		<g>
			<rect x="22.286" y="28.182" fill="#FFFFFF" width="16.55" height="0.848"/>
		</g>
		<g>
			<rect x="22.286" y="30.902" fill="#FFFFFF" width="11.398" height="0.848"/>
		</g>
		<g>
			<rect x="22.286" y="33.625" fill="#FFFFFF" width="11.398" height="0.848"/>
		</g>
	</g>
	<g>
		<g>
			<rect x="41.163" y="38.916" fill="#FFFFFF" width="16.55" height="0.847"/>
		</g>
		<g>
			<rect x="41.163" y="41.637" fill="#FFFFFF" width="16.55" height="0.848"/>
		</g>
		<g>
			<rect x="41.163" y="44.359" fill="#FFFFFF" width="16.55" height="0.847"/>
		</g>
	</g>
	<polygon fill="#FFFFFF" points="17.5,22.588 17.5,40.066 21.439,40.066 21.439,46.68 29.361,40.066 33.685,40.066 33.685,38.371 
		28.77,38.371 28.586,38.523 28.576,38.514 23.134,43.057 23.134,38.371 23.104,38.371 21.439,38.371 19.194,38.371 19.194,24.282 
		42.162,24.282 42.162,30.828 43.855,30.828 43.855,22.588 	"/>
	<polygon fill="#FFFFFF" points="17.5,22.588 17.5,40.066 21.439,40.066 21.439,46.68 29.361,40.066 33.685,40.066 33.685,38.371 
		28.77,38.371 23.134,43.057 23.134,38.371 23.104,38.371 19.194,38.371 19.194,24.282 42.162,24.282 42.162,30.828 43.855,30.828 
		43.855,22.588 	"/>
	<polygon fill="#FFFFFF" points="62.5,33.321 62.5,50.801 58.561,50.801 58.561,57.412 50.637,50.801 36.143,50.801 36.143,49.105 
		51.23,49.105 56.865,53.791 56.865,49.105 56.896,49.105 60.805,49.105 60.805,35.016 37.838,35.016 37.838,50.801 36.143,50.801 
		36.143,33.321 	"/>
</g>
</svg>
