<svg xmlns="http://www.w3.org/2000/svg" width="80" height="80" viewBox="0 0 80 80"><path fill="#FFF" d="M22.286 28.182h16.55v.848h-16.55zM22.286 30.902h11.398v.848H22.286zM22.286 33.625h11.398v.848H22.286zM41.163 38.916h16.55v.847h-16.55zM41.163 41.637h16.55v.848h-16.55zM41.163 44.359h16.55v.847h-16.55z"/><path fill="#FFF" d="M17.5 22.588v17.478h3.939v6.614l7.922-6.614h4.324v-1.695H28.77l-.184.152-.01-.009-5.442 4.543v-4.686H19.194V24.282h22.968v6.546h1.693v-8.24"/><path fill="#FFF" d="M17.5 22.588v17.478h3.939v6.614l7.922-6.614h4.324v-1.695H28.77l-5.636 4.686v-4.686h-3.94V24.282h22.968v6.546h1.693v-8.24"/><path fill="#FFF" d="M62.5 33.321v17.48h-3.939v6.611l-7.924-6.611H36.143v-1.696H51.23l5.635 4.686v-4.686h3.94V35.016H37.838v15.785h-1.695v-17.48"/></svg>