<svg xmlns="http://www.w3.org/2000/svg" width="214.976" height="226.067" viewBox="0 0 214.976 226.067"><g fill="#010101"><path d="M95.16 7.861c-9.47 6.648-18.939 13.296-28.409 19.944C47.296 41.462 27.669 55.242 8.212 68.899c-1.204.846-2.583 1.813-3.788 2.66-4.132 2.9-5.229 8.295-3.086 12.446C.72 84.952.1 85.901.017 87.245c-.085 1.346.125 2.741 1.314 3.704 1.484 1.016 3.344.737 4.791.235.241.345.604.86.847 1.204-.913.898-1.704 1.968-1.91 3.14-.308 1.757.85 3.774 2.386 4.495 1.656.893 3.464.909 5.376.337.122.173.364.517.484.688-1.257 1.141-2.099 2.503-1.994 4.483.266 3.671 4.228 3.458 6.829 2.404.725 1.032 1.449 2.065 2.175 3.1-1.084 1.018-1.753 2.26-1.89 3.896.037 1.517.416 2.792 1.779 3.635 1.362.842 3.567.321 4.895-.353.121.172.121.172.241.345-.688.484-.963 1.19-1.238 1.897-.909 3.465 2.454 4.961 5.469 4.128.121.175.241.346.362.518-1.205.846-2.169 2.035-2.132 3.554-.202 3.739 4.072 4.337 6.845 3.16.122.174.364.518.484.688-1.497.796-2.635 2.107-2.649 3.916-.15 3.448 4.623 2.925 6.76 1.939.482.688.846 1.205 1.329 1.893-.517.364-.86.605-1.256 1.141-.792 1.069-1.342 2.482-.79 3.637 1.106 2.309 3.897 1.89 6.035.904.361.517.604.861.966 1.378-1.204.846-2.047 2.209-2.011 3.726.02 3.327 3.915 2.648 6 1.957.362.516.846 1.206 1.208 1.722-.345.241-.517.363-.739.776-.913.896-1.462 2.311-1.082 3.586.986 2.136 3.847 2.184 5.811 1.32.121.171.241.343.362.515-1.155.553-1.945 1.623-1.909 3.141-.099 3.152 3.763 3.527 6.141 2.887.24.343.482.688.724 1.032-1.033.726-2.116 1.743-2.441 2.743-1.134 3.879 4.123 4.045 6.551 3.111.242.345.605.86.846 1.205-1.204.846-2.169 2.035-2.253 3.381-.321 3.567 4.106 3.286 6.536 2.352.482.689.846 1.207 1.328 1.895-.566.655-.964 1.19-1.409 2.019-.55 1.413-.342 2.809.677 3.894 1.312 1.135 3.344.736 4.964.113.361.517.604.861.967 1.379-1.379.966-2.341 2.156-2.114 4.311.263 3.67 4.158 2.992 6.707 2.23.604.861 1.087 1.55 1.692 2.411-1.206.845-2.22 2.33-2.063 4.019.193 3.204 3.916 2.647 6.171 1.836.483.688 1.088 1.549 1.691 2.409-1.032.726-1.651 1.675-1.442 3.069.125 2.741 3.399 3.012 5.432 2.613.482.688.848 1.205 1.329 1.893-.738.777-1.186 1.605-1.512 2.605-.736 3.344 3.245 3.89 5.621 3.25 2.592 3.322 5.747 5.988 10.865 5.224 2.326-.348 4.271-1.969 6.164-3.299 2.929-2.056 6.028-4.23 8.954-6.285 21.178-14.866 42.528-29.855 63.704-44.721 6.715-4.714 13.43-9.428 20.146-14.143 5.509-3.867 10.465-8.889 6.269-15.966 0 0-.121-.174-.242-.346-24.295-34.607-48.588-69.213-72.883-103.819-5.802-8.266-11.604-16.529-17.405-24.794-2.779-3.959-5.476-9.265-9.734-11.671-6.212-3.352-13.165 3.586-17.986 6.97zM2.964 88.516c-.413-.221-.312-.809-.209-1.395.053-.291.104-.586.327-.999.604.859 1.088 1.549 1.692 2.41-.688.484-1.447.503-1.81-.016zm5.059 6.475c.171-.121.222-.413.567-.656.846 1.206 1.813 2.583 2.658 3.787-1.98.107-4.685-.82-3.225-3.131zm7.098 11.211c-1.223.087-1.293-.379-1.139-1.258.103-.586.497-1.12.894-1.656.604.862 1.208 1.723 1.813 2.584-.466.068-1.102.26-1.568.33zm6.546 10.054c-.122-.174-.415-.225-.242-.346-.243-.343-.19-.636-.141-.93.104-.586.378-1.293.774-1.828.604.861 1.33 1.894 1.934 2.756-.981.432-1.912.572-2.325.348zm5.416 4.421c.362.517.726 1.033 1.088 1.55-1.05-.032-1.999-.652-1.088-1.55zm3.681 7.441c.225-.414.447-.828.792-1.068.604.859 1.207 1.721 1.69 2.409-1.273.38-3.254.487-2.482-1.341zm5.509 8.214c-.294-.053-.76.017-1.053-.034-.292-.052-.292-.052-.12-.172.274-.706.842-1.363 1.651-1.673.362.515.726 1.034 1.089 1.548-.345.243-.983.432-1.567.331zm5.783 7.504c-.292-.051-.465.07-.759.018 0 0-.413-.223-.291-.051-.242-.343.67-1.24 1.013-1.482l.173-.121c.363.517.725 1.033.967 1.378-.346.241-.638.19-1.103.258zm4.834 6.888c-1.102.259-.929.14-.43-.981.051-.294.395-.535.566-.655.363.515.726 1.033 1.087 1.549-.465.069-.758.018-1.223.087zm4.491 7.129c-.243-.344.447-.828.964-1.19.362.517.604.86.966 1.376-.758.019-1.688.158-1.93-.186zm4.626 5.491c.052-.295.396-.536.74-.777.362.516.726 1.034 1.209 1.724-1.103.258-2.446.172-1.949-.947zm4.438 7.422c.346-.241.69-.483 1.207-.847.361.517.723 1.034 1.087 1.55-1.395.208-3.206.194-2.294-.703zm5.3 6.817c.345-.242.396-.535.862-.604.361.516.725 1.032 1.086 1.55-1.273.38-3.133.658-1.948-.946zm6.579 9.004c-.294-.051-.466.069-.586-.104l-.294-.051-.12-.173-.122-.171c-.121-.172.104-.586.155-.88.051-.293.224-.413.273-.707.364.518.847 1.205 1.21 1.723.122.174-.051.293-.516.363zm3.732 7.148c-.018-.759.257-1.467 1.066-1.778.604.861 1.21 1.724 1.813 2.583-1.275.381-2.67.589-2.879-.805zm7.63 9.037c-.465.07-.759.019-1.052-.033.051-.294.275-.708.275-.708.223-.413.446-.826.792-1.069.361.517.726 1.033 1.087 1.55-.466.069-.809.313-1.102.26zm5.611 7.627c-.294-.052-.413-.225-.413-.225-.121-.171-.121-.171.05-.291.052-.294.224-.416.395-.537.243.346.605.861.848 1.207-.294-.052-.588-.103-.88-.154zm4.886 6.594c.173-.121.173-.121.224-.415.362.519.725 1.034 1.087 1.55-.292-.051-.465.07-.758.02-.758.018-.828-.449-.553-1.155zm104.153-56.667c-9.987 7.011-19.973 14.021-29.959 21.032-18.595 13.053-37.361 26.228-55.957 39.281-3.959 2.779-8.472 4.406-12.202-.174-.604-.861-1.327-1.894-1.933-2.755-.483-.688-.967-1.376-1.45-2.065.638-.19 1.223-.089 1.688-.157 1.639.135 1.34-2.483-.297-2.62-1.05-.032-1.98.107-2.963.538-1.209-1.722-2.418-3.443-3.626-5.164.81-.312 1.446-.502 2.257-.813 1.619-.623.685-3.051-.935-2.43-.811.313-1.912.572-2.894 1.004-1.33-1.894-2.781-3.96-4.109-5.853.636-.19 1.396-.209 2.032-.399 1.567-.33.807-2.879-.934-2.43-.809.312-1.74.451-2.67.59-1.571-2.237-3.265-4.648-4.836-6.888.932-.139 1.862-.277 2.5-.467 1.567-.331.634-2.76-.935-2.43-1.103.261-2.205.521-3.016.831-1.328-1.894-2.658-3.787-3.988-5.681.638-.19 1.396-.21 2.104.065 1.412.549 2.583-1.813.996-2.243-1.414-.548-3.103-.391-4.55.111-1.208-1.722-2.418-3.443-3.506-4.995.639-.189 1.396-.206 1.984-.104 1.636.137 1.34-2.483-.298-2.619-1.053-.032-2.275.056-3.429.608-1.089-1.551-2.176-3.101-3.386-4.822.639-.189 1.103-.26 1.69-.156 1.516-.037 1.512-2.604-.177-2.446-.93.138-1.98.105-2.963.537-1.088-1.549-2.175-3.1-3.264-4.647.638-.191 1.568-.33 2.205-.521 1.569-.33.806-2.879-.935-2.428-.808.311-1.859.278-2.841.71-.967-1.377-2.056-2.927-3.021-4.305.465-.07 1.103-.26 1.567-.329 1.567-.33.805-2.878-.935-2.43-.637.191-1.567.332-2.205.521-1.33-1.894-2.538-3.616-3.868-5.509.638-.19 1.275-.381 1.914-.572 1.566-.328.633-2.758-.935-2.428-.811.311-1.741.45-2.429.934-1.09-1.55-2.176-3.1-3.264-4.649.465-.069.81-.312 1.274-.38 1.447-.502.807-2.881-.934-2.43-.638.191-1.274.381-1.912.572-1.208-1.722-2.297-3.271-3.505-4.993.293.052.586.103.878.154 1.639.134 2.049-2.209.464-2.638-.88-.154-1.933-.187-3.034.072-1.33-1.895-2.66-3.788-3.988-5.682.638-.191 1.103-.259 1.567-.328 1.568-.332 1.393-2.778-.176-2.447-.93.138-1.86.278-2.842.709-.968-1.378-2.055-2.926-3.022-4.304.465-.07.93-.14 1.396-.208 1.518-.038 1.513-2.604-.175-2.447-.758.017-1.688.157-2.671.589-1.208-1.722-2.538-3.615-3.748-5.337.637-.19 1.103-.261 1.69-.157 1.637.135 1.34-2.484-.297-2.619-1.051-.034-1.982.105-2.964.538-1.813-2.583-3.625-5.165-5.439-7.748.638-.191 1.396-.209 2.033-.398 1.688-.156 1.392-2.777-.176-2.447-1.223.088-2.325.349-3.308.779-1.692-2.409-3.384-4.82-4.955-7.059.688-.482 1.325-.674 2.136-.985 1.619-.622.685-3.051-.935-2.429-.81.311-1.79.744-2.651 1.348-1.209-1.722-2.539-3.615-3.747-5.338l-.605-.86c.689-.483 1.499-.795 2.256-.813 1.69-.158 1.394-2.778-.175-2.447-1.101.26-2.204.519-3.065 1.124-1.004-2.895-.904-6.047 2.247-8.517 1.204-.847 2.581-1.813 3.787-2.659 8.092-5.68 16.356-11.482 24.447-17.162 20.835-14.625 41.667-29.251 62.501-43.876 4.992-3.504 13.203-11.581 18.521-4.005 3.022 4.304 6.043 8.607 8.943 12.74 27.438 39.084 54.995 78.34 82.432 117.423 1.451 2.066 2.901 4.133 4.352 6.198 4.858 7.646-7.318 13.366-12.827 17.234z"/><path d="M109.098 55.908c-1.689.156-3.945.97-5.531.542.084-1.345.048-2.861-.333-4.137-.97-3.945-5.942 2.886-2.439 5.312.12.172.413.224.532.396-.05.294-.102.586-.152.878-.36 2.052-1.011 4.052-1.663 6.052-.651 2.002-1.822 4.362-3.113 3.985.358-2.052.252-4.031-.097-6.358-.277-1.861-1.762-2.876-3.311-1.787-2.066 1.45-.803 5.445.113 7.117.311.808.794 1.497 1.157 2.014-1.202 3.415-4.005 8.21-6.729 6.523-2.312-1.462-3.919-5.217-4.992-8.576.103-.584.326-.999.429-1.586 2.289-1.864 4.407-3.607 6.334-5.988.912-.897-.692-2.084-1.432-1.308-1.479 1.554-2.788 2.985-4.389 4.366-.088-1.223-.884-2.723-2.399-2.686-1.689.158-1.425 3.827-.993 4.81.12.173.241.344.19.637-1.085 1.019-2.463 1.986-3.547 3.005-.911.897.693 2.083 1.434 1.307.739-.776 1.428-1.259 2.166-2.035-.445.826-.721 1.535-.995 2.241s-.549 1.413-.824 2.12c-1.846-1.53-4.55.11-4.978 1.695-.465.07-.81.313-1.034.727-.377 1.293-.476 4.447.114 7.116-.206 1.173-.412 2.345-.565 3.224-.308 1.76-.909 3.467-1.509 5.172-1.342 2.484-3.088-2.201-3.399-3.011-1.366-3.411-2.585-12.836-7.446-13.536-2.929-.514-3.059 6.261-2.708 11.154-1.157-2.016-2.779-3.96-4.83-4.318-4.689-.821-3.95 10.482-3.43 12.688.259 1.101 2.241.996 1.981-.108-.33-1.566-.412-12.303 2.382-10.151 2.14 1.583 3.435 4.526 4.611 7.299.194 3.207.585 12.185 4.134 11.749.466-.07.81-.313.913-.898.838-3.929-1.477-7.959-3.135-11.421-.089-1.224-.177-2.446-.144-3.498-.105-1.981-.16-4.256-.146-6.066-.019-.759.218-5.549 2.029-2.967.846 1.205 1.4 2.36 1.952 3.512 1.056 2.603 2.984 14.87 7.996 12.124 2.014-1.158 2.732-5.26 3.144-7.604.724 1.034 1.846 1.53 3.121 1.15 4.703-.989 4.054-8.502 2.447-12.257.669-1.242 1.392-2.775 1.942-4.19 1.556 4.048 3.819 8.372 7.783 8.159 2.739-.124 4.51-4.195 5.626-6.265.275-.706.498-1.12.773-1.828 1.708.602 3.652-1.02 4.872-3.677 1.169-2.362 2.198-5.654 2.712-8.586 1.637.136 3.377-.314 5.116-.765 2.326-.349 5.191 2.268 3.264 4.647-.618.95-1.895 1.33-2.874 1.762-1.62.624-3.188.953-4.756 1.282-1.275.381-.532 2.173.743 1.792 3.359-1.072 7.666-1.527 9.334-5.01.878-2.418-2.419-6.013-5.451-5.94zM61.075 99.899c-.433-.981-.571-1.912-.832-3.014.261 1.102 1.333 4.461.832 3.014zm17.826-20.737c.105 1.98-1.471 9.257-3.753 4.175-.241-.344-.309-.81-.552-1.153.307-1.759.321-3.568.165-5.256 1.242.67 2.345.41 3.257-.488.38 1.274.813 2.256.883 2.722zM94.03 65.198c-.847-1.203-.451-1.738.602-1.707.087 1.226.348 2.328.436 3.55 0 0 .121.173-.052.295-.122-.174-.242-.346-.363-.517-.19-.638-.553-1.155-.623-1.621z"/></g></svg>