<?xml version="1.0" encoding="utf-8"?>
<!-- Generator: Adobe Illustrator 16.0.0, SVG Export Plug-In . SVG Version: 6.00 Build 0)  -->
<!DOCTYPE svg PUBLIC "-//W3C//DTD SVG 1.1//EN" "http://www.w3.org/Graphics/SVG/1.1/DTD/svg11.dtd">
<svg version="1.1" id="Layer_1" xmlns="http://www.w3.org/2000/svg" xmlns:xlink="http://www.w3.org/1999/xlink" x="0px" y="0px"
	 width="214.976px" height="226.067px" viewBox="0 0 214.976 226.067" enable-background="new 0 0 214.976 226.067"
	 xml:space="preserve">
<g>
	<path fill="#010101" d="M95.16,7.861c-9.47,6.648-18.939,13.296-28.409,19.944C47.296,41.462,27.669,55.242,8.212,68.899
		c-1.204,0.846-2.583,1.813-3.788,2.66c-4.132,2.9-5.229,8.295-3.086,12.446c-0.618,0.947-1.238,1.896-1.321,3.24
		c-0.085,1.346,0.125,2.741,1.314,3.704c1.484,1.016,3.344,0.737,4.791,0.235c0.241,0.345,0.604,0.86,0.847,1.204
		c-0.913,0.898-1.704,1.968-1.91,3.14c-0.308,1.757,0.85,3.774,2.386,4.495c1.656,0.893,3.464,0.909,5.376,0.337
		c0.122,0.173,0.364,0.517,0.484,0.688c-1.257,1.141-2.099,2.503-1.994,4.483c0.266,3.671,4.228,3.458,6.829,2.404
		c0.725,1.032,1.449,2.065,2.175,3.1c-1.084,1.018-1.753,2.26-1.89,3.896c0.037,1.517,0.416,2.792,1.779,3.635
		c1.362,0.842,3.567,0.321,4.895-0.353c0.121,0.172,0.121,0.172,0.241,0.345c-0.688,0.484-0.963,1.19-1.238,1.897
		c-0.909,3.465,2.454,4.961,5.469,4.128c0.121,0.175,0.241,0.346,0.362,0.518c-1.205,0.846-2.169,2.035-2.132,3.554
		c-0.202,3.739,4.072,4.337,6.845,3.16c0.122,0.174,0.364,0.518,0.484,0.688c-1.497,0.796-2.635,2.107-2.649,3.916
		c-0.15,3.448,4.623,2.925,6.76,1.939c0.482,0.688,0.846,1.205,1.329,1.893c-0.517,0.364-0.86,0.605-1.256,1.141
		c-0.792,1.069-1.342,2.482-0.79,3.637c1.106,2.309,3.897,1.89,6.035,0.904c0.361,0.517,0.604,0.861,0.966,1.378
		c-1.204,0.846-2.047,2.209-2.011,3.726c0.02,3.327,3.915,2.648,6,1.957c0.362,0.516,0.846,1.206,1.208,1.722
		c-0.345,0.241-0.517,0.363-0.739,0.776c-0.913,0.896-1.462,2.311-1.082,3.586c0.986,2.136,3.847,2.184,5.811,1.32
		c0.121,0.171,0.241,0.343,0.362,0.515c-1.155,0.553-1.945,1.623-1.909,3.141c-0.099,3.152,3.763,3.527,6.141,2.887
		c0.24,0.343,0.482,0.688,0.724,1.032c-1.033,0.726-2.116,1.743-2.441,2.743c-1.134,3.879,4.123,4.045,6.551,3.111
		c0.242,0.345,0.605,0.86,0.846,1.205c-1.204,0.846-2.169,2.035-2.253,3.381c-0.321,3.567,4.106,3.286,6.536,2.352
		c0.482,0.689,0.846,1.207,1.328,1.895c-0.566,0.655-0.964,1.19-1.409,2.019c-0.55,1.413-0.342,2.809,0.677,3.894
		c1.312,1.135,3.344,0.736,4.964,0.113c0.361,0.517,0.604,0.861,0.967,1.379c-1.379,0.966-2.341,2.156-2.114,4.311
		c0.263,3.67,4.158,2.992,6.707,2.23c0.604,0.861,1.087,1.55,1.692,2.411c-1.206,0.845-2.22,2.33-2.063,4.019
		c0.193,3.204,3.916,2.647,6.171,1.836c0.483,0.688,1.088,1.549,1.691,2.409c-1.032,0.726-1.651,1.675-1.442,3.069
		c0.125,2.741,3.399,3.012,5.432,2.613c0.482,0.688,0.848,1.205,1.329,1.893c-0.738,0.777-1.186,1.605-1.512,2.605
		c-0.736,3.344,3.245,3.89,5.621,3.25c2.592,3.322,5.747,5.988,10.865,5.224c2.326-0.348,4.271-1.969,6.164-3.299
		c2.929-2.056,6.028-4.23,8.954-6.285c21.178-14.866,42.528-29.855,63.704-44.721c6.715-4.714,13.43-9.428,20.146-14.143
		c5.509-3.867,10.465-8.889,6.269-15.966c0,0-0.121-0.174-0.242-0.346c-24.295-34.607-48.588-69.213-72.883-103.819
		c-5.802-8.266-11.604-16.529-17.405-24.794c-2.779-3.959-5.476-9.265-9.734-11.671C106.934-2.461,99.981,4.477,95.16,7.861z
		 M2.964,88.516c-0.413-0.221-0.312-0.809-0.209-1.395c0.053-0.291,0.104-0.586,0.327-0.999c0.604,0.859,1.088,1.549,1.692,2.41
		C4.086,89.016,3.327,89.035,2.964,88.516z M8.023,94.991c0.171-0.121,0.222-0.413,0.567-0.656c0.846,1.206,1.813,2.583,2.658,3.787
		C9.268,98.229,6.563,97.302,8.023,94.991z M15.121,106.202c-1.223,0.087-1.293-0.379-1.139-1.258
		c0.103-0.586,0.497-1.12,0.894-1.656c0.604,0.862,1.208,1.723,1.813,2.584C16.223,105.94,15.587,106.132,15.121,106.202z
		 M21.667,116.256c-0.122-0.174-0.415-0.225-0.242-0.346c-0.243-0.343-0.19-0.636-0.141-0.93c0.104-0.586,0.378-1.293,0.774-1.828
		c0.604,0.861,1.33,1.894,1.934,2.756C23.011,116.34,22.08,116.48,21.667,116.256z M27.083,120.677
		c0.362,0.517,0.726,1.033,1.088,1.55C27.121,122.195,26.172,121.575,27.083,120.677z M30.764,128.118
		c0.225-0.414,0.447-0.828,0.792-1.068c0.604,0.859,1.207,1.721,1.69,2.409C31.973,129.839,29.992,129.946,30.764,128.118z
		 M36.273,136.332c-0.294-0.053-0.76,0.017-1.053-0.034c-0.292-0.052-0.292-0.052-0.12-0.172c0.274-0.706,0.842-1.363,1.651-1.673
		c0.362,0.515,0.726,1.034,1.089,1.548C37.495,136.244,36.857,136.433,36.273,136.332z M42.056,143.836
		c-0.292-0.051-0.465,0.07-0.759,0.018c0,0-0.413-0.223-0.291-0.051c-0.242-0.343,0.67-1.24,1.013-1.482l0.173-0.121
		c0.363,0.517,0.725,1.033,0.967,1.378C42.813,143.819,42.521,143.768,42.056,143.836z M46.89,150.724
		c-1.102,0.259-0.929,0.14-0.43-0.981c0.051-0.294,0.395-0.535,0.566-0.655c0.363,0.515,0.726,1.033,1.087,1.549
		C47.648,150.706,47.355,150.655,46.89,150.724z M51.381,157.853c-0.243-0.344,0.447-0.828,0.964-1.19
		c0.362,0.517,0.604,0.86,0.966,1.376C52.553,158.058,51.623,158.197,51.381,157.853z M56.007,163.344
		c0.052-0.295,0.396-0.536,0.74-0.777c0.362,0.516,0.726,1.034,1.209,1.724C56.853,164.549,55.51,164.463,56.007,163.344z
		 M60.445,170.766c0.346-0.241,0.69-0.483,1.207-0.847c0.361,0.517,0.723,1.034,1.087,1.55
		C61.344,171.677,59.533,171.663,60.445,170.766z M65.745,177.583c0.345-0.242,0.396-0.535,0.862-0.604
		c0.361,0.516,0.725,1.032,1.086,1.55C66.42,178.909,64.56,179.187,65.745,177.583z M72.324,186.587
		c-0.294-0.051-0.466,0.069-0.586-0.104l-0.294-0.051c0,0,0,0-0.12-0.173l0,0c0,0,0,0-0.122-0.171
		c-0.121-0.172,0.104-0.586,0.155-0.88c0.051-0.293,0.224-0.413,0.273-0.707c0.364,0.518,0.847,1.205,1.21,1.723
		C72.962,186.398,72.789,186.517,72.324,186.587z M76.056,193.735c-0.018-0.759,0.257-1.467,1.066-1.778
		c0.604,0.861,1.21,1.724,1.813,2.583C77.66,194.921,76.265,195.129,76.056,193.735z M83.686,202.772
		c-0.465,0.07-0.759,0.019-1.052-0.033l0,0c0.051-0.294,0.275-0.708,0.275-0.708c0.223-0.413,0.446-0.826,0.792-1.069
		c0.361,0.517,0.726,1.033,1.087,1.55C84.322,202.581,83.979,202.825,83.686,202.772z M89.297,210.399
		c-0.294-0.052-0.413-0.225-0.413-0.225c-0.121-0.171-0.121-0.171,0.05-0.291c0.052-0.294,0.224-0.416,0.395-0.537
		c0.243,0.346,0.605,0.861,0.848,1.207C89.883,210.501,89.589,210.45,89.297,210.399z M94.183,216.993
		c0.173-0.121,0.173-0.121,0.224-0.415c0.362,0.519,0.725,1.034,1.087,1.55c-0.292-0.051-0.465,0.07-0.758,0.02
		C93.978,218.166,93.908,217.699,94.183,216.993z M198.336,160.326c-9.987,7.011-19.973,14.021-29.959,21.032
		c-18.595,13.053-37.361,26.228-55.957,39.281c-3.959,2.779-8.472,4.406-12.202-0.174c-0.604-0.861-1.327-1.894-1.933-2.755
		c-0.483-0.688-0.967-1.376-1.45-2.065c0.638-0.19,1.223-0.089,1.688-0.157c1.639,0.135,1.34-2.483-0.297-2.62
		c-1.05-0.032-1.98,0.107-2.963,0.538c-1.209-1.722-2.418-3.443-3.626-5.164c0.81-0.312,1.446-0.502,2.257-0.813
		c1.619-0.623,0.685-3.051-0.935-2.43c-0.811,0.313-1.912,0.572-2.894,1.004c-1.33-1.894-2.781-3.96-4.109-5.853
		c0.636-0.19,1.396-0.209,2.032-0.399c1.567-0.33,0.807-2.879-0.934-2.43c-0.809,0.312-1.74,0.451-2.67,0.59
		c-1.571-2.237-3.265-4.648-4.836-6.888c0.932-0.139,1.862-0.277,2.5-0.467c1.567-0.331,0.634-2.76-0.935-2.43
		c-1.103,0.261-2.205,0.521-3.016,0.831c-1.328-1.894-2.658-3.787-3.988-5.681c0.638-0.19,1.396-0.21,2.104,0.065
		c1.412,0.549,2.583-1.813,0.996-2.243c-1.414-0.548-3.103-0.391-4.55,0.111c-1.208-1.722-2.418-3.443-3.506-4.995
		c0.639-0.189,1.396-0.206,1.984-0.104c1.636,0.137,1.34-2.483-0.298-2.619c-1.053-0.032-2.275,0.056-3.429,0.608
		c-1.089-1.551-2.176-3.101-3.386-4.822c0.639-0.189,1.103-0.26,1.69-0.156c1.516-0.037,1.512-2.604-0.177-2.446
		c-0.93,0.138-1.98,0.105-2.963,0.537c-1.088-1.549-2.175-3.1-3.264-4.647c0.638-0.191,1.568-0.33,2.205-0.521
		c1.569-0.33,0.806-2.879-0.935-2.428c-0.808,0.311-1.859,0.278-2.841,0.71c-0.967-1.377-2.056-2.927-3.021-4.305
		c0.465-0.07,1.103-0.26,1.567-0.329c1.567-0.33,0.805-2.878-0.935-2.43c-0.637,0.191-1.567,0.332-2.205,0.521
		c-1.33-1.894-2.538-3.616-3.868-5.509c0.638-0.19,1.275-0.381,1.914-0.572c1.566-0.328,0.633-2.758-0.935-2.428
		c-0.811,0.311-1.741,0.45-2.429,0.934c-1.09-1.55-2.176-3.1-3.264-4.649c0.465-0.069,0.81-0.312,1.274-0.38
		c1.447-0.502,0.807-2.881-0.934-2.43c-0.638,0.191-1.274,0.381-1.912,0.572c-1.208-1.722-2.297-3.271-3.505-4.993
		c0.293,0.052,0.586,0.103,0.878,0.154c1.639,0.134,2.049-2.209,0.464-2.638c-0.88-0.154-1.933-0.187-3.034,0.072
		c-1.33-1.895-2.66-3.788-3.988-5.682c0.638-0.191,1.103-0.259,1.567-0.328c1.568-0.332,1.393-2.778-0.176-2.447
		c-0.93,0.138-1.86,0.278-2.842,0.709c-0.968-1.378-2.055-2.926-3.022-4.304c0.465-0.07,0.93-0.14,1.396-0.208
		c1.518-0.038,1.513-2.604-0.175-2.447c-0.758,0.017-1.688,0.157-2.671,0.589c-1.208-1.722-2.538-3.615-3.748-5.337
		c0.637-0.19,1.103-0.261,1.69-0.157c1.637,0.135,1.34-2.484-0.297-2.619c-1.051-0.034-1.982,0.105-2.964,0.538
		c-1.813-2.583-3.625-5.165-5.439-7.748c0.638-0.191,1.396-0.209,2.033-0.398c1.688-0.156,1.392-2.777-0.176-2.447
		c-1.223,0.088-2.325,0.349-3.308,0.779c-1.692-2.409-3.384-4.82-4.955-7.059c0.688-0.482,1.325-0.674,2.136-0.985
		c1.619-0.622,0.685-3.051-0.935-2.429c-0.81,0.311-1.79,0.744-2.651,1.348c-1.209-1.722-2.539-3.615-3.747-5.338
		c-0.242-0.344-0.363-0.516-0.605-0.86c0.689-0.483,1.499-0.795,2.256-0.813c1.69-0.158,1.394-2.778-0.175-2.447
		c-1.101,0.26-2.204,0.519-3.065,1.124c-1.004-2.895-0.904-6.047,2.247-8.517c1.204-0.847,2.581-1.813,3.787-2.659
		c8.092-5.68,16.356-11.482,24.447-17.162c20.835-14.625,41.667-29.251,62.501-43.876c4.992-3.504,13.203-11.581,18.521-4.005
		c3.022,4.304,6.043,8.607,8.943,12.74c27.438,39.084,54.995,78.34,82.432,117.423c1.451,2.066,2.901,4.133,4.352,6.198
		C216.021,150.738,203.845,156.458,198.336,160.326z"/>
	<path fill="#010101" d="M109.098,55.908c-1.689,0.156-3.945,0.97-5.531,0.542c0.084-1.345,0.048-2.861-0.333-4.137
		c-0.97-3.945-5.942,2.886-2.439,5.312c0.12,0.172,0.413,0.224,0.532,0.396c-0.05,0.294-0.102,0.586-0.152,0.878
		c-0.36,2.052-1.011,4.052-1.663,6.052c-0.651,2.002-1.822,4.362-3.113,3.985c0.358-2.052,0.252-4.031-0.097-6.358
		c-0.277-1.861-1.762-2.876-3.311-1.787c-2.066,1.45-0.803,5.445,0.113,7.117c0.311,0.808,0.794,1.497,1.157,2.014
		c-1.202,3.415-4.005,8.21-6.729,6.523c-2.312-1.462-3.919-5.217-4.992-8.576c0.103-0.584,0.326-0.999,0.429-1.586
		c2.289-1.864,4.407-3.607,6.334-5.988c0.912-0.897-0.692-2.084-1.432-1.308c-1.479,1.554-2.788,2.985-4.389,4.366
		c-0.088-1.223-0.884-2.723-2.399-2.686c-1.689,0.158-1.425,3.827-0.993,4.81c0.12,0.173,0.241,0.344,0.19,0.637
		c-1.085,1.019-2.463,1.986-3.547,3.005c-0.911,0.897,0.693,2.083,1.434,1.307c0.739-0.776,1.428-1.259,2.166-2.035
		c-0.445,0.826-0.721,1.535-0.995,2.241s-0.549,1.413-0.824,2.12c-1.846-1.53-4.55,0.11-4.978,1.695
		c-0.465,0.07-0.81,0.313-1.034,0.727c-0.377,1.293-0.476,4.447,0.114,7.116c-0.206,1.173-0.412,2.345-0.565,3.224
		c-0.308,1.76-0.909,3.467-1.509,5.172c-1.342,2.484-3.088-2.201-3.399-3.011c-1.366-3.411-2.585-12.836-7.446-13.536
		c-2.929-0.514-3.059,6.261-2.708,11.154c-1.157-2.016-2.779-3.96-4.83-4.318c-4.689-0.821-3.95,10.482-3.43,12.688
		c0.259,1.101,2.241,0.996,1.981-0.108c-0.33-1.566-0.412-12.303,2.382-10.151c2.14,1.583,3.435,4.526,4.611,7.299
		c0.194,3.207,0.585,12.185,4.134,11.749c0.466-0.07,0.81-0.313,0.913-0.898c0.838-3.929-1.477-7.959-3.135-11.421
		c-0.089-1.224-0.177-2.446-0.144-3.498c-0.105-1.981-0.16-4.256-0.146-6.066c-0.019-0.759,0.218-5.549,2.029-2.967
		c0.846,1.205,1.4,2.36,1.952,3.512c1.056,2.603,2.984,14.87,7.996,12.124c2.014-1.158,2.732-5.26,3.144-7.604
		c0.724,1.034,1.846,1.53,3.121,1.15c4.703-0.989,4.054-8.502,2.447-12.257c0.669-1.242,1.392-2.775,1.942-4.19
		c1.556,4.048,3.819,8.372,7.783,8.159c2.739-0.124,4.51-4.195,5.626-6.265c0.275-0.706,0.498-1.12,0.773-1.828
		c1.708,0.602,3.652-1.02,4.872-3.677c1.169-2.362,2.198-5.654,2.712-8.586c1.637,0.136,3.377-0.314,5.116-0.765
		c2.326-0.349,5.191,2.268,3.264,4.647c-0.618,0.95-1.895,1.33-2.874,1.762c-1.62,0.624-3.188,0.953-4.756,1.282
		c-1.275,0.381-0.532,2.173,0.743,1.792c3.359-1.072,7.666-1.527,9.334-5.01C115.427,59.43,112.13,55.835,109.098,55.908z
		 M61.075,99.899c-0.433-0.981-0.571-1.912-0.832-3.014C60.504,97.987,61.576,101.346,61.075,99.899z M78.901,79.162
		c0.105,1.98-1.471,9.257-3.753,4.175c-0.241-0.344-0.309-0.81-0.552-1.153c0.307-1.759,0.321-3.568,0.165-5.256l0,0
		c1.242,0.67,2.345,0.41,3.257-0.488C78.398,77.714,78.831,78.696,78.901,79.162z M94.03,65.198
		c-0.847-1.203-0.451-1.738,0.602-1.707c0.087,1.226,0.348,2.328,0.436,3.55c0,0,0.121,0.173-0.052,0.295
		c-0.122-0.174-0.242-0.346-0.363-0.517C94.463,66.181,94.1,65.664,94.03,65.198z"/>
</g>
</svg>
