<?xml version="1.0" encoding="utf-8"?>
<!-- Generator: Adobe Illustrator 16.0.0, SVG Export Plug-In . SVG Version: 6.00 Build 0)  -->
<!DOCTYPE svg PUBLIC "-//W3C//DTD SVG 1.1//EN" "http://www.w3.org/Graphics/SVG/1.1/DTD/svg11.dtd">
<svg version="1.1" id="Layer_1" xmlns="http://www.w3.org/2000/svg" xmlns:xlink="http://www.w3.org/1999/xlink" x="0px" y="0px"
	 width="126.318px" height="55.505px" viewBox="0 0 126.318 55.505" enable-background="new 0 0 126.318 55.505"
	 xml:space="preserve">
<path fill="#010101" d="M21.835,36.451c-0.146,0.016-0.146,0.016-0.277,0.146c-0.144,0.014-0.287,0.029-0.42,0.16
	c-3.68,2.383-6.105,5.701-9.465,8.404c-3.767,2.982-8.011,5.541-11.454,8.844c-0.528,0.525-0.026,1.184,0.707,1.229
	c0.154,0.102,0.31,0.203,0.597,0.176c9.661,0.672,19.229-2.426,28.951-2.586c0.287-0.031,0.43-0.045,0.562-0.176
	c0.145-0.014,0.288-0.029,0.419-0.16c0.145-0.016,0.145-0.016,0.288-0.031c8.265-3.082,16.847-5.844,25.084-9.162
	c8.514-3.463,17.003-7.16,25.516-10.625c8.24-3.316,16.478-6.635,24.869-9.849c6.151-2.397,13.131-3.814,17.964-7.73
	c0.729,0.043,1.402-0.498,1.042-1.172l-0.011-0.117c-0.012-0.117-0.012-0.117-0.167-0.218c-2.201-4.504-3.179-9.84-7.455-13.303
	c-0.323-0.321-0.756-0.278-1.175-0.117c-0.313-0.205-0.6-0.176-1.03-0.133c-15.815,5.978-31.788,11.853-47.745,17.846
	c-8.119,3.068-16.091,6.122-24.209,9.191C36.884,30.08,29.533,33.543,21.835,36.451z M74.424,29.104
	c-8.117,3.068-16.39,6.035-24.532,8.871c-6.737,2.336-12.651,5.656-19.066,8.316c0.637-0.893,0.828-1.857,0.28-2.984
	c-0.528-0.891-1.45-1.389-2.48-1.52c6.596-2.324,13.369-4.311,19.952-6.752c0.011,0.117,0.011,0.117,0.166,0.219
	c0.911,0.381,1.809,0.645,2.864,1.012c-0.515,0.641-1.224,0.83-2.097,0.803c-0.863,0.086-1.739,0.059-2.615,0.027
	c-1.461-0.086-2.769-0.074-4.313,0.439c-0.146,0.014-0.263,0.262-0.109,0.365c0.611,0.293,1.065,0.48,1.677,0.773
	c1.977,0.863-0.67,0.541-1.258,0.484c-1.751-0.061-3.368-0.25-5.095-0.076c-0.287,0.031-0.263,0.264-0.107,0.367
	c0.466,0.307,0.635,0.527,1.378,0.688c0.598,0.174,3.689,0.57,1.833,0.877c-2.291,0.35-4.711-0.586-7.024-0.469
	c-0.286,0.029-0.262,0.264-0.108,0.365c0.624,0.41,1.235,0.701,1.844,0.994c0.614,0.295,1.953,0.629,0.193,0.453
	c-1.607-0.072-3.115-0.629-4.724-0.701c-0.143,0.014-0.419,0.162-0.251,0.379c0.479,0.426,0.647,0.645,1.4,0.922
	c1.668,0.656,1.954,0.629,0.013,0.115c-0.155-0.102-0.418,0.162-0.264,0.264c0.515,0.777,0.204,0.572,0.992,1.201
	c0.17,0.219,0.576-0.059,0.409-0.279c-1.28-1.17,0.994-0.219,1.737-0.059c0.29-0.029,0.407-0.275,0.254-0.379
	c-1.068-0.484-5.739-2.137-1.438-1.273c1.342,0.338,2.661,0.439,3.954,0.309c0.289-0.029,0.265-0.264,0.108-0.367
	c-0.3-0.088-4.374-1.564-2.468-1.402c0.877,0.027,1.774,0.293,2.648,0.324c1.476,0.203,2.925,0.174,4.327-0.324
	c0.145-0.014,0.252-0.379-0.035-0.35c-0.742-0.16-1.641-0.424-2.384-0.586c-3.428-0.834-0.072-0.701,0.804-0.67
	c1.605,0.072,3.225,0.26,4.805,0.102c0.289-0.029,0.266-0.266,0.109-0.365c-0.469-0.309-3.176-1.215-1.605-1.492
	c1.428-0.264,2.902-0.059,4.363,0.031c1.594-0.045,2.734-0.279,3.97-0.996c0.131-0.131,0.119-0.248-0.037-0.352
	c-2.12-0.846-4.35-1.33-0.261-1.152c1.748,0.057,3.367,0.248,5.224-0.059c0.146-0.016,0.264-0.264,0.109-0.365
	c-0.611-0.293-1.066-0.482-1.678-0.775c-2.288-1.066,1.245-0.602,1.547-0.512c1.905,0.16,3.512,0.234,5.37-0.072
	c0.287-0.029,0.252-0.381,0.107-0.367c-1.199-0.35-4.05-1.242-0.838-1.096c1.607,0.074,3.068,0.162,4.507,0.016
	c0.144-0.014,0.264-0.262,0.109-0.365c-0.769-0.396-1.667-0.656-2.433-1.055c0,0,2.457-0.131,2.757-0.041
	c1.318,0.102,2.48,0.102,3.882-0.395c0.29-0.031,0.109-0.367-0.034-0.352c-2.947-0.408-1.39-0.803,0.061-0.834
	C72.088,28.984,73.26,29.104,74.424,29.104c0.288-0.029,0.407-0.279,0.252-0.381c-0.468-0.307-0.934-0.615-1.391-0.804
	c-1.688-0.89,0.24-0.497,0.974-0.453c1.316,0.102,2.492,0.22,3.774-0.028c0.144-0.016,0.264-0.265,0.107-0.366
	c-0.611-0.293-1.222-0.584-1.833-0.877c0.852-0.204,1.57-0.276,2.459-0.131c1.149-0.117,2.156-0.22,3.308-0.335
	c0.287-0.031,0.263-0.264,0.107-0.367c-0.623-0.41-3.354-1.55-0.861-1.33c1.617,0.189,3.104,0.512,4.82,0.221
	c0.286-0.03,0.264-0.264,0.106-0.366c-0.623-0.41-1.233-0.702-1.846-0.994c-1.676-0.774,1.571-0.277,1.715-0.291
	c1.617,0.188,3.223,0.262,4.782-0.134c0.287-0.027,0.108-0.364-0.035-0.35c-0.599-0.175-2.9-1.359-3.043-1.345
	c0.997-0.22,2.337,0.118,3.211,0.147c1.476,0.204,2.782,0.189,4.194-0.19c0.146-0.016,0.265-0.264,0.108-0.366
	c-0.61-0.292-2.479-1.521-2.908-1.476c1.749,0.059,3.258,0.613,5.008,0.673c0.288-0.031,0.409-0.278,0.252-0.381
	c-0.936-0.615-3.485-1.417-0.826-0.979c1.475,0.205,2.936,0.294,4.53,0.25c0.288-0.03,0.265-0.266,0.107-0.366
	c-0.144,0.015-3.52-1.77-1.625-1.727c1.592-0.043,3.09,0.397,4.684,0.353c0.144-0.015,0.42-0.161,0.253-0.38
	c-0.791-0.629-4.9-2.457-1.486-1.74c1.632,0.308,2.853,0.892,4.557,0.483c0.287-0.029,0.264-0.264,0.107-0.367
	c-0.623-0.409-3.811-1.739-1.316-1.521c1.76,0.177,3.391,0.485,5.273,0.413c0.287-0.03,0.263-0.266,0.106-0.368
	c-3.93-1.49,1.237-0.715,1.967-0.671c0.287-0.029,0.409-0.279,0.252-0.381c-3.079-1.695,1.248-0.6,2.267-0.584
	c0.288-0.029,0.408-0.278,0.252-0.38c-3.498-1.535,1.713-0.294,2.89-0.177c0.144-0.014,0.274-0.145,0.264-0.261
	c-0.383-0.906-1.281-1.17-2.205-1.667c1.067,0.482,2.121,0.847,3.715,0.804c0.289-0.029,0.265-0.262,0.11-0.365
	c-0.479-0.424-3.501-1.536-1.905-1.579c0.145-0.015,0.275-0.147,0.264-0.262c-0.059-0.586-0.047-0.47-0.383-0.909
	c-0.167-0.217-0.574,0.059-0.408,0.28c0.012,0.117,0.026,0.231-0.109,0.365c-0.297-0.09-0.418,0.16-0.25,0.378
	c0.658,0.762,0.334,0.439,1.27,1.055c1.893,1.461-2.026,0.087-2.769-0.074c-0.302-0.089-0.552,0.293-0.252,0.38
	c0.154,0.104,2.335,1.534,2.036,1.447c-1.319-0.103-2.661-0.438-3.859-0.79c-0.299-0.087-0.419,0.16-0.251,0.381
	c0.333,0.438,0.513,0.774,1.124,1.067c-0.911-0.381-2.373-0.469-3.415-0.717c-0.154-0.104-0.418,0.159-0.264,0.264
	c0.348,0.554,0.527,0.892,1.138,1.183c-0.61-0.291-2.505-0.336-3.234-0.38c-0.291,0.029-0.421,0.16-0.254,0.381
	c0.658,0.76,2.456,1.287,0.419,1.257c-1.749-0.06-3.536-0.468-5.285-0.527c-0.287,0.029-0.42,0.161-0.253,0.381
	c0.647,0.645,0.334,0.437,1.257,0.937c-0.155-0.103,2.709,0.904,0.972,0.965c-1.883,0.07-3.439-0.951-5.322-0.878
	c-0.285,0.028-0.419,0.159-0.252,0.379c0.492,0.541,1.951,2.048,2.672,1.975c-1.883,0.072-3.691-0.571-5.55-0.264
	c-0.145,0.015-0.264,0.263-0.106,0.364c0.657,0.762,1.565,1.14,2.634,1.623c-0.863,0.088-1.595,0.045-2.48-0.102
	c-1.031-0.132-2.206-0.249-3.236-0.38c-0.286,0.029-0.409,0.276-0.252,0.38c0.323,0.322,1.87,1.227,2.013,1.211
	c-1.749-0.057-3.26-0.611-5.01-0.671c-0.287,0.027-0.42,0.162-0.253,0.379c0.647,0.643,0.336,0.439,1.259,0.936
	c1.078,0.601,0.826,0.981-0.493,0.879c-1.761-0.178-3.246-0.498-4.962-0.205c-0.143,0.013-0.264,0.264-0.108,0.364
	c0.767,0.395,4.507,1.432,1.307,1.403c-1.607-0.074-3.237-0.381-4.987-0.438c-0.287,0.029-0.419,0.159-0.251,0.381
	c0.659,0.759,3.511,1.651,1.329,1.637c-2.037-0.029-3.69-0.571-5.693-0.249c-0.287,0.028-0.264,0.263-0.109,0.365
	c0,0,2.912,1.476,1.462,1.506c-1.596,0.044-3.069-0.162-4.519-0.131c-0.288,0.028-0.265,0.261-0.108,0.363
	c1.102,0.834,2.312,1.302-0.025,1.185c-1.317-0.103-2.491-0.22-3.774,0.029c-0.144,0.016-0.265,0.265-0.108,0.365
	c1.064,0.482,3.905,1.259,0.98,1.083c-1.462-0.09-3.068-0.163-4.508-0.016c-0.142,0.014-0.263,0.262-0.106,0.363
	c0.79,0.629,1.402,0.922,2.443,1.17c-1.773-0.293-4.529-0.248-6.389,0.059c-0.286,0.031-0.263,0.264-0.107,0.365
	c0.466,0.309,0.934,0.615,1.389,0.803c1.989,0.98-0.825,0.439-1.558,0.395c-1.606-0.072-3.068-0.16-4.507-0.014
	c-0.289,0.029-0.264,0.264-0.108,0.365c0.767,0.395,2.611,1.391,3.175,1.215c-2.276,0.467-5.116-0.309-7.431-0.191
	c6.284-2.529,12.422-5.042,18.704-7.569c7.817-3.158,15.649-6.198,23.286-9.692c6.706-4.104,14.619-7.745,23.299-9.57l0,0
	c0.718,1.344,1.305,2.821,1.889,4.295C106.438,16.637,90.528,23.098,74.424,29.104z M54.165,32.813
	c-0.132,0.133-0.132,0.133,0.024,0.236c1.58,1.256,4.107,1.828,0.021,1.652c-1.749-0.059-3.222-0.266-4.938,0.027
	C50.951,34.084,52.485,33.457,54.165,32.813z M97.919,12.892c-7.626,3.611-15.301,6.753-23.13,9.793
	c-8.236,3.318-16.318,6.737-24.425,9.924c-7.266,2.863-14.603,5.025-22.05,7.555c0.109-0.365,0.218-0.729,0.314-1.213
	c0.144-1.432-0.945-2.148-2.276-2.369c5.852-2.482,11.691-5.086,17.699-7.467c7.972-3.055,16.09-6.125,24.208-9.192
	c16.235-6.14,32.638-12.06,48.873-18.198l0,0c1.112,0.952,1.94,1.932,2.645,3.159C112.082,6.375,104.996,9.575,97.919,12.892z
	 M22.3,38.176c0.156,0.102,0.455,0.189,0.732,0.045c0.706-0.191,1.425-0.264,2.3-0.234c3.633-0.014-0.122,3.084-0.529,3.363
	c0,0-0.144,0.014-0.133,0.131c-0.144,0.014-0.275,0.145-0.419,0.16c-0.287,0.029-0.42,0.162-0.409,0.277
	c-0.826,0.439-1.809,0.775-2.638,1.213l0,0l0,0c-0.145,0.016-0.133,0.131-0.274,0.148c-0.961,0.568,0.033,1.768,1.005,1.314
	c2.098-0.805,4.628-1.65,6.868-1.053c2.985,0.762-1.261,3.318-1.944,3.742c-1.104,0.586-2.206,1.17-3.31,1.754
	c-0.96,0.57,0.033,1.77,1.005,1.316c0.983-0.338,1.967-0.674,3.093-1.025c1.141-0.234,5.25,0.18,2.936,1.713
	c-6.234,0.16-12.359,1.373-18.389,2.104c-0.012-0.119-0.023-0.234-0.023-0.234c-0.73-1.461-1.591-2.793-2.453-4.123
	c1.223-0.834,2.435-1.781,3.66-2.615C16.326,43.746,18.619,40.559,22.3,38.176z M2.964,53.846c1.463-1.33,3.095-2.443,4.858-3.684
	c0.838,1.096,1.531,2.207,2.094,3.449C7.614,53.844,5.301,53.963,2.964,53.846z M33.113,50.193c-0.048-0.469-0.396-1.021-1.162-1.42
	c-0.467-0.305-0.924-0.496-1.522-0.67c6.858-2.588,13.024-6.285,20.051-8.654c8.284-2.848,16.414-5.801,24.529-8.871
	c16.249-6.02,32.162-12.481,48.263-18.487c0.203,0.571,0.562,1.243,0.766,1.814c-5.35,4.56-14.196,6.166-20.898,8.855
	c-7.964,3.171-15.936,6.225-23.887,9.514c-8.094,3.303-16.164,6.84-24.4,10.158C47.716,45.164,40.402,47.563,33.113,50.193z"/>
</svg>
