<svg xmlns="http://www.w3.org/2000/svg" width="126.318" height="55.505" viewBox="0 0 126.318 55.505"><path fill="#010101" d="M21.835 36.451c-.146.016-.146.016-.277.146-.144.014-.287.029-.42.16-3.68 2.383-6.105 5.701-9.465 8.404-3.767 2.982-8.011 5.541-11.454 8.844-.528.525-.026 1.184.707 1.229.154.102.31.203.597.176 9.661.672 19.229-2.426 28.951-2.586.287-.031.43-.045.562-.176.145-.014.288-.029.419-.16.145-.016.145-.016.288-.031 8.265-3.082 16.847-5.844 25.084-9.162 8.514-3.463 17.003-7.16 25.516-10.625 8.24-3.316 16.478-6.635 24.869-9.849 6.151-2.397 13.131-3.814 17.964-7.73.729.043 1.402-.498 1.042-1.172l-.011-.117c-.012-.117-.012-.117-.167-.218-2.201-4.504-3.179-9.84-7.455-13.303-.323-.321-.756-.278-1.175-.117-.313-.205-.6-.176-1.03-.133-15.815 5.978-31.788 11.853-47.745 17.846-8.119 3.068-16.091 6.122-24.209 9.191-7.542 3.012-14.893 6.475-22.591 9.383zm52.589-7.347c-8.117 3.068-16.39 6.035-24.532 8.871-6.737 2.336-12.651 5.656-19.066 8.316.637-.893.828-1.857.28-2.984-.528-.891-1.45-1.389-2.48-1.52 6.596-2.324 13.369-4.311 19.952-6.752.011.117.011.117.166.219.911.381 1.809.645 2.864 1.012-.515.641-1.224.83-2.097.803-.863.086-1.739.059-2.615.027-1.461-.086-2.769-.074-4.313.439-.146.014-.263.262-.109.365.611.293 1.065.48 1.677.773 1.977.863-.67.541-1.258.484-1.751-.061-3.368-.25-5.095-.076-.287.031-.263.264-.107.367.466.307.635.527 1.378.688.598.174 3.689.57 1.833.877-2.291.35-4.711-.586-7.024-.469-.286.029-.262.264-.108.365.624.41 1.235.701 1.844.994.614.295 1.953.629.193.453-1.607-.072-3.115-.629-4.724-.701-.143.014-.419.162-.251.379.479.426.647.645 1.4.922 1.668.656 1.954.629.013.115-.155-.102-.418.162-.264.264.515.777.204.572.992 1.201.17.219.576-.059.409-.279-1.28-1.17.994-.219 1.737-.059.29-.029.407-.275.254-.379-1.068-.484-5.739-2.137-1.438-1.273 1.342.338 2.661.439 3.954.309.289-.029.265-.264.108-.367-.3-.088-4.374-1.564-2.468-1.402.877.027 1.774.293 2.648.324 1.476.203 2.925.174 4.327-.324.145-.014.252-.379-.035-.35-.742-.16-1.641-.424-2.384-.586-3.428-.834-.072-.701.804-.67 1.605.072 3.225.26 4.805.102.289-.029.266-.266.109-.365-.469-.309-3.176-1.215-1.605-1.492 1.428-.264 2.902-.059 4.363.031 1.594-.045 2.734-.279 3.97-.996.131-.131.119-.248-.037-.352-2.12-.846-4.35-1.33-.261-1.152 1.748.057 3.367.248 5.224-.059.146-.016.264-.264.109-.365-.611-.293-1.066-.482-1.678-.775-2.288-1.066 1.245-.602 1.547-.512 1.905.16 3.512.234 5.37-.072.287-.029.252-.381.107-.367-1.199-.35-4.05-1.242-.838-1.096 1.607.074 3.068.162 4.507.016.144-.014.264-.262.109-.365-.769-.396-1.667-.656-2.433-1.055 0 0 2.457-.131 2.757-.041 1.318.102 2.48.102 3.882-.395.29-.031.109-.367-.034-.352-2.947-.408-1.39-.803.061-.834 1.165 0 2.337.12 3.501.12.288-.029.407-.279.252-.381-.468-.307-.934-.615-1.391-.804-1.688-.89.24-.497.974-.453 1.316.102 2.492.22 3.774-.028.144-.016.264-.265.107-.366-.611-.293-1.222-.584-1.833-.877.852-.204 1.57-.276 2.459-.131 1.149-.117 2.156-.22 3.308-.335.287-.031.263-.264.107-.367-.623-.41-3.354-1.55-.861-1.33 1.617.189 3.104.512 4.82.221.286-.03.264-.264.106-.366-.623-.41-1.233-.702-1.846-.994-1.676-.774 1.571-.277 1.715-.291 1.617.188 3.223.262 4.782-.134.287-.027.108-.364-.035-.35-.599-.175-2.9-1.359-3.043-1.345.997-.22 2.337.118 3.211.147 1.476.204 2.782.189 4.194-.19.146-.016.265-.264.108-.366-.61-.292-2.479-1.521-2.908-1.476 1.749.059 3.258.613 5.008.673.288-.031.409-.278.252-.381-.936-.615-3.485-1.417-.826-.979 1.475.205 2.936.294 4.53.25.288-.03.265-.266.107-.366-.144.015-3.52-1.77-1.625-1.727 1.592-.043 3.09.397 4.684.353.144-.015.42-.161.253-.38-.791-.629-4.9-2.457-1.486-1.74 1.632.308 2.853.892 4.557.483.287-.029.264-.264.107-.367-.623-.409-3.811-1.739-1.316-1.521 1.76.177 3.391.485 5.273.413.287-.03.263-.266.106-.368-3.93-1.49 1.237-.715 1.967-.671.287-.029.409-.279.252-.381-3.079-1.695 1.248-.6 2.267-.584.288-.029.408-.278.252-.38-3.498-1.535 1.713-.294 2.89-.177.144-.014.274-.145.264-.261-.383-.906-1.281-1.17-2.205-1.667 1.067.482 2.121.847 3.715.804.289-.029.265-.262.11-.365-.479-.424-3.501-1.536-1.905-1.579.145-.015.275-.147.264-.262-.059-.586-.047-.47-.383-.909-.167-.217-.574.059-.408.28.012.117.026.231-.109.365-.297-.09-.418.16-.25.378.658.762.334.439 1.27 1.055 1.893 1.461-2.026.087-2.769-.074-.302-.089-.552.293-.252.38.154.104 2.335 1.534 2.036 1.447-1.319-.103-2.661-.438-3.859-.79-.299-.087-.419.16-.251.381.333.438.513.774 1.124 1.067-.911-.381-2.373-.469-3.415-.717-.154-.104-.418.159-.264.264.348.554.527.892 1.138 1.183-.61-.291-2.505-.336-3.234-.38-.291.029-.421.16-.254.381.658.76 2.456 1.287.419 1.257-1.749-.06-3.536-.468-5.285-.527-.287.029-.42.161-.253.381.647.645.334.437 1.257.937-.155-.103 2.709.904.972.965-1.883.07-3.439-.951-5.322-.878-.285.028-.419.159-.252.379.492.541 1.951 2.048 2.672 1.975-1.883.072-3.691-.571-5.55-.264-.145.015-.264.263-.106.364.657.762 1.565 1.14 2.634 1.623-.863.088-1.595.045-2.48-.102-1.031-.132-2.206-.249-3.236-.38-.286.029-.409.276-.252.38.323.322 1.87 1.227 2.013 1.211-1.749-.057-3.26-.611-5.01-.671-.287.027-.42.162-.253.379.647.643.336.439 1.259.936 1.078.601.826.981-.493.879-1.761-.178-3.246-.498-4.962-.205-.143.013-.264.264-.108.364.767.395 4.507 1.432 1.307 1.403-1.607-.074-3.237-.381-4.987-.438-.287.029-.419.159-.251.381.659.759 3.511 1.651 1.329 1.637-2.037-.029-3.69-.571-5.693-.249-.287.028-.264.263-.109.365 0 0 2.912 1.476 1.462 1.506-1.596.044-3.069-.162-4.519-.131-.288.028-.265.261-.108.363 1.102.834 2.312 1.302-.025 1.185-1.317-.103-2.491-.22-3.774.029-.144.016-.265.265-.108.365 1.064.482 3.905 1.259.98 1.083-1.462-.09-3.068-.163-4.508-.016-.142.014-.263.262-.106.363.79.629 1.402.922 2.443 1.17-1.773-.293-4.529-.248-6.389.059-.286.031-.263.264-.107.365.466.309.934.615 1.389.803 1.989.98-.825.439-1.558.395-1.606-.072-3.068-.16-4.507-.014-.289.029-.264.264-.108.365.767.395 2.611 1.391 3.175 1.215-2.276.467-5.116-.309-7.431-.191 6.284-2.529 12.422-5.042 18.704-7.569 7.817-3.158 15.649-6.198 23.286-9.692 6.706-4.104 14.619-7.745 23.299-9.57.718 1.344 1.305 2.821 1.889 4.295-16.24 6.138-32.15 12.599-48.254 18.605zm-20.259 3.709c-.132.133-.132.133.024.236 1.58 1.256 4.107 1.828.021 1.652-1.749-.059-3.222-.266-4.938.027 1.679-.644 3.213-1.271 4.893-1.915zm43.754-19.921c-7.626 3.611-15.301 6.753-23.13 9.793-8.236 3.318-16.318 6.737-24.425 9.924-7.266 2.863-14.603 5.025-22.05 7.555.109-.365.218-.729.314-1.213.144-1.432-.945-2.148-2.276-2.369 5.852-2.482 11.691-5.086 17.699-7.467 7.972-3.055 16.09-6.125 24.208-9.192 16.235-6.14 32.638-12.06 48.873-18.198 1.112.952 1.94 1.932 2.645 3.159-7.695 1.491-14.781 4.691-21.858 8.008zM22.3 38.176c.156.102.455.189.732.045.706-.191 1.425-.264 2.3-.234 3.633-.014-.122 3.084-.529 3.363 0 0-.144.014-.133.131-.144.014-.275.145-.419.16-.287.029-.42.162-.409.277-.826.439-1.809.775-2.638 1.213-.145.016-.133.131-.274.148-.961.568.033 1.768 1.005 1.314 2.098-.805 4.628-1.65 6.868-1.053 2.985.762-1.261 3.318-1.944 3.742-1.104.586-2.206 1.17-3.31 1.754-.96.57.033 1.77 1.005 1.316.983-.338 1.967-.674 3.093-1.025 1.141-.234 5.25.18 2.936 1.713-6.234.16-12.359 1.373-18.389 2.104-.012-.119-.023-.234-.023-.234-.73-1.461-1.591-2.793-2.453-4.123 1.223-.834 2.435-1.781 3.66-2.615 2.948-2.426 5.241-5.613 8.922-7.996zM2.964 53.846c1.463-1.33 3.095-2.443 4.858-3.684.838 1.096 1.531 2.207 2.094 3.449-2.302.233-4.615.352-6.952.235zm30.149-3.653c-.048-.469-.396-1.021-1.162-1.42-.467-.305-.924-.496-1.522-.67 6.858-2.588 13.024-6.285 20.051-8.654 8.284-2.848 16.414-5.801 24.529-8.871 16.249-6.02 32.162-12.481 48.263-18.487.203.571.562 1.243.766 1.814-5.35 4.56-14.196 6.166-20.898 8.855-7.964 3.171-15.936 6.225-23.887 9.514-8.094 3.303-16.164 6.84-24.4 10.158-7.137 2.732-14.451 5.131-21.74 7.761z"/></svg>