<?xml version="1.0" encoding="utf-8"?>
<!-- Generator: Adobe Illustrator 16.0.0, SVG Export Plug-In . SVG Version: 6.00 Build 0)  -->
<!DOCTYPE svg PUBLIC "-//W3C//DTD SVG 1.1//EN" "http://www.w3.org/Graphics/SVG/1.1/DTD/svg11.dtd">
<svg version="1.1" id="Layer_1" xmlns="http://www.w3.org/2000/svg" xmlns:xlink="http://www.w3.org/1999/xlink" x="0px" y="0px"
	 width="80px" height="80px" viewBox="0 0 80 80" enable-background="new 0 0 80 80" xml:space="preserve">
<g>
	<g>
		<path fill="#010101" d="M50.738,50.372L40.693,46.86c-1.307-0.408-1.633-1.144-1.47-2.777h-0.245
			c2.858-2.449,4.818-5.145,4.818-9.146c0-5.309-3.593-9.719-8.003-9.719s-8.004,4.492-8.004,9.801c0,3.92,2.042,6.615,4.818,9.064
			h-0.326c0.081,1.634-0.409,2.287-1.797,2.613l-10.127,4.41c-1.307,0.572-2.858,1.715-2.858,3.104v5.39h35.934v-5.39
			C53.516,52.821,52.127,50.861,50.738,50.372z"/>
	</g>
	<g>
		<rect x="36.365" y="20.399" fill="#010101" width="26.135" height="1.634"/>
	</g>
	<g>
		<rect x="46.982" y="25.3" fill="#010101" width="15.518" height="1.633"/>
	</g>
	<g>
		<rect x="46.982" y="30.2" fill="#010101" width="15.518" height="1.633"/>
	</g>
	<g>
		<rect x="46.982" y="35.1" fill="#010101" width="15.518" height="1.634"/>
	</g>
	<g>
		<rect x="46.982" y="40" fill="#010101" width="15.518" height="1.634"/>
	</g>
	<g>
		<rect x="46.982" y="44.9" fill="#010101" width="15.518" height="1.634"/>
	</g>
	<g>
		<rect x="55.966" y="49.801" fill="#010101" width="6.534" height="1.633"/>
	</g>
</g>
</svg>
