<svg xmlns="http://www.w3.org/2000/svg" width="80" height="80" viewBox="0 0 80 80"><path fill="#010101" d="M50.738 50.372L40.693 46.86c-1.307-.408-1.633-1.144-1.47-2.777h-.245c2.858-2.449 4.818-5.145 4.818-9.146 0-5.309-3.593-9.719-8.003-9.719s-8.004 4.492-8.004 9.801c0 3.92 2.042 6.615 4.818 9.064h-.326c.081 1.634-.409 2.287-1.797 2.613l-10.127 4.41c-1.307.572-2.858 1.715-2.858 3.104v5.39h35.934v-5.39c.083-1.389-1.306-3.349-2.695-3.838zM36.365 20.399H62.5v1.634H36.365zM46.982 25.3H62.5v1.633H46.982zM46.982 30.2H62.5v1.633H46.982zM46.982 35.1H62.5v1.634H46.982z"/><path fill="#010101" d="M46.982 40H62.5v1.634H46.982zM46.982 44.9H62.5v1.634H46.982zM55.966 49.801H62.5v1.633h-6.534z"/></svg>