<?xml version="1.0" encoding="utf-8"?>
<!-- Generator: Adobe Illustrator 16.0.0, SVG Export Plug-In . SVG Version: 6.00 Build 0)  -->
<!DOCTYPE svg PUBLIC "-//W3C//DTD SVG 1.1//EN" "http://www.w3.org/Graphics/SVG/1.1/DTD/svg11.dtd">
<svg version="1.1" id="Layer_1" xmlns="http://www.w3.org/2000/svg" xmlns:xlink="http://www.w3.org/1999/xlink" x="0px" y="0px"
	 width="80px" height="80px" viewBox="0 0 80 80" enable-background="new 0 0 80 80" xml:space="preserve">
<path d="M48.75,25c0-2.75-2.25-5-5-5h-7.5c-2.75,0-5,2.25-5,5v1.25H17.5V60h45V26.25H48.75V25z M33.75,25c0-1.4,1.1-2.5,2.5-2.5h7.5
	c1.4,0,2.5,1.1,2.5,2.5v1.25h-12.5V25z M51.9,28.75V57.5H28.149V28.75H51.9z M20,28.75h6.9V57.5H20V28.75z M60,57.5h-6.85V28.75H60
	V57.5z"/>
</svg>
