<?xml version="1.0" encoding="utf-8"?>
<!-- Generator: Adobe Illustrator 16.0.0, SVG Export Plug-In . SVG Version: 6.00 Build 0)  -->
<!DOCTYPE svg PUBLIC "-//W3C//DTD SVG 1.1//EN" "http://www.w3.org/Graphics/SVG/1.1/DTD/svg11.dtd">
<svg version="1.1" id="Layer_1" xmlns="http://www.w3.org/2000/svg" xmlns:xlink="http://www.w3.org/1999/xlink" x="0px" y="0px"
	 width="30px" height="30px" viewBox="0 0 30 30" enable-background="new 0 0 30 30" xml:space="preserve">
<path fill="#808285" d="M15,0C6.716,0,0,6.716,0,15s6.716,15,15,15c8.283,0,15-6.716,15-15S23.283,0,15,0z M22.455,11.177
	c0.008,0.165,0.012,0.331,0.012,0.497c0,5.084-3.869,10.945-10.945,10.945c-2.172,0-4.194-0.638-5.897-1.729
	c0.301,0.035,0.607,0.054,0.918,0.054c1.802,0,3.46-0.614,4.777-1.646c-1.683-0.03-3.104-1.143-3.594-2.671
	c0.235,0.045,0.476,0.069,0.724,0.069c0.351,0,0.691-0.048,1.013-0.136c-1.759-0.354-3.085-1.907-3.085-3.771
	c0-0.017,0-0.032,0-0.049c0.518,0.289,1.112,0.462,1.742,0.481c-1.032-0.69-1.711-1.867-1.711-3.202c0-0.705,0.19-1.366,0.521-1.934
	c1.897,2.327,4.731,3.858,7.929,4.019c-0.065-0.281-0.1-0.575-0.1-0.876c0-2.125,1.723-3.847,3.846-3.847
	c1.107,0,2.107,0.467,2.809,1.214c0.877-0.172,1.699-0.492,2.443-0.933c-0.289,0.897-0.898,1.652-1.691,2.128
	c0.777-0.093,1.52-0.3,2.209-0.605C23.859,9.956,23.207,10.634,22.455,11.177z"/>
</svg>
