<svg xmlns="http://www.w3.org/2000/svg" width="30" height="30" viewBox="0 0 30 30"><path fill="#808285" d="M15 0C6.716 0 0 6.716 0 15s6.716 15 15 15c8.283 0 15-6.716 15-15S23.283 0 15 0zm7.455 11.177c.008.165.012.331.012.497 0 5.084-3.869 10.945-10.945 10.945-2.172 0-4.194-.638-5.897-1.729.301.035.607.054.918.054 1.802 0 3.46-.614 4.777-1.646-1.683-.03-3.104-1.143-3.594-2.671.235.045.476.069.724.069.351 0 .691-.048 1.013-.136-1.759-.354-3.085-1.907-3.085-3.771v-.049c.518.289 1.112.462 1.742.481-1.032-.69-1.711-1.867-1.711-3.202 0-.705.19-1.366.521-1.934 1.897 2.327 4.731 3.858 7.929 4.019-.065-.281-.1-.575-.1-.876 0-2.125 1.723-3.847 3.846-3.847 1.107 0 2.107.467 2.809 1.214.877-.172 1.699-.492 2.443-.933-.289.897-.898 1.652-1.691 2.128.777-.093 1.52-.3 2.209-.605-.516.771-1.168 1.449-1.92 1.992z"/></svg>