<?xml version="1.0" encoding="utf-8"?>
<!-- Generator: Adobe Illustrator 16.0.0, SVG Export Plug-In . SVG Version: 6.00 Build 0)  -->
<!DOCTYPE svg PUBLIC "-//W3C//DTD SVG 1.1//EN" "http://www.w3.org/Graphics/SVG/1.1/DTD/svg11.dtd">
<svg version="1.1" id="Layer_1" xmlns="http://www.w3.org/2000/svg" xmlns:xlink="http://www.w3.org/1999/xlink" x="0px" y="0px"
	 width="30px" height="30px" viewBox="0 0 30 30" enable-background="new 0 0 30 30" xml:space="preserve">
<path fill="#808285" d="M14.56,9.7c-0.24,0-0.44,0.2-0.44,0.45v1.76c0,0.24,0.2,0.44,0.44,0.44c0.24,0,0.44-0.2,0.44-0.44v-1.76
	C15,9.9,14.8,9.7,14.56,9.7z M14.56,9.7c-0.24,0-0.44,0.2-0.44,0.45v1.76c0,0.24,0.2,0.44,0.44,0.44c0.24,0,0.44-0.2,0.44-0.44
	v-1.76C15,9.9,14.8,9.7,14.56,9.7z M8.82,15.88v0.89H9.7v4.41h0.89v-4.41h0.88v-0.89H8.82z M13.23,17.65v2.59
	c-0.38,0.319-0.88,0.38-0.88-0.16v-2.43h-0.88v2.42c0.01,0.729,0.09,1.64,1.76,0.699v0.41h0.89V17.65H13.23z M14.56,9.7
	c-0.24,0-0.44,0.2-0.44,0.45v1.76c0,0.24,0.2,0.44,0.44,0.44c0.24,0,0.44-0.2,0.44-0.44v-1.76C15,9.9,14.8,9.7,14.56,9.7z
	 M15.88,17.32v-1.44H15v5.3h0.88v-0.42c0.82,0.721,1.771,0.45,1.771-0.47v-2.64C17.65,16.77,16.77,16.44,15.88,17.32z M16.77,20.3
	c0,0.44-0.59,0.41-0.89,0.11v-2.32c0.44-0.439,0.89-0.3,0.89,0.141V20.3z M21.18,18.97v-0.88c0-0.729-0.6-1.32-1.319-1.32
	c-0.74,0-1.33,0.591-1.33,1.32v1.771c0,0.729,0.59,1.319,1.33,1.319c0.72,0,1.319-0.59,1.319-1.319v-0.44H20.3v0.44
	c0,0.239-0.2,0.439-0.439,0.439c-0.25,0-0.44-0.2-0.44-0.439V18.97H21.18z M19.42,18.09c0-0.24,0.19-0.439,0.44-0.439
	c0.239,0,0.439,0.199,0.439,0.439v0.44h-0.88V18.09z M21.18,18.97v-0.88c0-0.729-0.6-1.32-1.319-1.32c-0.74,0-1.33,0.591-1.33,1.32
	v1.771c0,0.729,0.59,1.319,1.33,1.319c0.72,0,1.319-0.59,1.319-1.319v-0.44H20.3v0.44c0,0.239-0.2,0.439-0.439,0.439
	c-0.25,0-0.44-0.2-0.44-0.439V18.97H21.18z M19.42,18.09c0-0.24,0.19-0.439,0.44-0.439c0.239,0,0.439,0.199,0.439,0.439v0.44h-0.88
	V18.09z M15.88,17.32v-1.44H15v5.3h0.88v-0.42c0.82,0.721,1.771,0.45,1.771-0.47v-2.64C17.65,16.77,16.77,16.44,15.88,17.32z
	 M16.77,20.3c0,0.44-0.59,0.41-0.89,0.11v-2.32c0.44-0.439,0.89-0.3,0.89,0.141V20.3z M13.23,20.24c-0.38,0.319-0.88,0.38-0.88-0.16
	v-2.43h-0.88v2.42c0.01,0.729,0.09,1.64,1.76,0.699v0.41h0.89V17.65h-0.89V20.24z M11.47,15.88H8.82v0.89H9.7v4.41h0.89v-4.41h0.88
	V15.88z M14.56,9.7c-0.24,0-0.44,0.2-0.44,0.45v1.76c0,0.24,0.2,0.44,0.44,0.44c0.24,0,0.44-0.2,0.44-0.44v-1.76
	C15,9.9,14.8,9.7,14.56,9.7z M15,0C6.72,0,0,6.72,0,15c0,8.28,6.72,15,15,15c8.28,0,15-6.72,15-15C30,6.72,23.28,0,15,0z
	 M16.77,8.82h0.881v2.85c0,1.14,0.5,0.95,0.88,0.63V8.82h0.89v4.42h-0.89v-0.42c-0.431,0.29-0.75,0.4-1,0.4
	c-0.67,0-0.75-0.84-0.761-1.37V8.82z M13.23,10.15c0-0.73,0.6-1.33,1.33-1.33s1.32,0.6,1.32,1.33v1.76c0,0.73-0.59,1.33-1.32,1.33
	s-1.33-0.6-1.33-1.33V10.15z M10.07,7.94l0.96,1.89l0.95-1.89h1.22l-1.72,3l-0.01-0.01v2.31h-0.88v-2.31l-0.01,0.01l-1.73-3H10.07z
	 M21.99,20.22c-0.04,0.511-0.221,0.931-0.55,1.25c-0.32,0.32-0.74,0.49-1.25,0.521c-0.971,0.05-3.171,0.069-5.101,0.069
	c-1.94,0-4.3-0.02-5.26-0.069c-0.51-0.03-0.93-0.2-1.26-0.521c-0.33-0.319-0.51-0.739-0.55-1.25c-0.05-1.04-0.08-1.81-0.08-2.33
	c0-0.52,0.03-0.89,0.08-1.93c0.04-0.51,0.22-0.92,0.55-1.24c0.33-0.33,0.75-0.5,1.26-0.53c0.96-0.05,3.32-0.07,5.26-0.07
	c1.93,0,4.13,0.02,5.101,0.07c0.51,0.03,0.93,0.2,1.25,0.53c0.329,0.32,0.51,0.73,0.55,1.24c0.05,0.86,0.069,1.24,0.069,1.93
	C22.06,18.58,22.04,19.36,21.99,20.22z M19.86,16.77c-0.74,0-1.33,0.591-1.33,1.32v1.771c0,0.729,0.59,1.319,1.33,1.319
	c0.72,0,1.319-0.59,1.319-1.319v-0.44H20.3v0.44c0,0.239-0.2,0.439-0.439,0.439c-0.25,0-0.44-0.2-0.44-0.439V18.97h1.76v-0.88
	C21.18,17.36,20.58,16.77,19.86,16.77z M20.3,18.53h-0.88v-0.44c0-0.24,0.19-0.439,0.44-0.439c0.239,0,0.439,0.199,0.439,0.439
	V18.53z M15.88,17.32v-1.44H15v5.3h0.88v-0.42c0.82,0.721,1.771,0.45,1.771-0.47v-2.64C17.65,16.77,16.77,16.44,15.88,17.32z
	 M16.77,20.3c0,0.44-0.59,0.41-0.89,0.11v-2.32c0.44-0.439,0.89-0.3,0.89,0.141V20.3z M14.56,12.35c0.24,0,0.44-0.2,0.44-0.44v-1.76
	c0-0.25-0.2-0.45-0.44-0.45c-0.24,0-0.44,0.2-0.44,0.45v1.76C14.12,12.15,14.32,12.35,14.56,12.35z M13.23,20.24
	c-0.38,0.319-0.88,0.38-0.88-0.16v-2.43h-0.88v2.42c0.01,0.729,0.09,1.64,1.76,0.699v0.41h0.89V17.65h-0.89V20.24z M11.47,15.88
	H8.82v0.89H9.7v4.41h0.89v-4.41h0.88V15.88z M14.56,9.7c-0.24,0-0.44,0.2-0.44,0.45v1.76c0,0.24,0.2,0.44,0.44,0.44
	c0.24,0,0.44-0.2,0.44-0.44v-1.76C15,9.9,14.8,9.7,14.56,9.7z M8.82,15.88v0.89H9.7v4.41h0.89v-4.41h0.88v-0.89H8.82z M13.23,17.65
	v2.59c-0.38,0.319-0.88,0.38-0.88-0.16v-2.43h-0.88v2.42c0.01,0.729,0.09,1.64,1.76,0.699v0.41h0.89V17.65H13.23z M15.88,17.32
	v-1.44H15v5.3h0.88v-0.42c0.82,0.721,1.771,0.45,1.771-0.47v-2.64C17.65,16.77,16.77,16.44,15.88,17.32z M16.77,20.3
	c0,0.44-0.59,0.41-0.89,0.11v-2.32c0.44-0.439,0.89-0.3,0.89,0.141V20.3z M21.18,18.97v-0.88c0-0.729-0.6-1.32-1.319-1.32
	c-0.74,0-1.33,0.591-1.33,1.32v1.771c0,0.729,0.59,1.319,1.33,1.319c0.72,0,1.319-0.59,1.319-1.319v-0.44H20.3v0.44
	c0,0.239-0.2,0.439-0.439,0.439c-0.25,0-0.44-0.2-0.44-0.439V18.97H21.18z M19.42,18.09c0-0.24,0.19-0.439,0.44-0.439
	c0.239,0,0.439,0.199,0.439,0.439v0.44h-0.88V18.09z M21.18,18.97v-0.88c0-0.729-0.6-1.32-1.319-1.32c-0.74,0-1.33,0.591-1.33,1.32
	v1.771c0,0.729,0.59,1.319,1.33,1.319c0.72,0,1.319-0.59,1.319-1.319v-0.44H20.3v0.44c0,0.239-0.2,0.439-0.439,0.439
	c-0.25,0-0.44-0.2-0.44-0.439V18.97H21.18z M19.42,18.09c0-0.24,0.19-0.439,0.44-0.439c0.239,0,0.439,0.199,0.439,0.439v0.44h-0.88
	V18.09z M15.88,17.32v-1.44H15v5.3h0.88v-0.42c0.82,0.721,1.771,0.45,1.771-0.47v-2.64C17.65,16.77,16.77,16.44,15.88,17.32z
	 M16.77,20.3c0,0.44-0.59,0.41-0.89,0.11v-2.32c0.44-0.439,0.89-0.3,0.89,0.141V20.3z M14.56,9.7c-0.24,0-0.44,0.2-0.44,0.45v1.76
	c0,0.24,0.2,0.44,0.44,0.44c0.24,0,0.44-0.2,0.44-0.44v-1.76C15,9.9,14.8,9.7,14.56,9.7z M13.23,17.65v2.59
	c-0.38,0.319-0.88,0.38-0.88-0.16v-2.43h-0.88v2.42c0.01,0.729,0.09,1.64,1.76,0.699v0.41h0.89V17.65H13.23z M8.82,15.88v0.89H9.7
	v4.41h0.89v-4.41h0.88v-0.89H8.82z M14.56,9.7c-0.24,0-0.44,0.2-0.44,0.45v1.76c0,0.24,0.2,0.44,0.44,0.44
	c0.24,0,0.44-0.2,0.44-0.44v-1.76C15,9.9,14.8,9.7,14.56,9.7z M14.56,9.7c-0.24,0-0.44,0.2-0.44,0.45v1.76
	c0,0.24,0.2,0.44,0.44,0.44c0.24,0,0.44-0.2,0.44-0.44v-1.76C15,9.9,14.8,9.7,14.56,9.7z"/>
</svg>
