<svg xmlns="http://www.w3.org/2000/svg" width="30" height="30" viewBox="0 0 30 30"><path fill="#808285" d="M14.56 9.7c-.24 0-.44.2-.44.45v1.76c0 .24.2.44.44.44s.44-.2.44-.44v-1.76c0-.25-.2-.45-.44-.45zm0 0c-.24 0-.44.2-.44.45v1.76c0 .24.2.44.44.44s.44-.2.44-.44v-1.76c0-.25-.2-.45-.44-.45zm-5.74 6.18v.89h.88v4.41h.89v-4.41h.88v-.89H8.82zm4.41 1.77v2.59c-.38.319-.88.38-.88-.16v-2.43h-.88v2.42c.01.729.09 1.64 1.76.699v.41h.89V17.65h-.89zm1.33-7.95c-.24 0-.44.2-.44.45v1.76c0 .24.2.44.44.44s.44-.2.44-.44v-1.76c0-.25-.2-.45-.44-.45zm1.32 7.62v-1.44H15v5.3h.88v-.42c.82.721 1.771.45 1.771-.47v-2.64c-.001-.88-.881-1.21-1.771-.33zm.89 2.98c0 .44-.59.41-.89.11v-2.32c.44-.439.89-.3.89.141V20.3zm4.41-1.33v-.88c0-.729-.6-1.32-1.319-1.32-.74 0-1.33.591-1.33 1.32v1.771c0 .729.59 1.319 1.33 1.319.72 0 1.319-.59 1.319-1.319v-.44h-.88v.44c0 .239-.2.439-.439.439-.25 0-.44-.2-.44-.439v-.891h1.759zm-1.76-.88c0-.24.19-.439.44-.439.239 0 .439.199.439.439v.44h-.88v-.44zm1.76.88v-.88c0-.729-.6-1.32-1.319-1.32-.74 0-1.33.591-1.33 1.32v1.771c0 .729.59 1.319 1.33 1.319.72 0 1.319-.59 1.319-1.319v-.44h-.88v.44c0 .239-.2.439-.439.439-.25 0-.44-.2-.44-.439v-.891h1.759zm-1.76-.88c0-.24.19-.439.44-.439.239 0 .439.199.439.439v.44h-.88v-.44zm-3.54-.77v-1.44H15v5.3h.88v-.42c.82.721 1.771.45 1.771-.47v-2.64c-.001-.88-.881-1.21-1.771-.33zm.89 2.98c0 .44-.59.41-.89.11v-2.32c.44-.439.89-.3.89.141V20.3zm-3.54-.06c-.38.319-.88.38-.88-.16v-2.43h-.88v2.42c.01.729.09 1.64 1.76.699v.41h.89V17.65h-.89v2.59zm-1.76-4.36H8.82v.89h.88v4.41h.89v-4.41h.88v-.89zm3.09-6.18c-.24 0-.44.2-.44.45v1.76c0 .24.2.44.44.44s.44-.2.44-.44v-1.76c0-.25-.2-.45-.44-.45zM15 0C6.72 0 0 6.72 0 15c0 8.28 6.72 15 15 15 8.28 0 15-6.72 15-15 0-8.28-6.72-15-15-15zm1.77 8.82h.881v2.85c0 1.14.5.95.88.63V8.82h.89v4.42h-.89v-.42c-.431.29-.75.4-1 .4-.67 0-.75-.84-.761-1.37V8.82zm-3.54 1.33c0-.73.6-1.33 1.33-1.33s1.32.6 1.32 1.33v1.76c0 .73-.59 1.33-1.32 1.33s-1.33-.6-1.33-1.33v-1.76zm-3.16-2.21l.96 1.89.95-1.89h1.22l-1.72 3-.01-.01v2.31h-.88v-2.31l-.01.01-1.73-3h1.22zm11.92 12.28c-.04.511-.221.931-.55 1.25-.32.32-.74.49-1.25.521-.971.05-3.171.069-5.101.069-1.94 0-4.3-.02-5.26-.069-.51-.03-.93-.2-1.26-.521-.33-.319-.51-.739-.55-1.25-.05-1.04-.08-1.81-.08-2.33s.03-.89.08-1.93c.04-.51.22-.92.55-1.24.33-.33.75-.5 1.26-.53.96-.05 3.32-.07 5.26-.07 1.93 0 4.13.02 5.101.07.51.03.93.2 1.25.53.329.32.51.73.55 1.24.05.86.069 1.24.069 1.93.001.69-.019 1.47-.069 2.33zm-2.13-3.45c-.74 0-1.33.591-1.33 1.32v1.771c0 .729.59 1.319 1.33 1.319.72 0 1.319-.59 1.319-1.319v-.44H20.3v.44c0 .239-.2.439-.439.439-.25 0-.44-.2-.44-.439v-.891h1.76v-.88c-.001-.73-.601-1.32-1.321-1.32zm.44 1.76h-.88v-.44c0-.24.19-.439.44-.439.239 0 .439.199.439.439v.44zm-4.42-1.21v-1.44H15v5.3h.88v-.42c.82.721 1.771.45 1.771-.47v-2.64c-.001-.88-.881-1.21-1.771-.33zm.89 2.98c0 .44-.59.41-.89.11v-2.32c.44-.439.89-.3.89.141V20.3zm-2.21-7.95c.24 0 .44-.2.44-.44v-1.76c0-.25-.2-.45-.44-.45s-.44.2-.44.45v1.76c0 .24.2.44.44.44zm-1.33 7.89c-.38.319-.88.38-.88-.16v-2.43h-.88v2.42c.01.729.09 1.64 1.76.699v.41h.89V17.65h-.89v2.59zm-1.76-4.36H8.82v.89h.88v4.41h.89v-4.41h.88v-.89zm3.09-6.18c-.24 0-.44.2-.44.45v1.76c0 .24.2.44.44.44s.44-.2.44-.44v-1.76c0-.25-.2-.45-.44-.45zm-5.74 6.18v.89h.88v4.41h.89v-4.41h.88v-.89H8.82zm4.41 1.77v2.59c-.38.319-.88.38-.88-.16v-2.43h-.88v2.42c.01.729.09 1.64 1.76.699v.41h.89V17.65h-.89zm2.65-.33v-1.44H15v5.3h.88v-.42c.82.721 1.771.45 1.771-.47v-2.64c-.001-.88-.881-1.21-1.771-.33zm.89 2.98c0 .44-.59.41-.89.11v-2.32c.44-.439.89-.3.89.141V20.3zm4.41-1.33v-.88c0-.729-.6-1.32-1.319-1.32-.74 0-1.33.591-1.33 1.32v1.771c0 .729.59 1.319 1.33 1.319.72 0 1.319-.59 1.319-1.319v-.44h-.88v.44c0 .239-.2.439-.439.439-.25 0-.44-.2-.44-.439v-.891h1.759zm-1.76-.88c0-.24.19-.439.44-.439.239 0 .439.199.439.439v.44h-.88v-.44zm1.76.88v-.88c0-.729-.6-1.32-1.319-1.32-.74 0-1.33.591-1.33 1.32v1.771c0 .729.59 1.319 1.33 1.319.72 0 1.319-.59 1.319-1.319v-.44h-.88v.44c0 .239-.2.439-.439.439-.25 0-.44-.2-.44-.439v-.891h1.759zm-1.76-.88c0-.24.19-.439.44-.439.239 0 .439.199.439.439v.44h-.88v-.44zm-3.54-.77v-1.44H15v5.3h.88v-.42c.82.721 1.771.45 1.771-.47v-2.64c-.001-.88-.881-1.21-1.771-.33zm.89 2.98c0 .44-.59.41-.89.11v-2.32c.44-.439.89-.3.89.141V20.3zM14.56 9.7c-.24 0-.44.2-.44.45v1.76c0 .24.2.44.44.44s.44-.2.44-.44v-1.76c0-.25-.2-.45-.44-.45zm-1.33 7.95v2.59c-.38.319-.88.38-.88-.16v-2.43h-.88v2.42c.01.729.09 1.64 1.76.699v.41h.89V17.65h-.89zm-4.41-1.77v.89h.88v4.41h.89v-4.41h.88v-.89H8.82zm5.74-6.18c-.24 0-.44.2-.44.45v1.76c0 .24.2.44.44.44s.44-.2.44-.44v-1.76c0-.25-.2-.45-.44-.45zm0 0c-.24 0-.44.2-.44.45v1.76c0 .24.2.44.44.44s.44-.2.44-.44v-1.76c0-.25-.2-.45-.44-.45z"/></svg>