<?xml version="1.0" encoding="utf-8"?>
<!-- Generator: Adobe Illustrator 16.0.0, SVG Export Plug-In . SVG Version: 6.00 Build 0)  -->
<!DOCTYPE svg PUBLIC "-//W3C//DTD SVG 1.1//EN" "http://www.w3.org/Graphics/SVG/1.1/DTD/svg11.dtd">
<svg version="1.1" id="Layer_1" xmlns="http://www.w3.org/2000/svg" xmlns:xlink="http://www.w3.org/1999/xlink" x="0px" y="0px"
	 width="18.24px" height="18.24px" viewBox="0 0 18.24 18.24" enable-background="new 0 0 18.24 18.24" xml:space="preserve">
<circle fill="#00AEEF" cx="9.12" cy="9.12" r="9.12"/>
<path fill="#FFFFFF" d="M6.221,4.332h2.485c0.785,0,1.379,0.061,1.783,0.183c0.404,0.123,0.73,0.37,0.979,0.742
	c0.249,0.373,0.373,0.973,0.373,1.8c0,0.56-0.088,0.95-0.263,1.171c-0.176,0.221-0.522,0.39-1.038,0.508
	c0.576,0.13,0.966,0.346,1.171,0.648s0.308,0.765,0.308,1.388v0.889c0,0.646-0.074,1.127-0.222,1.438
	c-0.147,0.313-0.384,0.525-0.707,0.64s-0.986,0.172-1.988,0.172H6.221V4.332z M8.712,5.97V8.1C8.818,8.096,8.901,8.094,8.96,8.094
	c0.244,0,0.4-0.06,0.467-0.18c0.067-0.121,0.1-0.464,0.1-1.032c0-0.3-0.027-0.51-0.083-0.63C9.39,6.131,9.318,6.055,9.229,6.023
	C9.141,5.992,8.968,5.974,8.712,5.97z M8.712,9.591v2.68c0.351-0.012,0.575-0.067,0.671-0.165c0.096-0.1,0.145-0.342,0.145-0.729
	v-0.893c0-0.41-0.043-0.659-0.13-0.746C9.312,9.652,9.083,9.603,8.712,9.591z"/>
</svg>
